<svg xmlns="http://www.w3.org/2000/svg" xmlns:xlink="http://www.w3.org/1999/xlink" width="1366" zoomAndPan="magnify" viewBox="0 0 1024.5 576" height="768" preserveAspectRatio="xMidYMid meet" version="1.0"><defs><clipPath id="74174a12b8"><path d="M 0 0.140625 L 1024 0.140625 L 1024 575.859375 L 0 575.859375 Z M 0 0.140625 " clip-rule="nonzero"/></clipPath><clipPath id="0c811b6bf2"><path d="M 574 128.648438 L 632 128.648438 L 632 167 L 574 167 Z M 574 128.648438 " clip-rule="nonzero"/></clipPath><clipPath id="414625884f"><path d="M 250.234375 329 L 773.480469 329 L 773.480469 432 L 250.234375 432 Z M 250.234375 329 " clip-rule="nonzero"/></clipPath><clipPath id="0988d56ca0"><path d="M 250.394531 431 L 773.316406 431 L 773.316406 447.246094 L 250.394531 447.246094 Z M 250.394531 431 " clip-rule="nonzero"/></clipPath><clipPath id="171c2bd2bb"><path d="M 351 299.511719 L 440.972656 299.511719 L 440.972656 447.246094 L 351 447.246094 Z M 351 299.511719 " clip-rule="nonzero"/></clipPath><clipPath id="d94c9235a9"><path d="M 308 303 L 429 303 L 429 447.246094 L 308 447.246094 Z M 308 303 " clip-rule="nonzero"/></clipPath></defs><g clip-path="url(#74174a12b8)"><path fill="#ffffff" d="M 0 0.140625 L 1024 0.140625 L 1024 575.859375 L 0 575.859375 Z M 0 0.140625 " fill-opacity="1" fill-rule="nonzero"/><path fill="#fdfeff" d="M 0 0.140625 L 1024 0.140625 L 1024 575.859375 L 0 575.859375 Z M 0 0.140625 " fill-opacity="1" fill-rule="nonzero"/></g><path fill="#3f4147" d="M 688.886719 322.574219 C 691.292969 328.035156 687.746094 334.882812 680.980469 337.859375 C 674.207031 340.839844 666.765625 338.824219 664.367188 333.355469 C 661.960938 327.890625 665.503906 321.042969 672.277344 318.0625 C 679.046875 315.085938 686.484375 317.105469 688.886719 322.574219 " fill-opacity="1" fill-rule="nonzero"/><path fill="#3f4147" d="M 653.101562 241.03125 C 655.5 246.5 651.960938 253.347656 645.1875 256.324219 C 638.414062 259.304688 630.980469 257.289062 628.574219 251.820312 C 626.171875 246.355469 629.714844 239.507812 636.484375 236.527344 C 643.257812 233.550781 650.695312 235.566406 653.101562 241.03125 " fill-opacity="1" fill-rule="nonzero"/><path fill="#3f4147" d="M 653.101562 241.03125 L 628.574219 251.820312 L 664.636719 333.851562 L 689.160156 323.0625 L 653.101562 241.03125 " fill-opacity="1" fill-rule="nonzero"/><path fill="#3f4147" d="M 500.386719 314.742188 C 497.121094 319.746094 499.5 327.074219 505.703125 331.113281 C 511.898438 335.160156 519.5625 334.378906 522.824219 329.375 C 526.082031 324.375 523.703125 317.042969 517.507812 313 C 511.3125 308.960938 503.644531 309.738281 500.386719 314.742188 " fill-opacity="1" fill-rule="nonzero"/><path fill="#3f4147" d="M 548.96875 240.121094 C 545.710938 245.121094 548.089844 252.453125 554.285156 256.492188 C 560.480469 260.539062 568.148438 259.757812 571.40625 254.753906 C 574.671875 249.753906 572.292969 242.421875 566.097656 238.382812 C 559.894531 234.339844 552.230469 235.117188 548.96875 240.121094 " fill-opacity="1" fill-rule="nonzero"/><path fill="#3f4147" d="M 548.96875 240.121094 L 571.410156 254.753906 L 522.472656 329.820312 L 500.035156 315.1875 L 548.96875 240.121094 " fill-opacity="1" fill-rule="nonzero"/><path fill="#f3ac71" d="M 593.773438 226.832031 C 592.546875 228.238281 591.011719 229.339844 589.738281 230.703125 C 586.898438 233.726562 585.519531 237.855469 584.886719 241.949219 C 584.4375 244.859375 584.339844 247.882812 585.171875 250.707031 C 585.996094 253.53125 587.851562 256.152344 590.515625 257.402344 C 593.996094 259.03125 598.058594 258.117188 601.898438 258.191406 C 603.113281 258.21875 604.351562 258.339844 605.53125 258.046875 C 606.917969 257.695312 608.097656 256.792969 609.152344 255.824219 C 613.957031 251.40625 616.976562 245.09375 617.386719 238.578125 C 617.539062 236.171875 617.351562 233.730469 617.761719 231.351562 C 617.8125 231.066406 617.871094 230.765625 617.789062 230.488281 C 617.679688 230.113281 617.34375 229.851562 617.015625 229.632812 C 613.261719 227.101562 608.453125 226.847656 603.921875 226.941406 C 600.167969 227.011719 596.398438 227.265625 592.722656 228.039062 L 593.773438 226.832031 " fill-opacity="1" fill-rule="nonzero"/><path fill="#f3ac71" d="M 618.964844 248.015625 L 591.679688 248.015625 L 591.679688 205.183594 L 618.964844 205.183594 L 618.964844 248.015625 " fill-opacity="1" fill-rule="nonzero"/><path fill="#d6562b" d="M 618.964844 205.183594 L 595.601562 205.183594 C 594.578125 205.863281 593.570312 206.613281 592.578125 207.441406 C 592.273438 207.699219 591.972656 207.957031 591.679688 208.214844 L 591.679688 234.203125 C 591.679688 234.472656 591.867188 234.703125 592.128906 234.753906 C 592.128906 234.753906 592.132812 234.753906 592.132812 234.753906 C 596.40625 235.539062 600.863281 235.039062 605.148438 234.304688 C 609.914062 233.488281 614.765625 232.277344 618.964844 230.289062 L 618.964844 205.183594 " fill-opacity="1" fill-rule="nonzero"/><path fill="#def4fd" d="M 641.988281 236.125 L 620.195312 230.289062 L 606.007812 246.816406 L 597.433594 254.078125 L 589.953125 251.722656 L 585.75 232.445312 L 552.074219 238.445312 L 555.65625 362.632812 C 555.65625 362.632812 549.101562 376.066406 554.996094 386.882812 C 554.996094 386.882812 563.933594 391.632812 593.660156 390.042969 L 593.664062 390.160156 L 595.230469 389.953125 C 596.78125 389.859375 598.386719 389.746094 600.050781 389.621094 C 601.710938 389.746094 603.316406 389.859375 604.871094 389.953125 L 606.441406 390.160156 L 606.441406 390.042969 C 636.164062 391.632812 645.101562 386.882812 645.101562 386.882812 C 651 376.066406 644.449219 362.632812 644.449219 362.632812 L 641.988281 236.125 " fill-opacity="1" fill-rule="nonzero"/><path fill="#c2e7f9" d="M 590.980469 251.410156 L 620.222656 227.90625 L 628.0625 234.136719 L 606.664062 271.203125 L 590.980469 251.410156 " fill-opacity="1" fill-rule="nonzero"/><path fill="#c2e7f9" d="M 591.089844 249.332031 L 591.082031 226.90625 L 574.78125 237.160156 L 579.054688 266.871094 L 591.089844 249.332031 " fill-opacity="1" fill-rule="nonzero"/><path fill="#2c3f6c" d="M 595.019531 263.289062 L 589.179688 263.289062 C 587.453125 263.289062 585.972656 262.050781 585.664062 260.351562 L 584.453125 253.640625 C 584.058594 251.453125 585.738281 249.4375 587.964844 249.4375 L 596.238281 249.4375 C 598.460938 249.4375 600.144531 251.453125 599.75 253.640625 L 598.535156 260.351562 C 598.226562 262.050781 596.75 263.289062 595.019531 263.289062 " fill-opacity="1" fill-rule="nonzero"/><path fill="#2c3f6c" d="M 595.207031 258.980469 L 589.054688 258.980469 L 579.523438 337.421875 L 592.128906 359.875 L 604.429688 338.039062 L 595.207031 258.980469 " fill-opacity="1" fill-rule="nonzero"/><path fill="#51555e" d="M 608.242188 299.730469 L 604.089844 307.640625 L 607.433594 397.714844 C 607.433594 397.714844 622.8125 403.789062 651.554688 391.640625 L 643.867188 236.570312 L 630.910156 234.140625 L 608.242188 299.730469 " fill-opacity="1" fill-rule="nonzero"/><path fill="#51555e" d="M 579.097656 306.730469 L 577.882812 280.410156 L 570.597656 232.632812 C 558.046875 233.851562 550.761719 238.707031 550.761719 238.707031 L 549.953125 390.542969 C 562.097656 399.449219 577.070312 398.234375 577.070312 398.234375 L 580.3125 310.777344 L 579.097656 306.730469 " fill-opacity="1" fill-rule="nonzero"/><path fill="#3f4147" d="M 621.671875 231.058594 L 604.089844 310.996094 L 633.835938 273.628906 L 625.21875 265.542969 L 641.988281 236.125 C 641.988281 236.125 628.886719 229.480469 621.671875 231.058594 " fill-opacity="1" fill-rule="nonzero"/><path fill="#3f4147" d="M 581.410156 231.125 L 580.589844 312.964844 L 560 269.867188 L 570.203125 263.929688 L 560.476562 231.492188 C 560.476562 231.492188 574.734375 227.964844 581.410156 231.125 " fill-opacity="1" fill-rule="nonzero"/><path fill="#723b25" d="M 635.574219 171.476562 C 635.476562 172.988281 635.40625 174.507812 635.359375 176.042969 C 635.214844 181.390625 632.382812 187.273438 629.382812 191.574219 C 623.085938 200.582031 612.65625 206.167969 601.644531 206.167969 C 593.484375 206.167969 581.40625 202.375 575.65625 196.082031 C 572.421875 192.546875 571.300781 186.882812 569.925781 182.460938 C 568.011719 176.320312 566.367188 170.089844 565.003906 163.800781 C 564.128906 159.777344 563.457031 155.253906 565.734375 151.824219 C 567.328125 149.425781 570.050781 148.078125 572.671875 146.902344 C 577.835938 144.585938 583.105469 142.511719 588.464844 140.6875 C 591.648438 139.605469 594.90625 138.601562 598.261719 138.464844 C 602.71875 138.285156 607.078125 139.636719 611.328125 140.976562 C 618.746094 143.304688 626.164062 145.636719 633.582031 147.96875 C 634.570312 148.277344 635.601562 148.613281 636.351562 149.332031 C 637.894531 150.816406 637.699219 153.300781 637.386719 155.421875 C 636.585938 160.859375 635.917969 166.125 635.574219 171.476562 " fill-opacity="1" fill-rule="nonzero"/><path fill="#f3ac71" d="M 628.660156 168.726562 C 628.660156 183.910156 616.355469 196.21875 601.175781 196.21875 C 585.996094 196.21875 573.691406 183.910156 573.691406 168.726562 C 573.691406 153.539062 585.996094 141.230469 601.175781 141.230469 C 616.355469 141.230469 628.660156 153.539062 628.660156 168.726562 " fill-opacity="1" fill-rule="nonzero"/><path fill="#f3ac71" d="M 628.660156 199.105469 C 628.660156 214.289062 616.355469 226.597656 601.175781 226.597656 C 585.996094 226.597656 573.691406 214.289062 573.691406 199.105469 C 573.691406 183.925781 585.996094 171.617188 601.175781 171.617188 C 616.355469 171.617188 628.660156 183.925781 628.660156 199.105469 " fill-opacity="1" fill-rule="nonzero"/><path fill="#f3ac71" d="M 628.660156 201.394531 L 573.691406 201.394531 L 573.691406 167.785156 L 628.660156 167.785156 L 628.660156 201.394531 " fill-opacity="1" fill-rule="nonzero"/><path fill="#f3ac71" d="M 635.292969 185.964844 C 631.796875 179.765625 626.394531 187.660156 626.394531 187.660156 L 624.648438 202.195312 C 633.863281 200.152344 638.789062 192.160156 635.292969 185.964844 " fill-opacity="1" fill-rule="nonzero"/><path fill="#e37748" d="M 626.871094 190.972656 C 626.871094 190.972656 629.574219 186.042969 632.113281 187.550781 C 634.65625 189.0625 634.097656 196.851562 626.3125 198.441406 L 626.871094 190.972656 " fill-opacity="1" fill-rule="nonzero"/><path fill="#f3ac71" d="M 566.042969 185.964844 C 569.535156 179.765625 574.933594 187.660156 574.933594 187.660156 L 576.679688 202.195312 C 567.46875 200.152344 562.542969 192.160156 566.042969 185.964844 " fill-opacity="1" fill-rule="nonzero"/><path fill="#e37748" d="M 574.457031 190.972656 C 574.457031 190.972656 571.761719 186.042969 569.214844 187.550781 C 566.671875 189.0625 567.230469 196.851562 575.015625 198.441406 L 574.457031 190.972656 " fill-opacity="1" fill-rule="nonzero"/><path fill="#723b25" d="M 632.511719 159.964844 C 632.105469 157.707031 631.484375 155.429688 630.140625 153.578125 C 628.792969 151.730469 626.585938 150.367188 624.304688 150.554688 C 622.023438 150.742188 619.90625 152.828125 620.152344 155.105469 L 620.382812 158.59375 C 623.710938 161.617188 624.71875 166.921875 622.726562 170.957031 C 624.949219 171.535156 626.140625 173.921875 626.777344 176.128906 C 627.652344 179.179688 628.007812 182.378906 627.816406 185.550781 C 629.96875 183.601562 631.070312 180.753906 631.804688 177.949219 C 633.335938 172.101562 633.582031 165.917969 632.511719 159.964844 " fill-opacity="1" fill-rule="nonzero"/><path fill="#723b25" d="M 569.519531 159.964844 C 569.925781 157.707031 570.542969 155.429688 571.886719 153.578125 C 573.238281 151.730469 575.441406 150.367188 577.726562 150.554688 C 580.003906 150.742188 582.125 152.828125 581.875 155.105469 L 581.648438 158.59375 C 578.316406 161.617188 577.308594 166.921875 579.300781 170.957031 C 577.082031 171.535156 575.886719 173.921875 575.25 176.128906 C 574.375 179.179688 574.023438 182.378906 574.210938 185.550781 C 572.0625 183.601562 570.957031 180.753906 570.222656 177.949219 C 568.691406 172.101562 568.449219 165.917969 569.519531 159.964844 " fill-opacity="1" fill-rule="nonzero"/><path fill="#5c2a15" d="M 638.1875 139.769531 C 638.238281 144.460938 636.199219 149.007812 633.199219 152.605469 C 630.199219 156.207031 626.28125 158.9375 622.183594 161.207031 C 620.59375 162.09375 618.597656 162.910156 617.042969 161.960938 C 615.816406 161.207031 615.390625 159.609375 615.390625 158.167969 C 615.386719 155.328125 616.664062 152.570312 618.582031 150.515625 C 620.402344 148.578125 621.6875 148.703125 624.117188 148.550781 C 629.667969 148.195312 635.121094 144.253906 638.1875 139.769531 " fill-opacity="1" fill-rule="nonzero"/><g clip-path="url(#0c811b6bf2)"><path fill="#5c2a15" d="M 587.820312 165.882812 C 586.9375 165.695312 586.042969 165.550781 585.144531 165.449219 C 581.929688 165.09375 573.132812 162.824219 574.253906 148.636719 C 575.621094 131.324219 592.550781 134.90625 609.082031 136.796875 C 625.613281 138.683594 630.394531 128.644531 630.394531 128.644531 C 630.394531 128.644531 638.605469 160.253906 613.519531 164.601562 C 612.828125 164.71875 612.136719 164.839844 611.453125 164.988281 C 608.101562 165.695312 596.875 167.773438 587.820312 165.882812 " fill-opacity="1" fill-rule="nonzero"/></g><path fill="#d6562b" d="M 602.371094 188.914062 C 602.519531 190.484375 602.519531 192.039062 602.476562 193.585938 C 602.433594 195.132812 602.328125 196.671875 602.1875 198.207031 L 602.078125 199.355469 L 601.957031 200.5 L 601.925781 200.789062 L 601.910156 201.035156 C 601.90625 201.203125 601.882812 201.371094 601.902344 201.539062 C 601.917969 201.703125 601.90625 201.875 601.945312 202.039062 L 601.988281 202.289062 C 601.992188 202.332031 601.996094 202.371094 602.007812 202.417969 L 602.042969 202.535156 C 602.378906 203.867188 603.300781 205.101562 604.476562 206.132812 C 604.09375 206.027344 603.726562 205.859375 603.382812 205.660156 C 603.199219 205.566406 603.035156 205.445312 602.863281 205.335938 C 602.707031 205.214844 602.53125 205.097656 602.382812 204.960938 C 601.761719 204.425781 601.230469 203.738281 600.894531 202.933594 C 600.726562 202.535156 600.601562 202.109375 600.542969 201.671875 C 600.496094 201.453125 600.5 201.238281 600.488281 201.019531 L 600.480469 200.6875 L 600.496094 200.398438 C 600.503906 200.007812 600.535156 199.617188 600.554688 199.230469 L 600.648438 198.066406 C 600.789062 196.523438 601 194.988281 601.269531 193.460938 C 601.546875 191.933594 601.878906 190.414062 602.371094 188.914062 " fill-opacity="1" fill-rule="nonzero"/><path fill="#411f15" d="M 581.589844 176.835938 C 582.71875 174.40625 585.527344 172.832031 588.371094 172.917969 C 589.777344 173.007812 591.160156 173.382812 592.320312 174.105469 C 592.917969 174.417969 593.414062 174.894531 593.925781 175.296875 C 594.382812 175.789062 594.820312 176.289062 595.1875 176.835938 C 594.53125 176.65625 593.953125 176.402344 593.371094 176.179688 C 592.773438 176.007812 592.21875 175.757812 591.648438 175.609375 C 590.515625 175.273438 589.410156 175.078125 588.304688 175.035156 C 587.203125 174.964844 586.109375 175.15625 584.992188 175.449219 C 583.875 175.761719 582.769531 176.234375 581.589844 176.835938 " fill-opacity="1" fill-rule="nonzero"/><path fill="#35333f" d="M 583.496094 189.253906 C 584.308594 186.832031 586.332031 185.25 588.375 185.339844 C 589.386719 185.433594 590.382812 185.804688 591.214844 186.519531 C 591.648438 186.839844 592 187.3125 592.375 187.71875 C 592.699219 188.207031 593.019531 188.710938 593.277344 189.253906 C 592.804688 189.074219 592.390625 188.820312 591.972656 188.597656 C 591.542969 188.421875 591.148438 188.179688 590.734375 188.035156 C 589.921875 187.691406 589.125 187.503906 588.328125 187.453125 C 587.535156 187.386719 586.75 187.574219 585.945312 187.867188 C 585.144531 188.179688 584.34375 188.652344 583.496094 189.253906 " fill-opacity="1" fill-rule="nonzero"/><path fill="#35333f" d="M 609.351562 189.253906 C 610.164062 186.832031 612.183594 185.25 614.230469 185.339844 C 615.242188 185.433594 616.238281 185.804688 617.066406 186.519531 C 617.5 186.839844 617.855469 187.3125 618.226562 187.71875 C 618.554688 188.207031 618.871094 188.710938 619.132812 189.253906 C 618.660156 189.074219 618.246094 188.820312 617.828125 188.597656 C 617.398438 188.421875 617 188.179688 616.589844 188.035156 C 615.773438 187.691406 614.976562 187.503906 614.183594 187.453125 C 613.390625 187.386719 612.601562 187.574219 611.800781 187.867188 C 610.992188 188.179688 610.199219 188.652344 609.351562 189.253906 " fill-opacity="1" fill-rule="nonzero"/><path fill="#411f15" d="M 606.972656 176.96875 C 608.097656 174.542969 610.90625 172.964844 613.753906 173.050781 C 615.160156 173.140625 616.539062 173.519531 617.703125 174.234375 C 618.296875 174.546875 618.792969 175.023438 619.308594 175.433594 C 619.769531 175.917969 620.199219 176.417969 620.566406 176.96875 C 619.910156 176.785156 619.332031 176.53125 618.757812 176.308594 C 618.15625 176.136719 617.601562 175.890625 617.03125 175.742188 C 615.902344 175.40625 614.789062 175.210938 613.691406 175.164062 C 612.585938 175.101562 611.488281 175.289062 610.371094 175.578125 C 609.261719 175.890625 608.148438 176.363281 606.972656 176.96875 " fill-opacity="1" fill-rule="nonzero"/><path fill="#572916" d="M 591.496094 209.449219 L 613.398438 209.355469 C 613.398438 209.355469 614.179688 220.664062 602.855469 220.738281 C 591.53125 220.808594 591.496094 209.449219 591.496094 209.449219 " fill-opacity="1" fill-rule="nonzero"/><path fill="#cb4259" d="M 602.585938 212.265625 C 599.015625 212.265625 595.835938 213.941406 593.785156 216.546875 C 595.398438 218.824219 598.152344 220.769531 602.855469 220.738281 C 607.414062 220.707031 610.007812 218.863281 611.484375 216.664062 C 609.4375 213.992188 606.214844 212.265625 602.585938 212.265625 " fill-opacity="1" fill-rule="nonzero"/><g clip-path="url(#414625884f)"><path fill="#afafad" d="M 773.316406 431.167969 L 250.394531 431.167969 L 321.40625 329.527344 L 706.820312 329.527344 L 773.316406 431.167969 " fill-opacity="1" fill-rule="nonzero"/></g><g clip-path="url(#0988d56ca0)"><path fill="#e7e6e5" d="M 773.316406 447.269531 L 250.394531 447.269531 L 250.394531 431.167969 L 773.316406 431.167969 L 773.316406 447.269531 " fill-opacity="1" fill-rule="nonzero"/></g><path fill="#e37748" d="M 468.636719 251.8125 C 467.152344 250.363281 465.875 248.71875 464.597656 247.085938 C 463.496094 245.671875 462.378906 244.246094 461.59375 242.636719 C 461.5 242.429688 461.398438 242.222656 461.304688 242.011719 C 460.554688 240.351562 458.015625 241.367188 458.671875 243.066406 C 459.382812 244.925781 460.390625 246.71875 461.335938 248.421875 C 462.765625 250.988281 464.222656 253.535156 465.746094 256.050781 C 465.976562 256.429688 466.226562 256.800781 466.582031 257.070312 C 467.058594 257.429688 467.667969 257.546875 468.253906 257.667969 C 472.195312 258.480469 476.046875 259.742188 479.699219 261.433594 C 477.175781 256.855469 472.257812 255.363281 468.636719 251.8125 " fill-opacity="1" fill-rule="nonzero"/><path fill="#e37748" d="M 473.492188 252.28125 C 471.851562 251.007812 470.390625 249.523438 468.9375 248.046875 C 467.675781 246.765625 466.410156 245.476562 465.449219 243.964844 C 465.324219 243.773438 465.207031 243.578125 465.089844 243.378906 C 464.152344 241.816406 461.746094 243.117188 462.585938 244.730469 C 463.507812 246.496094 464.710938 248.15625 465.847656 249.742188 C 467.5625 252.128906 469.296875 254.5 471.101562 256.820312 C 471.371094 257.167969 471.667969 257.515625 472.042969 257.738281 C 472.558594 258.035156 473.183594 258.085938 473.777344 258.140625 C 477.785156 258.5 481.757812 259.316406 485.578125 260.574219 C 482.546875 256.316406 477.488281 255.394531 473.492188 252.28125 " fill-opacity="1" fill-rule="nonzero"/><path fill="#e37748" d="M 490.4375 248.4375 C 489.070312 248.40625 487.683594 248.453125 486.351562 248.191406 C 481.667969 247.28125 477.890625 242.726562 473.078125 242.917969 C 472.152344 242.953125 471.0625 243.304688 470.652344 244.328125 C 470.113281 245.671875 471.109375 247.015625 472.042969 247.855469 C 474.855469 250.390625 477.949219 252.492188 481.234375 254.109375 C 482.3125 254.636719 483.433594 255.128906 484.261719 256.078125 C 484.867188 256.769531 485.28125 257.660156 485.757812 258.476562 C 489.140625 264.308594 500.207031 268.4375 505.015625 260.984375 C 510.804688 252.003906 494.792969 248.535156 490.4375 248.4375 " fill-opacity="1" fill-rule="nonzero"/><path fill="#f3ac71" d="M 480.503906 256.542969 C 479.785156 256.609375 479.078125 256.4375 478.378906 256.269531 C 474.789062 255.394531 471.203125 254.523438 467.613281 253.644531 C 467.039062 253.507812 466.460938 253.363281 465.96875 253.042969 C 465.242188 252.554688 464.820312 251.742188 464.390625 250.980469 C 462.535156 247.695312 459.980469 244.796875 456.96875 242.523438 C 455.902344 241.71875 454.46875 242.949219 455.09375 244.125 C 455.371094 244.640625 455.675781 245.144531 455.972656 245.640625 C 458.027344 249.015625 460.078125 252.382812 462.128906 255.757812 C 462.632812 256.582031 463.140625 257.421875 463.859375 258.074219 C 464.988281 259.109375 466.507812 259.570312 467.953125 260.074219 C 471.589844 261.335938 475.074219 263.015625 478.328125 265.070312 C 479.078125 265.542969 479.828125 266.042969 480.660156 266.34375 C 481.785156 266.75 483 266.785156 484.195312 266.839844 C 490.96875 267.164062 497.664062 268.394531 504.335938 269.570312 C 506.152344 261.714844 505.386719 265.015625 507.203125 257.15625 C 502.332031 255.824219 497.316406 255.023438 492.273438 254.753906 C 490.167969 254.640625 487.898438 254.4375 485.804688 254.800781 C 483.96875 255.117188 482.339844 256.375 480.503906 256.542969 " fill-opacity="1" fill-rule="nonzero"/><path fill="#3f4147" d="M 508.882812 256.058594 L 524.753906 318.640625 L 500.226562 324.597656 C 500.226562 324.597656 488.792969 272.882812 481.902344 263.503906 L 508.882812 256.058594 " fill-opacity="1" fill-rule="nonzero"/><path fill="#3f4147" d="M 500.386719 314.742188 C 497.121094 319.746094 499.5 327.074219 505.703125 331.113281 C 511.898438 335.160156 519.5625 334.378906 522.824219 329.375 C 526.082031 324.375 523.703125 317.042969 517.507812 313 C 511.3125 308.960938 503.644531 309.738281 500.386719 314.742188 " fill-opacity="1" fill-rule="nonzero"/><path fill="#ffffff" d="M 643.8125 337.71875 L 543.703125 337.71875 L 507.203125 401.859375 L 686.59375 401.859375 L 643.8125 337.71875 " fill-opacity="1" fill-rule="nonzero"/><path fill="#e37748" d="M 607.039062 357.945312 C 605.65625 357.835938 603.925781 357.804688 603.285156 359.035156 C 602.800781 359.976562 603.296875 361.125 603.929688 361.96875 C 606.015625 364.730469 609.78125 366.09375 613.144531 365.3125 C 614.195312 365.066406 615.1875 364.636719 616.175781 364.207031 C 618.691406 363.117188 621.207031 362.027344 623.726562 360.9375 C 624.476562 360.617188 625.335938 360.140625 625.390625 359.328125 C 625.433594 358.691406 624.941406 358.152344 624.449219 357.757812 C 619.675781 354 612.585938 358.382812 607.039062 357.945312 " fill-opacity="1" fill-rule="nonzero"/><path fill="#3f4147" d="M 641.824219 369.636719 L 683.835938 341.324219 C 691.035156 336.527344 692.933594 326.773438 688.066406 319.621094 L 681.324219 312.964844 C 681.324219 312.964844 638.183594 343.679688 626.789062 346.023438 L 641.824219 369.636719 " fill-opacity="1" fill-rule="nonzero"/><path fill="#f3ac71" d="M 622.011719 345.851562 C 618.421875 348.097656 616.214844 351.980469 614.367188 355.792969 C 613.164062 358.265625 612.046875 360.789062 611.226562 363.410156 C 610.832031 364.667969 610.582031 366.238281 611.550781 367.128906 C 612.433594 367.925781 613.839844 367.6875 614.894531 367.136719 C 615.945312 366.585938 616.886719 365.773438 618.042969 365.496094 C 618.125 367.089844 619.199219 368.585938 620.679688 369.175781 C 622.164062 369.765625 623.972656 369.410156 625.125 368.3125 C 626.042969 370.246094 629.105469 370.640625 630.480469 369.003906 C 631.367188 370.296875 633.085938 370.796875 634.644531 370.636719 C 636.199219 370.484375 637.644531 369.777344 639.046875 369.085938 C 639.488281 368.871094 639.9375 368.648438 640.273438 368.289062 C 640.710938 367.820312 640.910156 367.183594 641.035156 366.550781 C 641.734375 363.050781 640.546875 359.425781 638.882812 356.265625 C 635.425781 349.714844 630.882812 340.296875 622.011719 345.851562 " fill-opacity="1" fill-rule="nonzero"/><path fill="#62294f" d="M 404.332031 224.578125 C 405.953125 229.320312 406.550781 234.3125 407.015625 239.28125 C 407.039062 239.59375 407.0625 239.921875 407.082031 240.246094 C 409.707031 242.105469 411.765625 244.539062 412.664062 247.628906 C 412.738281 236.234375 411.011719 224.496094 405.167969 214.710938 C 404.359375 213.355469 403.453125 212.039062 402.46875 210.785156 C 402.023438 212.738281 401.042969 214.671875 400 216.488281 C 401.835938 218.886719 403.3125 221.605469 404.332031 224.578125 " fill-opacity="1" fill-rule="nonzero"/><path fill="#62294f" d="M 385.246094 198.703125 C 382.703125 197.957031 380.058594 197.574219 377.371094 197.609375 C 372.882812 197.675781 369.710938 198.824219 367.617188 200.671875 C 373.285156 198.839844 379.402344 197.957031 385.246094 198.703125 " fill-opacity="1" fill-rule="nonzero"/><path fill="#62294f" d="M 396.113281 296.933594 C 397.082031 296.195312 398.019531 295.394531 398.9375 294.53125 C 399.804688 293.714844 400.5 292.871094 401.039062 292.003906 C 399.289062 292.746094 397.398438 293.257812 395.433594 293.558594 L 396.113281 296.933594 " fill-opacity="1" fill-rule="nonzero"/><path fill="#62294f" d="M 369.9375 294.394531 C 364.371094 295.265625 358.488281 294.328125 352.828125 292.085938 C 351.957031 295.050781 350.425781 297.777344 348.367188 299.898438 C 348.835938 301.308594 349.074219 302.789062 349.101562 304.28125 C 349.816406 304.125 350.535156 303.988281 351.257812 303.867188 C 359.609375 300.242188 368.882812 299.089844 377.914062 300.605469 L 376.292969 292.589844 C 374.21875 293.441406 372.089844 294.058594 369.9375 294.394531 " fill-opacity="1" fill-rule="nonzero"/><path fill="#62294f" d="M 324.691406 264.289062 C 324.761719 264.65625 324.832031 265.019531 324.902344 265.382812 C 325.78125 269.832031 326.664062 274.296875 327.21875 278.800781 C 328.117188 276.996094 328.78125 275.066406 329.566406 273.34375 C 327.558594 270.449219 325.902344 267.402344 324.691406 264.289062 " fill-opacity="1" fill-rule="nonzero"/><path fill="#62294f" d="M 351.785156 207.015625 C 353.054688 206.820312 354.34375 206.652344 355.648438 206.53125 C 356.390625 205.996094 357.164062 205.492188 357.945312 205.015625 C 355.769531 205.308594 353.617188 205.714844 351.53125 206.207031 C 339.472656 209.042969 328.085938 217.355469 323.851562 229.785156 C 322.167969 234.726562 321.703125 239.847656 321.902344 245.011719 C 322.511719 223.519531 334.945312 209.660156 351.785156 207.015625 " fill-opacity="1" fill-rule="nonzero"/><path fill="#62294f" d="M 333 290.414062 C 338.226562 287.785156 346 294.113281 348.015625 298.949219 C 348.144531 299.261719 348.257812 299.582031 348.367188 299.898438 C 350.425781 297.777344 351.957031 295.050781 352.828125 292.085938 C 343.757812 288.492188 335.261719 281.550781 329.566406 273.34375 C 328.78125 275.066406 328.117188 276.996094 327.21875 278.800781 C 325.847656 281.558594 323.933594 284.03125 320.191406 285.0625 C 313.660156 286.867188 306.0625 283.03125 303.050781 276.414062 C 302.59375 284.429688 306.578125 292.425781 312.511719 297.460938 C 315.691406 300.160156 319.367188 302.070312 323.238281 303.277344 C 329.554688 300.851562 328.503906 292.671875 333 290.414062 " fill-opacity="1" fill-rule="nonzero"/><path fill="#62294f" d="M 349.101562 304.28125 C 349.074219 302.789062 348.835938 301.308594 348.367188 299.898438 C 348.257812 299.582031 348.144531 299.261719 348.015625 298.949219 C 346 294.113281 338.226562 287.785156 333 290.414062 C 328.503906 292.671875 329.554688 300.851562 323.238281 303.277344 C 322.972656 303.375 322.695312 303.472656 322.40625 303.550781 C 317.195312 304.988281 311.136719 301.933594 308.734375 296.65625 C 308.371094 303.046875 311.546875 309.425781 316.277344 313.4375 C 318.765625 315.550781 321.636719 317.050781 324.65625 318.019531 C 331.398438 310.878906 339.972656 306.222656 349.101562 304.28125 " fill-opacity="1" fill-rule="nonzero"/><path fill="#f3ac71" d="M 376.949219 295.847656 L 376.292969 292.589844 L 377.914062 300.605469 C 383.503906 301.550781 389.007812 303.511719 394.132812 306.554688 C 394.421875 306.722656 394.707031 306.898438 394.988281 307.082031 C 396.046875 307.050781 397.09375 307.011719 398.148438 306.984375 L 396.738281 300.007812 C 396.496094 300.082031 396.25 300.140625 396.015625 300.1875 C 389.484375 301.527344 382.566406 299.707031 376.949219 295.847656 " fill-opacity="1" fill-rule="nonzero"/><path fill="#f3ac71" d="M 395.433594 293.558594 L 396.28125 297.765625 L 396.113281 296.933594 L 395.433594 293.558594 " fill-opacity="1" fill-rule="nonzero"/><path fill="#d6562b" d="M 395.433594 293.558594 C 389.710938 294.445312 383.335938 293.613281 377.785156 291.925781 C 377.289062 292.15625 376.792969 292.378906 376.292969 292.589844 L 376.949219 295.847656 C 382.566406 299.707031 389.484375 301.527344 396.015625 300.1875 C 396.25 300.140625 396.496094 300.082031 396.738281 300.007812 L 396.28125 297.765625 L 395.433594 293.558594 " fill-opacity="1" fill-rule="nonzero"/><path fill="#62294f" d="M 352.828125 292.085938 C 358.488281 294.328125 364.371094 295.265625 369.9375 294.394531 C 372.089844 294.058594 374.21875 293.441406 376.292969 292.589844 C 376.792969 292.378906 377.289062 292.15625 377.785156 291.925781 C 376.222656 291.449219 374.730469 290.910156 373.332031 290.316406 C 371.601562 289.59375 369.929688 288.699219 368.351562 287.652344 C 362.152344 284.828125 356.914062 279.910156 353.992188 273.804688 C 352.035156 269.710938 351.167969 265.199219 349.277344 261.082031 C 347.507812 257.238281 345.9375 258.960938 344.566406 254.890625 C 341.796875 246.644531 340.769531 232.398438 343.386719 224.066406 C 345.140625 218.5 348.121094 213.253906 352.378906 209.222656 C 353.410156 208.25 354.503906 207.355469 355.648438 206.53125 C 354.34375 206.652344 353.054688 206.820312 351.785156 207.015625 C 334.945312 209.660156 322.511719 223.519531 321.902344 245.011719 C 321.792969 248.90625 322.070312 253.050781 322.785156 257.429688 C 323.15625 259.726562 323.804688 262.023438 324.691406 264.289062 C 325.902344 267.402344 327.558594 270.449219 329.566406 273.34375 C 335.261719 281.550781 343.757812 288.492188 352.828125 292.085938 " fill-opacity="1" fill-rule="nonzero"/><path fill="#f3ac71" d="M 409.582031 274.296875 C 409.769531 276.777344 408.503906 279.175781 406.878906 281.234375 C 406.65625 281.515625 406.429688 281.792969 406.195312 282.058594 C 406.191406 282.058594 406.191406 282.0625 406.1875 282.0625 C 405.957031 282.332031 405.722656 282.589844 405.488281 282.839844 C 405.484375 282.847656 405.476562 282.855469 405.46875 282.863281 C 405.363281 282.976562 405.253906 283.09375 405.144531 283.207031 C 405.132812 283.21875 405.125 283.226562 405.117188 283.234375 C 405.003906 283.351562 404.890625 283.46875 404.777344 283.582031 C 404.761719 283.59375 404.753906 283.601562 404.738281 283.613281 C 404.644531 283.710938 404.550781 283.804688 404.453125 283.898438 C 404.425781 283.925781 404.398438 283.953125 404.375 283.976562 C 404.265625 284.078125 404.164062 284.179688 404.0625 284.28125 C 403.800781 284.53125 403.527344 284.773438 403.246094 285.011719 C 403.054688 285.167969 402.863281 285.320312 402.667969 285.464844 C 401.589844 286.269531 400.382812 286.882812 399.0625 287.050781 C 397.800781 287.207031 396.429688 286.859375 395.449219 286.082031 C 395.03125 285.75 394.683594 285.335938 394.449219 284.855469 C 394.394531 284.75 394.347656 284.636719 394.308594 284.523438 C 394.273438 284.425781 394.242188 284.324219 394.21875 284.21875 C 394.136719 283.910156 394.09375 283.59375 394.082031 283.277344 C 394.082031 283.171875 394.078125 283.0625 394.082031 282.957031 C 394.085938 282.636719 394.113281 282.3125 394.152344 281.996094 C 394.171875 281.867188 394.191406 281.746094 394.207031 281.617188 C 394.214844 281.578125 394.222656 281.542969 394.226562 281.503906 C 394.242188 281.417969 394.253906 281.328125 394.273438 281.242188 C 394.28125 281.195312 394.285156 281.15625 394.292969 281.109375 C 394.3125 281.027344 394.328125 280.945312 394.34375 280.867188 C 394.355469 280.824219 394.363281 280.777344 394.371094 280.738281 C 394.390625 280.652344 394.414062 280.566406 394.429688 280.484375 C 394.441406 280.441406 394.449219 280.40625 394.457031 280.371094 C 394.480469 280.273438 394.503906 280.179688 394.53125 280.089844 C 394.535156 280.0625 394.542969 280.03125 394.554688 280.003906 C 394.582031 279.882812 394.617188 279.769531 394.648438 279.652344 C 394.652344 279.648438 394.652344 279.644531 394.652344 279.640625 C 395.480469 276.832031 397.050781 274.238281 398.699219 271.785156 C 398.925781 271.453125 399.207031 271.085938 399.609375 271.058594 C 399.875 271.039062 400.160156 271.09375 400.460938 271.203125 C 401.792969 271.667969 403.433594 273.113281 404.644531 273.441406 C 406.210938 273.867188 407.996094 274.054688 409.582031 274.296875 Z M 402.488281 244.589844 C 401.613281 244.492188 400.761719 244.472656 399.941406 244.65625 C 399.121094 244.820312 398.308594 245.105469 397.5 245.5 C 397.085938 245.6875 396.699219 245.941406 396.269531 246.148438 C 395.859375 246.390625 395.460938 246.660156 394.984375 246.875 C 395.195312 246.402344 395.460938 245.964844 395.746094 245.527344 C 396.082031 245.144531 396.394531 244.71875 396.808594 244.402344 C 397.59375 243.703125 398.589844 243.25 399.636719 243.007812 C 401.765625 242.605469 404.070312 243.507812 405.21875 245.273438 C 404.257812 244.9375 403.363281 244.703125 402.488281 244.589844 Z M 402.472656 259.140625 C 401.128906 259.347656 399.761719 257.703125 399.410156 255.464844 C 399.234375 254.355469 399.347656 253.304688 399.664062 252.507812 C 399.527344 252.527344 399.382812 252.523438 399.242188 252.5 C 398.921875 252.457031 398.644531 252.265625 398.433594 252.042969 C 398.226562 251.816406 398.09375 251.554688 398.027344 251.269531 C 397.960938 251 397.945312 250.71875 398.011719 250.429688 C 398.40625 250.863281 398.648438 251.277344 398.953125 251.589844 C 399.183594 251.847656 399.425781 252.046875 399.800781 252.203125 C 400.132812 251.558594 400.617188 251.125 401.203125 251.03125 C 402.546875 250.820312 403.921875 252.464844 404.273438 254.703125 C 404.621094 256.941406 403.816406 258.925781 402.472656 259.140625 Z M 404.332031 224.578125 C 403.3125 221.605469 401.835938 218.886719 400 216.488281 C 399.296875 217.71875 398.5625 218.894531 397.945312 219.988281 C 394.1875 226.648438 389.652344 230.75 384.53125 236.210938 C 381.765625 239.164062 379.46875 242.695312 378.453125 246.6875 C 377.429688 250.675781 377.792969 255.167969 379.960938 258.671875 C 378.585938 257.703125 377.324219 256.589844 376.179688 255.351562 C 376.382812 256.164062 376.65625 256.96875 377.007812 257.753906 C 375.933594 257.332031 374.851562 256.910156 373.777344 256.488281 C 373.957031 257.316406 374.140625 258.140625 374.320312 258.960938 C 373.550781 258.511719 372.785156 258.0625 372.015625 257.613281 C 372.03125 258.691406 372.210938 259.757812 372.5625 260.773438 C 371.777344 260.660156 370.992188 260.546875 370.210938 260.4375 C 370.171875 260.675781 370.144531 260.90625 370.117188 261.148438 L 373.5625 273.558594 C 372.429688 273.484375 371.335938 273.304688 370.296875 273.046875 C 371.308594 279.503906 373.910156 285.605469 378.511719 290.21875 C 374.992188 290 371.546875 289.105469 368.351562 287.652344 C 369.929688 288.699219 371.601562 289.59375 373.332031 290.316406 C 374.730469 290.910156 376.222656 291.449219 377.785156 291.925781 C 383.335938 293.613281 389.710938 294.445312 395.433594 293.558594 C 397.398438 293.257812 399.289062 292.746094 401.039062 292.003906 C 401.539062 291.792969 402.023438 291.5625 402.496094 291.3125 C 407.980469 288.425781 412.164062 282.582031 412.242188 276.175781 C 412.269531 273.554688 411.65625 270.839844 412.46875 268.371094 C 413.5 265.25 416.644531 263.109375 417.109375 259.839844 C 417.179688 259.304688 417.171875 258.726562 416.910156 258.253906 C 416.617188 257.738281 416.074219 257.4375 415.570312 257.148438 C 412.878906 255.574219 409.457031 252.855469 408.167969 249.832031 C 406.988281 247.054688 407.246094 243.375 407.082031 240.246094 C 407.0625 239.921875 407.039062 239.59375 407.015625 239.28125 C 406.550781 234.3125 405.953125 229.320312 404.332031 224.578125 " fill-opacity="1" fill-rule="nonzero"/><path fill="#62294f" d="M 399.636719 243.007812 C 398.589844 243.25 397.59375 243.703125 396.808594 244.402344 C 396.394531 244.71875 396.082031 245.144531 395.746094 245.527344 C 395.460938 245.964844 395.195312 246.402344 394.984375 246.875 C 395.460938 246.660156 395.859375 246.390625 396.269531 246.148438 C 396.699219 245.941406 397.085938 245.6875 397.5 245.5 C 398.308594 245.105469 399.121094 244.820312 399.941406 244.65625 C 400.761719 244.472656 401.613281 244.492188 402.488281 244.589844 C 403.363281 244.703125 404.257812 244.9375 405.21875 245.273438 C 404.070312 243.507812 401.765625 242.605469 399.636719 243.007812 " fill-opacity="1" fill-rule="nonzero"/><path fill="#35333f" d="M 404.273438 254.703125 C 403.921875 252.464844 402.546875 250.820312 401.203125 251.03125 C 400.617188 251.125 400.132812 251.558594 399.800781 252.203125 C 399.902344 252.238281 400.003906 252.273438 400.117188 252.304688 C 399.992188 252.414062 399.832031 252.480469 399.664062 252.507812 C 399.347656 253.304688 399.234375 254.355469 399.410156 255.464844 C 399.761719 257.703125 401.128906 259.347656 402.472656 259.140625 C 403.816406 258.925781 404.621094 256.941406 404.273438 254.703125 " fill-opacity="1" fill-rule="nonzero"/><path fill="#35333f" d="M 399.800781 252.203125 C 399.425781 252.046875 399.183594 251.847656 398.953125 251.589844 C 398.648438 251.277344 398.40625 250.863281 398.011719 250.429688 C 397.945312 250.71875 397.960938 251 398.027344 251.269531 C 398.09375 251.554688 398.226562 251.816406 398.433594 252.042969 C 398.644531 252.265625 398.921875 252.457031 399.242188 252.5 C 399.382812 252.523438 399.527344 252.527344 399.664062 252.507812 C 399.832031 252.480469 399.992188 252.414062 400.117188 252.304688 C 400.003906 252.273438 399.902344 252.238281 399.800781 252.203125 " fill-opacity="1" fill-rule="nonzero"/><path fill="#62294f" d="M 352.378906 209.222656 C 348.121094 213.253906 345.140625 218.5 343.386719 224.066406 C 340.769531 232.398438 341.796875 246.644531 344.566406 254.890625 C 345.9375 258.960938 347.507812 257.238281 349.277344 261.082031 C 351.167969 265.199219 352.035156 269.710938 353.992188 273.804688 C 356.914062 279.910156 362.152344 284.828125 368.351562 287.652344 C 371.546875 289.105469 374.992188 290 378.511719 290.21875 C 373.910156 285.605469 371.308594 279.503906 370.296875 273.046875 C 362.339844 271.070312 357.566406 264.246094 359.835938 257.863281 C 362.40625 250.648438 369.316406 258.242188 369.316406 258.242188 L 370.117188 261.148438 C 370.144531 260.90625 370.171875 260.675781 370.210938 260.4375 C 370.992188 260.546875 371.777344 260.660156 372.5625 260.773438 C 372.210938 259.757812 372.03125 258.691406 372.015625 257.613281 C 372.785156 258.0625 373.550781 258.511719 374.320312 258.960938 C 374.140625 258.140625 373.957031 257.316406 373.777344 256.488281 C 374.851562 256.910156 375.933594 257.332031 377.007812 257.753906 C 376.65625 256.96875 376.382812 256.164062 376.179688 255.351562 C 372.160156 251.003906 369.625 245.167969 368.8125 239.195312 C 367.773438 231.515625 369.378906 223.652344 372.449219 216.632812 C 374.988281 210.824219 382.410156 201.804688 389.796875 199.644531 C 388.308594 199.207031 386.785156 198.898438 385.246094 198.703125 C 379.402344 197.957031 373.285156 198.839844 367.617188 200.671875 C 367.367188 200.75 367.121094 200.832031 366.878906 200.914062 C 363.773438 201.972656 360.746094 203.316406 357.945312 205.015625 C 357.164062 205.492188 356.390625 205.996094 355.648438 206.53125 C 354.503906 207.355469 353.410156 208.25 352.378906 209.222656 " fill-opacity="1" fill-rule="nonzero"/><path fill="#62294f" d="M 372.449219 216.632812 C 369.378906 223.652344 367.773438 231.515625 368.8125 239.195312 C 369.625 245.167969 372.160156 251.003906 376.179688 255.351562 C 377.324219 256.589844 378.585938 257.703125 379.960938 258.671875 C 377.792969 255.167969 377.429688 250.675781 378.453125 246.6875 C 379.46875 242.695312 381.765625 239.164062 384.53125 236.210938 C 389.652344 230.75 394.1875 226.648438 397.945312 219.988281 C 398.5625 218.894531 399.296875 217.71875 400 216.488281 C 401.042969 214.671875 402.023438 212.738281 402.46875 210.785156 C 402.945312 208.714844 402.824219 206.617188 401.542969 204.601562 C 398.257812 199.421875 394.03125 198.402344 389.796875 199.644531 C 382.410156 201.804688 374.988281 210.824219 372.449219 216.632812 " fill-opacity="1" fill-rule="nonzero"/><path fill="#f3ac71" d="M 363.386719 259.054688 C 365.761719 257.023438 369.378906 261.875 369.378906 261.875 L 371.210938 269.800781 C 362.902344 269.355469 361.015625 261.085938 363.386719 259.054688 Z M 370.117188 261.148438 L 369.316406 258.242188 C 369.316406 258.242188 362.40625 250.648438 359.835938 257.863281 C 357.566406 264.246094 362.339844 271.070312 370.296875 273.046875 C 371.335938 273.304688 372.429688 273.484375 373.5625 273.558594 L 370.117188 261.148438 " fill-opacity="1" fill-rule="nonzero"/><path fill="#e37748" d="M 369.378906 261.875 C 369.378906 261.875 365.761719 257.023438 363.386719 259.054688 C 361.015625 261.085938 362.902344 269.355469 371.210938 269.800781 L 369.378906 261.875 " fill-opacity="1" fill-rule="nonzero"/><path fill="#f3ac71" d="M 408.738281 314.171875 C 413.492188 311.613281 419.417969 313.390625 421.980469 318.152344 C 422.1875 318.53125 422.359375 318.925781 422.515625 319.328125 L 424.40625 322.84375 C 424.371094 320.378906 423.941406 318 423.003906 315.84375 C 421.957031 314.167969 420.6875 312.65625 419.125 311.449219 C 415.953125 308.996094 411.398438 308.042969 407.839844 309.890625 C 406.074219 310.8125 404.699219 312.335938 403.746094 314.101562 C 404.496094 314.863281 405.214844 315.652344 405.910156 316.464844 C 406.683594 315.558594 407.625 314.773438 408.738281 314.171875 " fill-opacity="1" fill-rule="nonzero"/><path fill="#f3ac71" d="M 395.046875 307.113281 C 396.160156 307.195312 397.183594 307.851562 397.691406 308.894531 C 398.566406 309.523438 399.414062 310.183594 400.238281 310.863281 C 401.640625 308.992188 403.246094 307.738281 404.972656 306.996094 C 403.777344 306.941406 402.582031 306.917969 401.386719 306.925781 C 400.304688 306.929688 399.230469 306.953125 398.148438 306.984375 C 397.09375 307.011719 396.046875 307.050781 394.988281 307.082031 C 395.007812 307.089844 395.03125 307.097656 395.046875 307.113281 " fill-opacity="1" fill-rule="nonzero"/><path fill="#42243e" d="M 433.851562 418.414062 C 433.097656 409.882812 432.136719 401.515625 430.984375 395.65625 C 430.558594 395.980469 429.96875 396.394531 429.179688 396.867188 C 430.742188 404.054688 432.3125 411.304688 433.851562 418.414062 " fill-opacity="1" fill-rule="nonzero"/><path fill="#42243e" d="M 429.632812 332.558594 L 445.984375 362.9375 C 446.46875 362.207031 446.90625 361.40625 447.273438 360.519531 C 447.539062 359.863281 447.777344 359.160156 447.960938 358.394531 C 448.019531 358.164062 448.070312 357.933594 448.121094 357.695312 C 448.132812 357.621094 448.148438 357.542969 448.160156 357.464844 C 448.195312 357.3125 448.222656 357.152344 448.25 356.988281 C 448.261719 356.898438 448.277344 356.808594 448.289062 356.714844 C 448.3125 356.570312 448.335938 356.425781 448.351562 356.277344 C 448.363281 356.179688 448.371094 356.085938 448.382812 355.988281 C 448.398438 355.84375 448.410156 355.703125 448.425781 355.558594 C 448.433594 355.464844 448.445312 355.367188 448.449219 355.269531 C 448.457031 355.121094 448.464844 354.972656 448.46875 354.828125 C 448.480469 354.738281 448.484375 354.640625 448.484375 354.550781 C 448.488281 354.394531 448.492188 354.238281 448.492188 354.078125 C 448.492188 353.996094 448.492188 353.914062 448.492188 353.832031 C 448.492188 353.648438 448.488281 353.460938 448.484375 353.273438 C 448.480469 353.21875 448.480469 353.171875 448.480469 353.117188 C 448.464844 352.875 448.453125 352.628906 448.433594 352.386719 C 448.433594 352.378906 448.433594 352.375 448.433594 352.371094 C 448.410156 352.140625 448.390625 351.902344 448.363281 351.667969 C 448.351562 351.605469 448.34375 351.546875 448.339844 351.484375 C 448.316406 351.304688 448.292969 351.128906 448.265625 350.949219 C 448.253906 350.878906 448.238281 350.800781 448.226562 350.726562 C 448.203125 350.5625 448.171875 350.394531 448.140625 350.234375 C 448.125 350.15625 448.113281 350.078125 448.09375 350 C 448.0625 349.835938 448.027344 349.675781 447.988281 349.515625 C 447.972656 349.4375 447.957031 349.367188 447.933594 349.289062 C 447.898438 349.121094 447.851562 348.957031 447.8125 348.792969 C 447.792969 348.726562 447.777344 348.652344 447.757812 348.589844 C 447.707031 348.402344 447.648438 348.226562 447.59375 348.042969 C 447.582031 347.996094 447.566406 347.945312 447.550781 347.894531 C 445.925781 342.753906 442.15625 338.878906 437.960938 335.671875 C 435.964844 334.144531 433.863281 332.792969 431.949219 331.175781 C 431.429688 330.742188 431.136719 330.339844 430.691406 330.023438 C 430.695312 331.171875 430.386719 332.074219 429.632812 332.558594 " fill-opacity="1" fill-rule="nonzero"/><path fill="#42243e" d="M 429.179688 396.867188 C 429.96875 396.394531 430.558594 395.980469 430.984375 395.65625 C 431.617188 395.164062 431.875 394.867188 431.875 394.867188 L 429.402344 385.683594 C 430.847656 384.152344 431.773438 381.617188 432.75 379.089844 C 432.78125 379.015625 432.816406 378.9375 432.847656 378.855469 L 420.109375 355.191406 C 422.832031 367.679688 425.980469 382.140625 429.179688 396.867188 " fill-opacity="1" fill-rule="nonzero"/><path fill="#42243e" d="M 400.238281 310.863281 C 401.460938 311.886719 402.632812 312.964844 403.746094 314.101562 C 404.699219 312.335938 406.074219 310.8125 407.839844 309.890625 C 411.398438 308.042969 415.953125 308.996094 419.125 311.449219 C 420.6875 312.65625 421.957031 314.167969 423.003906 315.84375 C 424.085938 317.570312 424.925781 319.46875 425.59375 321.386719 C 426.429688 323.789062 426.949219 326.324219 427.613281 328.796875 L 429.632812 332.558594 C 430.386719 332.074219 430.695312 331.171875 430.691406 330.023438 C 430.691406 325.582031 426.101562 317.46875 424.863281 315.628906 C 420.53125 309.207031 411.851562 304.027344 404.972656 306.996094 C 403.246094 307.738281 401.640625 308.992188 400.238281 310.863281 " fill-opacity="1" fill-rule="nonzero"/><path fill="#ffffff" d="M 395.046875 307.113281 C 395.953125 307.675781 396.832031 308.269531 397.691406 308.894531 C 397.183594 307.851562 396.160156 307.195312 395.046875 307.113281 " fill-opacity="1" fill-rule="nonzero"/><path fill="#f3ac71" d="M 422.515625 319.328125 C 422.359375 318.925781 422.1875 318.53125 421.980469 318.152344 C 419.417969 313.390625 413.492188 311.613281 408.738281 314.171875 C 407.625 314.773438 406.683594 315.558594 405.910156 316.464844 C 407.957031 318.859375 409.761719 321.445312 411.289062 324.203125 L 422.023438 318.421875 L 422.515625 319.328125 " fill-opacity="1" fill-rule="nonzero"/><path fill="#f3ac71" d="M 453.480469 387.628906 C 450.699219 392.257812 444.695312 393.753906 440.070312 390.972656 C 439.539062 390.652344 439.046875 390.289062 438.601562 389.894531 C 441.507812 393.417969 446.589844 394.519531 450.765625 392.273438 C 454.460938 390.285156 456.355469 386.261719 455.820312 382.332031 L 454.675781 384.570312 C 454.457031 385.625 454.0625 386.65625 453.480469 387.628906 " fill-opacity="1" fill-rule="nonzero"/><path fill="#f3ac71" d="M 427.613281 328.796875 L 424.40625 322.84375 L 422.515625 319.328125 L 422.023438 318.421875 L 411.289062 324.203125 C 413.507812 328.195312 415.167969 332.527344 416.160156 337.074219 C 417.3125 342.367188 418.648438 348.5 420.109375 355.191406 L 432.847656 378.855469 L 435.375 383.558594 C 435.171875 381.535156 435.597656 379.433594 436.722656 377.554688 C 436.988281 377.121094 437.277344 376.710938 437.589844 376.335938 L 446.003906 362.980469 L 445.984375 362.9375 L 429.632812 332.558594 L 427.613281 328.796875 " fill-opacity="1" fill-rule="nonzero"/><path fill="#f3ac71" d="M 453.480469 387.628906 C 454.0625 386.65625 454.457031 385.625 454.675781 384.570312 L 453.3125 387.222656 L 436.933594 377.375 L 437.589844 376.335938 C 437.277344 376.710938 436.988281 377.121094 436.722656 377.554688 C 435.597656 379.433594 435.171875 381.535156 435.375 383.558594 C 435.617188 385.953125 436.730469 388.230469 438.601562 389.894531 C 439.046875 390.289062 439.539062 390.652344 440.070312 390.972656 C 444.695312 393.753906 450.699219 392.257812 453.480469 387.628906 " fill-opacity="1" fill-rule="nonzero"/><path fill="#f3ac71" d="M 436.933594 377.375 L 453.3125 387.222656 L 454.675781 384.570312 L 455.820312 382.332031 L 483.71875 327.875 C 482.769531 328.601562 481.765625 329.273438 480.765625 329.921875 C 479.246094 330.914062 477.675781 331.914062 475.902344 332.28125 C 469.222656 333.675781 469.859375 328.0625 471.015625 323.300781 L 446.003906 362.980469 L 437.589844 376.335938 L 436.933594 377.375 " fill-opacity="1" fill-rule="nonzero"/><path fill="#572916" d="M 400.460938 271.203125 C 400.160156 271.09375 399.875 271.039062 399.609375 271.058594 C 399.207031 271.085938 398.925781 271.453125 398.699219 271.785156 C 397.050781 274.238281 395.480469 276.832031 394.652344 279.640625 C 394.726562 279.386719 394.808594 279.132812 394.898438 278.882812 C 395.210938 278.714844 395.535156 278.566406 395.871094 278.445312 C 398.167969 277.601562 400.761719 277.777344 403.050781 278.652344 C 404.5 279.207031 405.871094 280.066406 406.878906 281.234375 C 408.503906 279.175781 409.769531 276.777344 409.582031 274.296875 C 407.996094 274.054688 406.210938 273.867188 404.644531 273.441406 C 403.433594 273.113281 401.792969 271.667969 400.460938 271.203125 " fill-opacity="1" fill-rule="nonzero"/><path fill="#572916" d="M 406.1875 282.0625 C 405.957031 282.332031 405.722656 282.589844 405.488281 282.839844 C 405.722656 282.589844 405.957031 282.332031 406.1875 282.0625 " fill-opacity="1" fill-rule="nonzero"/><path fill="#572916" d="M 405.46875 282.863281 C 405.363281 282.976562 405.253906 283.09375 405.144531 283.207031 C 405.253906 283.09375 405.363281 282.976562 405.46875 282.863281 " fill-opacity="1" fill-rule="nonzero"/><path fill="#572916" d="M 406.878906 281.234375 C 406.65625 281.515625 406.429688 281.792969 406.195312 282.058594 C 406.429688 281.792969 406.65625 281.515625 406.878906 281.234375 " fill-opacity="1" fill-rule="nonzero"/><path fill="#572916" d="M 403.246094 285.011719 C 403.054688 285.167969 402.863281 285.320312 402.667969 285.464844 C 402.863281 285.320312 403.054688 285.167969 403.246094 285.011719 " fill-opacity="1" fill-rule="nonzero"/><path fill="#572916" d="M 405.117188 283.234375 C 405.003906 283.351562 404.890625 283.46875 404.777344 283.582031 C 404.890625 283.46875 405.003906 283.351562 405.117188 283.234375 " fill-opacity="1" fill-rule="nonzero"/><path fill="#572916" d="M 404.375 283.976562 C 404.265625 284.078125 404.164062 284.179688 404.0625 284.28125 C 404.164062 284.179688 404.265625 284.078125 404.375 283.976562 " fill-opacity="1" fill-rule="nonzero"/><path fill="#572916" d="M 404.738281 283.613281 C 404.644531 283.710938 404.550781 283.804688 404.453125 283.898438 C 404.550781 283.804688 404.644531 283.710938 404.738281 283.613281 " fill-opacity="1" fill-rule="nonzero"/><path fill="#572916" d="M 394.449219 284.855469 C 394.683594 285.335938 395.03125 285.75 395.449219 286.082031 C 395.03125 285.75 394.683594 285.335938 394.449219 284.855469 " fill-opacity="1" fill-rule="nonzero"/><path fill="#572916" d="M 394.457031 280.371094 C 394.480469 280.273438 394.503906 280.179688 394.53125 280.089844 C 394.503906 280.179688 394.480469 280.273438 394.457031 280.371094 " fill-opacity="1" fill-rule="nonzero"/><path fill="#572916" d="M 394.226562 281.503906 C 394.242188 281.417969 394.253906 281.328125 394.273438 281.242188 C 394.253906 281.328125 394.242188 281.417969 394.226562 281.503906 " fill-opacity="1" fill-rule="nonzero"/><path fill="#572916" d="M 394.371094 280.738281 C 394.390625 280.652344 394.414062 280.566406 394.429688 280.484375 C 394.414062 280.566406 394.390625 280.652344 394.371094 280.738281 " fill-opacity="1" fill-rule="nonzero"/><path fill="#572916" d="M 394.554688 280.003906 C 394.582031 279.882812 394.617188 279.769531 394.648438 279.652344 C 394.617188 279.769531 394.582031 279.882812 394.554688 280.003906 " fill-opacity="1" fill-rule="nonzero"/><path fill="#572916" d="M 394.292969 281.109375 C 394.3125 281.027344 394.328125 280.945312 394.34375 280.867188 C 394.328125 280.945312 394.3125 281.027344 394.292969 281.109375 " fill-opacity="1" fill-rule="nonzero"/><path fill="#572916" d="M 399.0625 287.050781 C 397.800781 287.207031 396.429688 286.859375 395.449219 286.082031 C 396.429688 286.859375 397.800781 287.207031 399.0625 287.050781 C 400.382812 286.882812 401.589844 286.269531 402.667969 285.464844 C 401.589844 286.269531 400.382812 286.882812 399.0625 287.050781 " fill-opacity="1" fill-rule="nonzero"/><path fill="#572916" d="M 394.21875 284.21875 C 394.242188 284.324219 394.273438 284.425781 394.308594 284.523438 C 394.347656 284.636719 394.394531 284.75 394.449219 284.855469 C 394.394531 284.75 394.347656 284.636719 394.308594 284.523438 C 394.273438 284.425781 394.242188 284.324219 394.21875 284.21875 " fill-opacity="1" fill-rule="nonzero"/><path fill="#572916" d="M 394.152344 281.996094 C 394.171875 281.867188 394.191406 281.746094 394.207031 281.617188 C 394.191406 281.746094 394.171875 281.867188 394.152344 281.996094 " fill-opacity="1" fill-rule="nonzero"/><path fill="#cb4259" d="M 403.050781 278.652344 C 400.761719 277.777344 398.167969 277.601562 395.871094 278.445312 C 395.535156 278.566406 395.210938 278.714844 394.898438 278.882812 C 394.808594 279.132812 394.726562 279.386719 394.652344 279.640625 C 394.652344 279.644531 394.652344 279.648438 394.648438 279.652344 C 394.617188 279.769531 394.582031 279.882812 394.554688 280.003906 C 394.542969 280.03125 394.535156 280.0625 394.53125 280.089844 C 394.503906 280.179688 394.480469 280.273438 394.457031 280.371094 C 394.449219 280.40625 394.441406 280.441406 394.429688 280.484375 C 394.414062 280.566406 394.390625 280.652344 394.371094 280.738281 C 394.363281 280.777344 394.355469 280.824219 394.34375 280.867188 C 394.328125 280.945312 394.3125 281.027344 394.292969 281.109375 C 394.285156 281.15625 394.28125 281.195312 394.273438 281.242188 C 394.253906 281.328125 394.242188 281.417969 394.226562 281.503906 C 394.222656 281.542969 394.214844 281.578125 394.207031 281.617188 C 394.191406 281.746094 394.171875 281.867188 394.152344 281.996094 C 394.113281 282.3125 394.085938 282.636719 394.082031 282.957031 C 394.078125 283.0625 394.082031 283.171875 394.082031 283.277344 C 394.09375 283.59375 394.136719 283.910156 394.21875 284.21875 C 394.242188 284.324219 394.273438 284.425781 394.308594 284.523438 C 394.347656 284.636719 394.394531 284.75 394.449219 284.855469 C 394.683594 285.335938 395.03125 285.75 395.449219 286.082031 C 396.429688 286.859375 397.800781 287.207031 399.0625 287.050781 C 400.382812 286.882812 401.589844 286.269531 402.667969 285.464844 C 402.863281 285.320312 403.054688 285.167969 403.246094 285.011719 C 403.527344 284.773438 403.800781 284.53125 404.0625 284.28125 C 404.164062 284.179688 404.265625 284.078125 404.375 283.976562 C 404.398438 283.953125 404.425781 283.925781 404.453125 283.898438 C 404.550781 283.804688 404.644531 283.710938 404.738281 283.613281 C 404.753906 283.601562 404.761719 283.59375 404.777344 283.582031 C 404.890625 283.46875 405.003906 283.351562 405.117188 283.234375 C 405.125 283.226562 405.132812 283.21875 405.144531 283.207031 C 405.253906 283.09375 405.363281 282.976562 405.46875 282.863281 C 405.476562 282.855469 405.484375 282.847656 405.488281 282.839844 C 405.722656 282.589844 405.957031 282.332031 406.1875 282.0625 C 406.191406 282.0625 406.191406 282.058594 406.195312 282.058594 C 406.429688 281.792969 406.65625 281.515625 406.878906 281.234375 C 405.871094 280.066406 404.5 279.207031 403.050781 278.652344 " fill-opacity="1" fill-rule="nonzero"/><g clip-path="url(#171c2bd2bb)"><path fill="#444852" d="M 429.179688 396.867188 C 425.980469 382.140625 422.832031 367.679688 420.109375 355.191406 C 418.648438 348.5 417.3125 342.367188 416.160156 337.074219 C 415.167969 332.527344 413.507812 328.195312 411.289062 324.203125 C 409.761719 321.445312 407.957031 318.859375 405.910156 316.464844 C 405.214844 315.652344 404.496094 314.863281 403.746094 314.101562 C 402.632812 312.964844 401.460938 311.886719 400.238281 310.863281 C 399.414062 310.183594 398.566406 309.523438 397.691406 308.894531 C 396.832031 308.269531 395.953125 307.675781 395.046875 307.113281 C 395.03125 307.097656 395.007812 307.089844 394.988281 307.082031 C 394.707031 306.898438 394.421875 306.722656 394.132812 306.554688 C 389.007812 303.511719 383.503906 301.550781 377.914062 300.605469 C 368.882812 299.089844 359.609375 300.242188 351.257812 303.867188 C 361.902344 302.109375 373.144531 303.988281 383.003906 309.835938 C 394.261719 316.511719 402.242188 327.566406 405.035156 340.359375 C 410.703125 366.351562 420.753906 412.46875 428.253906 447.269531 L 440.082031 447.269531 C 438.15625 438.3125 436.039062 428.503906 433.851562 418.414062 C 432.3125 411.304688 430.742188 404.054688 429.179688 396.867188 " fill-opacity="1" fill-rule="nonzero"/></g><g clip-path="url(#d94c9235a9)"><path fill="#292c35" d="M 405.035156 340.359375 C 402.242188 327.566406 394.261719 316.511719 383.003906 309.835938 C 373.144531 303.988281 361.902344 302.109375 351.257812 303.867188 C 350.535156 303.988281 349.816406 304.125 349.101562 304.28125 C 339.972656 306.222656 331.398438 310.878906 324.65625 318.019531 C 324.105469 318.605469 323.5625 319.203125 323.042969 319.820312 L 319.578125 323.886719 C 311.425781 333.457031 307.433594 345.886719 308.480469 358.417969 L 315.910156 447.269531 L 428.253906 447.269531 C 420.753906 412.46875 410.703125 366.351562 405.035156 340.359375 " fill-opacity="1" fill-rule="nonzero"/></g><path fill="#f3ac71" d="M 475.902344 332.28125 C 477.675781 331.914062 479.246094 330.914062 480.765625 329.921875 C 481.765625 329.273438 482.769531 328.601562 483.71875 327.875 C 485.132812 326.796875 486.429688 325.582031 487.390625 324.089844 C 488.675781 322.101562 489.277344 319.753906 489.863281 317.457031 C 491.070312 312.699219 492.285156 307.699219 491.089844 302.9375 C 490.472656 300.492188 489.242188 297.910156 490.207031 295.582031 C 490.621094 294.582031 491.398438 293.789062 492.082031 292.945312 C 494.195312 290.363281 495.539062 287.164062 495.902344 283.847656 C 495.957031 283.390625 495.96875 282.875 495.679688 282.519531 C 495.042969 281.726562 493.796875 282.410156 493.054688 283.105469 C 489.191406 286.730469 485.332031 290.359375 481.476562 293.988281 C 481.042969 294.390625 480.589844 294.808594 480.019531 294.949219 C 479.476562 295.082031 478.914062 294.945312 478.363281 294.902344 C 476.003906 294.730469 473.78125 296.335938 472.640625 298.394531 C 469.085938 304.828125 473.527344 312.132812 472.144531 318.855469 C 471.910156 319.984375 471.429688 321.585938 471.015625 323.300781 C 469.859375 328.0625 469.222656 333.675781 475.902344 332.28125 " fill-opacity="1" fill-rule="nonzero"/></svg>