<svg xmlns="http://www.w3.org/2000/svg" xmlns:xlink="http://www.w3.org/1999/xlink" width="1366" zoomAndPan="magnify" viewBox="0 0 1024.5 576" height="768" preserveAspectRatio="xMidYMid meet" version="1.0"><defs><clipPath id="aea2ff5fd2"><path d="M 0 0.140625 L 1024 0.140625 L 1024 575.859375 L 0 575.859375 Z M 0 0.140625 " clip-rule="nonzero"/></clipPath><clipPath id="e4a755c679"><path d="M 621 98.980469 L 687 98.980469 L 687 237 L 621 237 Z M 621 98.980469 " clip-rule="nonzero"/></clipPath><clipPath id="e60d912f1d"><path d="M 621 98.980469 L 687 98.980469 L 687 128 L 621 128 Z M 621 98.980469 " clip-rule="nonzero"/></clipPath></defs><g clip-path="url(#aea2ff5fd2)"><path fill="#ffffff" d="M 0 0.140625 L 1024 0.140625 L 1024 575.859375 L 0 575.859375 Z M 0 0.140625 " fill-opacity="1" fill-rule="nonzero"/><path fill="#fdfeff" d="M 0 0.140625 L 1024 0.140625 L 1024 575.859375 L 0 575.859375 Z M 0 0.140625 " fill-opacity="1" fill-rule="nonzero"/></g><path fill="#ffcebc" d="M 682.550781 413.984375 L 516.675781 472.832031 C 513.875 473.820312 511.011719 474.558594 508.082031 475.039062 C 505.152344 475.519531 502.203125 475.742188 499.230469 475.699219 C 496.261719 475.660156 493.320312 475.359375 490.40625 474.800781 C 487.488281 474.238281 484.644531 473.425781 481.875 472.363281 L 388.617188 436.386719 L 388.617188 340.617188 L 420.867188 322.609375 C 422.335938 321.785156 423.855469 321.054688 425.417969 320.421875 C 426.984375 319.792969 428.582031 319.261719 430.210938 318.835938 C 431.84375 318.410156 433.496094 318.089844 435.167969 317.875 C 436.84375 317.660156 438.523438 317.550781 440.207031 317.550781 C 441.894531 317.550781 443.574219 317.660156 445.25 317.875 C 446.921875 318.089844 448.574219 318.410156 450.203125 318.835938 C 451.835938 319.261719 453.433594 319.792969 455 320.421875 C 456.5625 321.054688 458.082031 321.785156 459.550781 322.609375 L 543.746094 370.082031 C 544.324219 370.410156 544.886719 370.769531 545.433594 371.152344 C 545.976562 371.539062 546.5 371.949219 547.003906 372.386719 C 547.507812 372.824219 547.988281 373.285156 548.449219 373.769531 C 548.90625 374.253906 549.339844 374.761719 549.75 375.289062 C 550.15625 375.816406 550.539062 376.363281 550.894531 376.929688 C 551.246094 377.492188 551.574219 378.074219 551.871094 378.671875 C 552.167969 379.269531 552.433594 379.882812 552.667969 380.503906 C 552.90625 381.128906 553.109375 381.761719 553.285156 382.40625 C 553.457031 383.050781 553.601562 383.703125 553.710938 384.359375 C 553.820312 385.019531 553.894531 385.679688 553.941406 386.347656 C 553.984375 387.011719 553.996094 387.679688 553.972656 388.34375 C 553.949219 389.011719 553.894531 389.675781 553.808594 390.335938 C 553.722656 391 553.601562 391.65625 553.449219 392.304688 C 553.296875 392.953125 553.113281 393.59375 552.894531 394.226562 C 552.679688 394.855469 552.433594 395.476562 552.15625 396.082031 C 551.878906 396.691406 551.574219 397.28125 551.238281 397.859375 L 669.371094 369.453125 C 671.160156 369 672.976562 368.777344 674.824219 368.785156 C 676.1875 368.78125 677.539062 368.894531 678.882812 369.128906 C 680.226562 369.363281 681.539062 369.710938 682.820312 370.171875 C 684.101562 370.636719 685.332031 371.210938 686.511719 371.890625 C 687.695312 372.570312 688.808594 373.347656 689.851562 374.222656 C 690.898438 375.097656 691.855469 376.058594 692.734375 377.101562 C 693.609375 378.148438 694.386719 379.261719 695.066406 380.441406 C 695.746094 381.621094 696.320312 382.855469 696.78125 384.136719 C 697.246094 385.417969 697.59375 386.730469 697.828125 388.070312 C 698.0625 389.414062 698.175781 390.769531 698.171875 392.132812 C 698.167969 393.492188 698.042969 394.847656 697.800781 396.1875 C 697.558594 397.527344 697.199219 398.839844 696.726562 400.117188 C 696.253906 401.394531 695.675781 402.621094 694.988281 403.800781 C 694.300781 404.976562 693.511719 406.082031 692.628906 407.121094 C 691.746094 408.160156 690.78125 409.113281 689.730469 409.980469 C 688.679688 410.851562 687.5625 411.621094 686.375 412.292969 C 685.191406 412.964844 683.953125 413.527344 682.667969 413.984375 Z M 682.550781 413.984375 " fill-opacity="1" fill-rule="nonzero"/><path fill="#ffab94" d="M 426.554688 429.636719 C 426.125 429.628906 425.707031 429.550781 425.300781 429.402344 L 387.324219 416.769531 C 387.074219 416.683594 386.835938 416.578125 386.609375 416.445312 C 386.382812 416.316406 386.167969 416.164062 385.972656 415.992188 C 385.773438 415.820312 385.59375 415.628906 385.433594 415.421875 C 385.273438 415.214844 385.136719 414.992188 385.019531 414.757812 C 384.902344 414.523438 384.8125 414.277344 384.742188 414.027344 C 384.675781 413.773438 384.632812 413.515625 384.613281 413.253906 C 384.597656 412.992188 384.605469 412.730469 384.636719 412.472656 C 384.671875 412.210938 384.730469 411.957031 384.8125 411.707031 C 384.898438 411.460938 385.003906 411.222656 385.136719 410.996094 C 385.265625 410.765625 385.417969 410.554688 385.589844 410.355469 C 385.761719 410.160156 385.953125 409.980469 386.160156 409.820312 C 386.367188 409.660156 386.589844 409.523438 386.824219 409.40625 C 387.058594 409.289062 387.300781 409.195312 387.554688 409.128906 C 387.808594 409.058594 388.066406 409.015625 388.328125 408.996094 C 388.589844 408.980469 388.851562 408.988281 389.109375 409.019531 C 389.371094 409.054688 389.625 409.113281 389.871094 409.195312 L 427.851562 421.867188 C 428.109375 421.910156 428.359375 421.980469 428.601562 422.070312 C 428.847656 422.164062 429.082031 422.277344 429.300781 422.414062 C 429.523438 422.554688 429.730469 422.710938 429.921875 422.890625 C 430.113281 423.070312 430.28125 423.265625 430.433594 423.476562 C 430.585938 423.6875 430.71875 423.914062 430.824219 424.152344 C 430.933594 424.390625 431.015625 424.636719 431.074219 424.890625 C 431.132812 425.144531 431.167969 425.402344 431.175781 425.660156 C 431.1875 425.921875 431.167969 426.183594 431.125 426.441406 C 431.082031 426.699219 431.015625 426.949219 430.925781 427.191406 C 430.832031 427.4375 430.71875 427.671875 430.578125 427.890625 C 430.441406 428.113281 430.285156 428.320312 430.105469 428.511719 C 429.925781 428.699219 429.730469 428.871094 429.519531 429.023438 C 429.308594 429.175781 429.082031 429.304688 428.84375 429.414062 C 428.605469 429.523438 428.359375 429.605469 428.105469 429.664062 C 427.851562 429.722656 427.59375 429.757812 427.332031 429.765625 C 427.074219 429.773438 426.8125 429.757812 426.554688 429.714844 Z M 426.554688 429.636719 " fill-opacity="1" fill-rule="nonzero"/><path fill="#ffcebc" d="M 392.894531 233.039062 L 405.171875 257.71875 C 405.914062 259.199219 406.753906 260.621094 407.699219 261.984375 C 408.640625 263.347656 409.675781 264.636719 410.800781 265.851562 C 411.925781 267.070312 413.132812 268.199219 414.417969 269.242188 C 415.707031 270.289062 417.058594 271.234375 418.480469 272.089844 C 419.902344 272.941406 421.375 273.6875 422.902344 274.332031 C 424.429688 274.972656 425.992188 275.503906 427.597656 275.925781 C 429.199219 276.347656 430.824219 276.652344 432.46875 276.839844 C 434.117188 277.03125 435.765625 277.105469 437.421875 277.058594 L 475.285156 276 C 475.992188 275.980469 476.699219 275.917969 477.402344 275.820312 C 478.101562 275.71875 478.796875 275.582031 479.484375 275.40625 C 480.171875 275.230469 480.847656 275.015625 481.511719 274.765625 C 482.175781 274.515625 482.824219 274.230469 483.453125 273.90625 C 484.085938 273.585938 484.699219 273.230469 485.292969 272.839844 C 485.886719 272.453125 486.457031 272.03125 487 271.578125 C 487.546875 271.125 488.066406 270.644531 488.5625 270.136719 C 489.054688 269.625 489.519531 269.089844 489.953125 268.53125 C 490.386719 267.96875 490.789062 267.386719 491.160156 266.78125 C 491.53125 266.175781 491.867188 265.554688 492.167969 264.910156 C 492.46875 264.269531 492.734375 263.613281 492.964844 262.941406 C 493.195312 262.269531 493.386719 261.585938 493.539062 260.894531 C 493.695312 260.203125 493.808594 259.503906 493.886719 258.800781 C 493.960938 258.09375 494 257.386719 494 256.675781 C 494 255.96875 493.957031 255.261719 493.878906 254.554688 C 493.800781 253.851562 493.683594 253.152344 493.527344 252.460938 C 493.203125 251.066406 492.730469 249.726562 492.105469 248.441406 C 491.476562 247.15625 490.71875 245.953125 489.820312 244.839844 C 488.921875 243.726562 487.914062 242.726562 486.792969 241.839844 C 485.667969 240.953125 484.460938 240.203125 483.167969 239.589844 L 565.558594 243.042969 C 567.59375 243.132812 569.628906 243.109375 571.664062 242.972656 C 573.695312 242.835938 575.71875 242.589844 577.722656 242.230469 C 579.730469 241.871094 581.710938 241.40625 583.664062 240.828125 C 585.621094 240.253906 587.539062 239.570312 589.417969 238.78125 C 591.296875 237.996094 593.128906 237.105469 594.910156 236.117188 C 596.691406 235.128906 598.414062 234.042969 600.074219 232.863281 C 601.738281 231.683594 603.332031 230.417969 604.855469 229.0625 C 606.378906 227.710938 607.820312 226.273438 609.1875 224.761719 L 621.859375 210.792969 L 621.859375 121.5 L 476.65625 118.597656 C 473.699219 118.535156 470.753906 118.667969 467.816406 119.003906 C 464.878906 119.339844 461.976562 119.871094 459.109375 120.601562 C 456.242188 121.328125 453.441406 122.246094 450.699219 123.355469 C 447.957031 124.460938 445.300781 125.75 442.734375 127.21875 C 440.167969 128.683594 437.710938 130.316406 435.363281 132.117188 C 433.015625 133.914062 430.800781 135.863281 428.71875 137.964844 C 426.636719 140.0625 424.703125 142.292969 422.921875 144.652344 C 421.140625 147.015625 419.527344 149.484375 418.082031 152.0625 L 393.796875 195.21875 C 392.988281 196.648438 392.273438 198.125 391.644531 199.644531 C 391.019531 201.164062 390.488281 202.714844 390.050781 204.300781 C 389.613281 205.882812 389.277344 207.488281 389.039062 209.113281 C 388.796875 210.738281 388.660156 212.375 388.621094 214.015625 C 388.582031 215.660156 388.640625 217.296875 388.804688 218.933594 C 388.964844 220.570312 389.226562 222.1875 389.585938 223.792969 C 389.945312 225.394531 390.402344 226.96875 390.957031 228.515625 C 391.511719 230.0625 392.15625 231.570312 392.894531 233.039062 Z M 392.894531 233.039062 " fill-opacity="1" fill-rule="nonzero"/><path fill="#ffe2d5" d="M 610.050781 146.765625 C 610.046875 145.859375 609.957031 144.960938 609.78125 144.070312 C 609.605469 143.179688 609.34375 142.3125 609 141.472656 C 608.65625 140.636719 608.234375 139.835938 607.734375 139.078125 C 607.234375 138.320312 606.667969 137.617188 606.035156 136.96875 C 605.398438 136.320312 604.707031 135.738281 603.957031 135.226562 C 603.210938 134.710938 602.421875 134.273438 601.585938 133.914062 C 600.753906 133.554688 599.894531 133.277344 599.007812 133.082031 C 598.121094 132.886719 597.226562 132.78125 596.316406 132.761719 L 475.285156 130.367188 C 471.914062 130.324219 468.574219 130.609375 465.265625 131.222656 C 461.953125 131.835938 458.730469 132.765625 455.601562 134.011719 C 452.472656 135.257812 449.496094 136.792969 446.667969 138.625 C 443.839844 140.453125 441.214844 142.539062 438.796875 144.882812 C 438.144531 145.53125 437.601562 146.261719 437.164062 147.074219 C 436.730469 147.882812 436.421875 148.738281 436.238281 149.640625 C 436.058594 150.542969 436.011719 151.453125 436.101562 152.367188 C 436.1875 153.285156 436.40625 154.167969 436.757812 155.019531 C 437.109375 155.871094 437.578125 156.652344 438.160156 157.363281 C 438.742188 158.074219 439.414062 158.6875 440.179688 159.199219 C 440.945312 159.710938 441.765625 160.101562 442.648438 160.371094 C 443.527344 160.636719 444.429688 160.773438 445.347656 160.773438 L 596.042969 160.773438 C 596.960938 160.773438 597.875 160.683594 598.777344 160.503906 C 599.675781 160.324219 600.554688 160.058594 601.402344 159.707031 C 602.253906 159.355469 603.058594 158.921875 603.824219 158.410156 C 604.589844 157.902344 605.296875 157.320312 605.945312 156.671875 C 606.597656 156.019531 607.179688 155.3125 607.6875 154.546875 C 608.199219 153.78125 608.632812 152.976562 608.984375 152.125 C 609.335938 151.277344 609.601562 150.402344 609.78125 149.5 C 609.960938 148.597656 610.050781 147.6875 610.050781 146.765625 Z M 610.050781 146.765625 " fill-opacity="1" fill-rule="nonzero"/><path fill="#ffab94" d="M 439.386719 256.5 C 426.671875 251.675781 410.707031 242.535156 403.289062 230.726562 C 397.5625 221.582031 395.167969 210.519531 391.519531 200.203125 C 390.472656 202.832031 389.710938 205.546875 389.238281 208.339844 C 388.765625 211.128906 388.589844 213.941406 388.710938 216.773438 C 388.832031 219.601562 389.25 222.386719 389.960938 225.128906 C 390.671875 227.871094 391.664062 230.507812 392.933594 233.039062 L 405.171875 257.71875 C 405.914062 259.199219 406.753906 260.621094 407.699219 261.984375 C 408.640625 263.347656 409.675781 264.636719 410.800781 265.851562 C 411.925781 267.070312 413.132812 268.199219 414.417969 269.242188 C 415.707031 270.289062 417.058594 271.234375 418.480469 272.089844 C 419.902344 272.941406 421.375 273.6875 422.902344 274.332031 C 424.429688 274.972656 425.992188 275.503906 427.597656 275.925781 C 429.199219 276.347656 430.824219 276.652344 432.46875 276.839844 C 434.117188 277.03125 435.765625 277.105469 437.421875 277.058594 L 475.285156 276 C 476.917969 275.972656 478.527344 275.742188 480.101562 275.308594 C 481.679688 274.871094 483.175781 274.246094 484.59375 273.429688 C 486.011719 272.613281 487.304688 271.632812 488.472656 270.484375 C 489.640625 269.339844 490.644531 268.066406 491.488281 266.664062 C 473.601562 265.929688 456.234375 262.542969 439.386719 256.5 Z M 439.386719 256.5 " fill-opacity="1" fill-rule="nonzero"/><path fill="#898ba7" d="M 562.734375 325.238281 L 527.148438 289.652344 C 526.847656 289.347656 526.613281 288.996094 526.449219 288.597656 C 526.285156 288.203125 526.203125 287.789062 526.203125 287.359375 C 526.203125 286.929688 526.285156 286.515625 526.449219 286.117188 C 526.613281 285.71875 526.847656 285.367188 527.148438 285.0625 L 530.328125 281.886719 C 530.496094 281.714844 530.640625 281.53125 530.769531 281.332031 C 530.898438 281.132812 531 280.921875 531.082031 280.699219 C 531.164062 280.476562 531.222656 280.246094 531.253906 280.011719 C 531.285156 279.777344 531.292969 279.539062 531.273438 279.304688 C 531.257812 279.066406 531.210938 278.835938 531.144531 278.609375 C 531.074219 278.382812 530.984375 278.164062 530.867188 277.957031 C 530.75 277.75 530.617188 277.558594 530.457031 277.378906 C 530.300781 277.203125 530.125 277.042969 529.933594 276.902344 L 514.242188 265.761719 C 513.960938 265.558594 513.71875 265.316406 513.515625 265.039062 C 513.3125 264.761719 513.15625 264.460938 513.046875 264.132812 C 512.9375 263.804688 512.878906 263.46875 512.878906 263.125 C 512.875 262.777344 512.921875 262.441406 513.027344 262.113281 C 513.289062 261.289062 513.527344 260.460938 513.742188 259.628906 C 513.960938 258.792969 514.152344 257.953125 514.324219 257.109375 C 514.492188 256.265625 514.636719 255.414062 514.761719 254.5625 C 514.882812 253.707031 514.980469 252.851562 515.058594 251.992188 C 515.132812 251.132812 515.183594 250.273438 515.210938 249.414062 C 515.238281 248.550781 515.242188 247.691406 515.21875 246.828125 C 515.199219 245.964844 515.15625 245.105469 515.085938 244.246094 C 515.019531 243.386719 514.925781 242.53125 514.808594 241.675781 C 514.695312 240.820312 514.554688 239.972656 514.390625 239.125 C 514.230469 238.277344 514.042969 237.4375 513.832031 236.601562 C 513.621094 235.765625 513.390625 234.9375 513.132812 234.113281 C 512.878906 233.289062 512.597656 232.472656 512.296875 231.667969 C 511.996094 230.859375 511.671875 230.058594 511.328125 229.269531 C 510.980469 228.480469 510.613281 227.703125 510.226562 226.933594 C 509.835938 226.164062 509.425781 225.40625 508.996094 224.660156 C 508.566406 223.910156 508.113281 223.179688 507.640625 222.457031 C 507.171875 221.734375 506.679688 221.027344 506.167969 220.332031 C 505.65625 219.640625 505.128906 218.960938 504.578125 218.292969 C 504.03125 217.628906 503.460938 216.980469 502.878906 216.347656 C 502.292969 215.714844 501.691406 215.097656 501.070312 214.496094 C 500.453125 213.898438 499.816406 213.316406 499.167969 212.75 C 498.515625 212.1875 497.847656 211.640625 497.167969 211.113281 C 496.484375 210.585938 495.789062 210.078125 495.078125 209.589844 C 494.371094 209.097656 493.648438 208.628906 492.910156 208.179688 C 492.175781 207.734375 491.425781 207.304688 490.667969 206.898438 C 489.90625 206.488281 489.136719 206.105469 488.355469 205.738281 C 487.574219 205.375 486.785156 205.03125 485.984375 204.710938 C 485.183594 204.390625 484.375 204.09375 483.558594 203.816406 C 482.742188 203.542969 481.917969 203.289062 481.085938 203.058594 C 480.257812 202.828125 479.421875 202.621094 478.578125 202.4375 C 477.734375 202.253906 476.890625 202.09375 476.039062 201.957031 C 475.1875 201.824219 474.332031 201.710938 473.476562 201.621094 C 472.617188 201.53125 471.757812 201.464844 470.898438 201.425781 C 470.035156 201.382812 469.175781 201.367188 468.3125 201.371094 C 467.449219 201.378906 466.589844 201.410156 465.730469 201.464844 C 464.871094 201.519531 464.011719 201.597656 463.15625 201.699219 C 462.300781 201.800781 461.445312 201.925781 460.597656 202.074219 C 459.75 202.226562 458.90625 202.398438 458.066406 202.59375 C 457.226562 202.789062 456.394531 203.007812 455.566406 203.25 C 454.738281 203.492188 453.917969 203.757812 453.105469 204.046875 C 452.292969 204.335938 451.488281 204.644531 450.695312 204.976562 C 449.898438 205.3125 449.113281 205.664062 448.339844 206.042969 C 447.5625 206.417969 446.796875 206.816406 446.042969 207.234375 C 445.292969 207.652344 444.550781 208.089844 443.820312 208.550781 C 443.089844 209.011719 442.375 209.492188 441.671875 209.992188 C 440.972656 210.488281 440.28125 211.007812 439.609375 211.546875 C 438.9375 212.085938 438.277344 212.640625 437.632812 213.214844 C 436.992188 213.789062 436.367188 214.382812 435.753906 214.988281 C 435.144531 215.597656 434.554688 216.226562 433.976562 216.867188 C 433.402344 217.507812 432.847656 218.167969 432.308594 218.839844 C 431.769531 219.511719 431.25 220.199219 430.75 220.902344 C 430.246094 221.601562 429.765625 222.320312 429.304688 223.046875 C 428.847656 223.777344 428.40625 224.515625 427.984375 225.269531 C 427.566406 226.023438 427.167969 226.785156 426.789062 227.5625 C 426.414062 228.335938 426.058594 229.121094 425.722656 229.914062 C 425.390625 230.710938 425.078125 231.515625 424.789062 232.328125 C 424.5 233.136719 424.234375 233.957031 423.992188 234.785156 C 423.746094 235.613281 423.527344 236.445312 423.332031 237.285156 C 423.132812 238.121094 422.960938 238.96875 422.808594 239.816406 C 422.660156 240.664062 422.53125 241.515625 422.429688 242.371094 C 422.324219 243.226562 422.246094 244.085938 422.191406 244.945312 C 422.136719 245.808594 422.105469 246.667969 422.097656 247.53125 C 422.089844 248.390625 422.105469 249.253906 422.144531 250.113281 C 422.183594 250.976562 422.25 251.835938 422.335938 252.691406 C 422.425781 253.550781 422.535156 254.402344 422.671875 255.253906 C 422.808594 256.105469 422.964844 256.953125 423.148438 257.796875 C 423.332031 258.636719 423.535156 259.476562 423.765625 260.304688 C 423.996094 261.136719 424.246094 261.960938 424.519531 262.777344 C 424.796875 263.59375 425.09375 264.40625 425.414062 265.207031 C 425.730469 266.003906 426.074219 266.796875 426.4375 267.578125 C 426.800781 268.359375 427.183594 269.132812 427.589844 269.890625 C 427.996094 270.652344 428.425781 271.398438 428.871094 272.136719 C 429.320312 272.871094 429.789062 273.597656 430.277344 274.308594 C 430.765625 275.015625 431.273438 275.714844 431.796875 276.394531 C 432.324219 277.078125 432.871094 277.746094 433.433594 278.398438 C 434 279.050781 434.578125 279.6875 435.179688 280.304688 C 435.777344 280.925781 436.394531 281.527344 437.027344 282.113281 C 437.660156 282.699219 438.308594 283.265625 438.972656 283.816406 C 439.636719 284.367188 440.3125 284.898438 441.007812 285.410156 C 441.699219 285.921875 442.40625 286.414062 443.128906 286.886719 C 443.851562 287.359375 444.582031 287.8125 445.328125 288.242188 C 446.074219 288.675781 446.832031 289.085938 447.601562 289.476562 C 448.371094 289.867188 449.148438 290.234375 449.9375 290.582031 C 450.726562 290.925781 451.527344 291.25 452.332031 291.554688 C 453.140625 291.855469 453.957031 292.136719 454.777344 292.394531 C 455.601562 292.648438 456.429688 292.882812 457.265625 293.09375 C 458.101562 293.304688 458.941406 293.492188 459.789062 293.65625 C 460.636719 293.820312 461.484375 293.960938 462.339844 294.078125 C 463.191406 294.195312 464.050781 294.289062 464.910156 294.359375 C 465.769531 294.429688 466.628906 294.472656 467.492188 294.496094 C 468.351562 294.519531 469.214844 294.515625 470.074219 294.488281 C 470.9375 294.464844 471.796875 294.414062 472.65625 294.339844 C 473.515625 294.265625 474.371094 294.167969 475.222656 294.046875 C 476.078125 293.925781 476.925781 293.78125 477.773438 293.613281 C 478.617188 293.441406 479.457031 293.25 480.292969 293.035156 C 481.128906 292.820312 481.957031 292.582031 482.777344 292.320312 C 483.109375 292.214844 483.449219 292.160156 483.796875 292.15625 C 484.144531 292.15625 484.484375 292.203125 484.820312 292.304688 C 485.152344 292.40625 485.460938 292.558594 485.75 292.753906 C 486.035156 292.949219 486.289062 293.183594 486.503906 293.457031 L 497.644531 309.152344 C 497.785156 309.34375 497.945312 309.515625 498.125 309.671875 C 498.300781 309.828125 498.492188 309.964844 498.699219 310.078125 C 498.90625 310.195312 499.121094 310.289062 499.347656 310.355469 C 499.574219 310.425781 499.804688 310.472656 500.039062 310.492188 C 500.277344 310.511719 500.511719 310.507812 500.746094 310.476562 C 500.980469 310.449219 501.210938 310.394531 501.433594 310.316406 C 501.65625 310.238281 501.867188 310.136719 502.070312 310.015625 C 502.269531 309.890625 502.457031 309.746094 502.628906 309.582031 L 505.765625 306.40625 C 506.074219 306.097656 506.425781 305.859375 506.828125 305.691406 C 507.230469 305.523438 507.648438 305.441406 508.082031 305.441406 C 508.515625 305.441406 508.933594 305.523438 509.335938 305.691406 C 509.738281 305.859375 510.089844 306.097656 510.398438 306.40625 L 545.980469 341.992188 L 563.085938 342.421875 Z M 473.519531 252.65625 C 473.117188 253.058594 472.695312 253.4375 472.257812 253.800781 C 471.816406 254.160156 471.363281 254.496094 470.890625 254.8125 C 470.417969 255.128906 469.929688 255.421875 469.429688 255.6875 C 468.929688 255.957031 468.417969 256.199219 467.890625 256.417969 C 467.367188 256.632812 466.832031 256.824219 466.289062 256.988281 C 465.746094 257.15625 465.195312 257.292969 464.640625 257.402344 C 464.082031 257.515625 463.519531 257.597656 462.957031 257.652344 C 462.390625 257.710938 461.824219 257.738281 461.253906 257.738281 C 460.6875 257.738281 460.121094 257.710938 459.554688 257.652344 C 458.992188 257.597656 458.429688 257.515625 457.871094 257.402344 C 457.316406 257.292969 456.765625 257.15625 456.222656 256.992188 C 455.679688 256.824219 455.144531 256.636719 454.617188 256.417969 C 454.09375 256.199219 453.582031 255.957031 453.082031 255.691406 C 452.578125 255.421875 452.09375 255.128906 451.621094 254.816406 C 451.148438 254.5 450.691406 254.160156 450.253906 253.800781 C 449.816406 253.441406 449.394531 253.058594 448.992188 252.660156 C 448.589844 252.257812 448.210938 251.835938 447.851562 251.398438 C 447.488281 250.957031 447.152344 250.503906 446.835938 250.03125 C 446.519531 249.558594 446.230469 249.070312 445.960938 248.570312 C 445.691406 248.070312 445.449219 247.558594 445.234375 247.03125 C 445.015625 246.507812 444.824219 245.972656 444.660156 245.429688 C 444.496094 244.886719 444.355469 244.335938 444.246094 243.777344 C 444.136719 243.222656 444.050781 242.660156 443.996094 242.097656 C 443.941406 241.53125 443.914062 240.964844 443.914062 240.394531 C 443.914062 239.828125 443.941406 239.261719 443.996094 238.695312 C 444.050781 238.132812 444.136719 237.570312 444.246094 237.011719 C 444.355469 236.457031 444.496094 235.90625 444.660156 235.363281 C 444.824219 234.820312 445.015625 234.285156 445.234375 233.757812 C 445.449219 233.234375 445.691406 232.722656 445.960938 232.222656 C 446.230469 231.71875 446.519531 231.234375 446.835938 230.761719 C 447.152344 230.289062 447.488281 229.832031 447.851562 229.394531 C 448.210938 228.957031 448.589844 228.535156 448.992188 228.132812 C 449.394531 227.730469 449.816406 227.351562 450.253906 226.992188 C 450.691406 226.628906 451.148438 226.292969 451.621094 225.976562 C 452.09375 225.660156 452.578125 225.371094 453.082031 225.101562 C 453.582031 224.835938 454.09375 224.59375 454.617188 224.375 C 455.144531 224.15625 455.679688 223.964844 456.222656 223.800781 C 456.765625 223.636719 457.316406 223.5 457.871094 223.386719 C 458.429688 223.277344 458.992188 223.195312 459.554688 223.136719 C 460.121094 223.082031 460.6875 223.054688 461.253906 223.054688 C 461.824219 223.054688 462.390625 223.082031 462.957031 223.136719 C 463.519531 223.195312 464.082031 223.277344 464.640625 223.386719 C 465.195312 223.5 465.746094 223.636719 466.289062 223.800781 C 466.832031 223.96875 467.367188 224.160156 467.890625 224.375 C 468.417969 224.59375 468.929688 224.835938 469.429688 225.101562 C 469.929688 225.371094 470.417969 225.664062 470.890625 225.980469 C 471.363281 226.292969 471.816406 226.632812 472.257812 226.992188 C 472.695312 227.351562 473.117188 227.734375 473.519531 228.136719 C 473.917969 228.539062 474.296875 228.957031 474.65625 229.398438 C 475.015625 229.835938 475.351562 230.292969 475.667969 230.765625 C 475.980469 231.238281 476.273438 231.726562 476.539062 232.226562 C 476.804688 232.726562 477.046875 233.238281 477.265625 233.765625 C 477.480469 234.289062 477.671875 234.824219 477.835938 235.367188 C 478 235.910156 478.136719 236.457031 478.246094 237.015625 C 478.359375 237.570312 478.441406 238.132812 478.496094 238.699219 C 478.550781 239.261719 478.578125 239.828125 478.578125 240.394531 C 478.578125 240.964844 478.550781 241.53125 478.496094 242.09375 C 478.441406 242.660156 478.359375 243.21875 478.246094 243.777344 C 478.136719 244.332031 478 244.882812 477.835938 245.425781 C 477.671875 245.96875 477.480469 246.503906 477.265625 247.027344 C 477.046875 247.550781 476.804688 248.066406 476.539062 248.566406 C 476.273438 249.066406 475.980469 249.554688 475.667969 250.027344 C 475.351562 250.5 475.015625 250.953125 474.65625 251.394531 C 474.296875 251.832031 473.917969 252.253906 473.519531 252.65625 Z M 473.519531 252.65625 " fill-opacity="1" fill-rule="nonzero"/><path fill="#6b6884" d="M 501.726562 215.070312 C 500.605469 213.945312 499.425781 212.882812 498.195312 211.878906 C 496.960938 210.875 495.683594 209.933594 494.355469 209.0625 C 493.027344 208.191406 491.65625 207.386719 490.246094 206.65625 C 488.835938 205.921875 487.390625 205.265625 485.914062 204.683594 C 484.433594 204.097656 482.929688 203.589844 481.398438 203.164062 C 479.871094 202.734375 478.320312 202.382812 476.753906 202.113281 C 475.1875 201.84375 473.613281 201.652344 472.027344 201.542969 C 470.441406 201.433594 468.855469 201.40625 467.265625 201.460938 C 465.679688 201.515625 464.097656 201.652344 462.523438 201.867188 C 460.949219 202.085938 459.390625 202.378906 457.84375 202.757812 C 456.300781 203.132812 454.78125 203.589844 453.28125 204.121094 C 451.785156 204.652344 450.320312 205.261719 448.882812 205.945312 C 447.449219 206.628906 446.054688 207.382812 444.695312 208.207031 C 443.335938 209.035156 442.027344 209.929688 440.761719 210.890625 C 439.496094 211.851562 438.28125 212.875 437.121094 213.960938 C 435.960938 215.046875 434.855469 216.1875 433.8125 217.386719 C 432.863281 218.519531 432.390625 219.828125 432.402344 221.308594 L 432.402344 235.121094 C 432.398438 235.515625 432.433594 235.914062 432.511719 236.304688 C 432.585938 236.695312 432.699219 237.074219 432.851562 237.441406 C 433 237.8125 433.1875 238.164062 433.40625 238.496094 C 433.625 238.828125 433.875 239.132812 434.15625 239.417969 C 434.4375 239.699219 434.742188 239.953125 435.074219 240.175781 C 435.40625 240.394531 435.753906 240.582031 436.121094 240.738281 C 436.488281 240.890625 436.867188 241.003906 437.261719 241.082031 C 437.652344 241.160156 438.046875 241.199219 438.441406 241.199219 C 439.125 241.21875 439.792969 241.125 440.441406 240.914062 C 441.089844 240.707031 441.6875 240.394531 442.230469 239.980469 C 442.773438 239.566406 443.230469 239.074219 443.605469 238.5 C 443.976562 237.929688 444.246094 237.3125 444.40625 236.648438 C 444.550781 235.96875 444.734375 235.300781 444.957031 234.644531 C 445.183594 233.984375 445.445312 233.34375 445.746094 232.71875 C 446.046875 232.09375 446.386719 231.488281 446.761719 230.902344 C 447.132812 230.316406 447.542969 229.757812 447.984375 229.222656 C 448.425781 228.683594 448.898438 228.175781 449.402344 227.699219 C 449.90625 227.21875 450.433594 226.773438 450.992188 226.355469 C 451.546875 225.941406 452.128906 225.5625 452.730469 225.214844 C 453.332031 224.871094 453.953125 224.5625 454.59375 224.292969 C 455.234375 224.019531 455.886719 223.789062 456.554688 223.597656 C 457.222656 223.40625 457.898438 223.253906 458.585938 223.144531 C 459.269531 223.035156 459.960938 222.964844 460.65625 222.9375 C 461.347656 222.910156 462.042969 222.925781 462.734375 222.980469 C 463.425781 223.039062 464.113281 223.136719 464.792969 223.273438 C 465.476562 223.414062 466.144531 223.59375 466.804688 223.8125 C 467.460938 224.03125 468.105469 224.289062 468.734375 224.585938 C 469.363281 224.882812 469.96875 225.21875 470.558594 225.585938 C 471.144531 225.957031 471.707031 226.363281 472.246094 226.800781 C 472.785156 227.238281 473.296875 227.707031 473.78125 228.207031 C 474.261719 228.707031 474.714844 229.234375 475.132812 229.789062 C 475.550781 230.339844 475.9375 230.917969 476.285156 231.519531 C 476.636719 232.117188 476.945312 232.738281 477.222656 233.375 C 477.496094 234.011719 477.734375 234.664062 477.929688 235.332031 C 478.125 235.996094 478.28125 236.671875 478.398438 237.359375 C 478.511719 238.042969 478.585938 238.734375 478.617188 239.425781 C 478.648438 240.121094 478.640625 240.8125 478.589844 241.507812 C 478.539062 242.199219 478.445312 242.886719 478.3125 243.566406 C 478.175781 244.25 478.003906 244.921875 477.789062 245.582031 C 477.570312 246.242188 477.320312 246.886719 477.027344 247.515625 C 476.734375 248.148438 476.402344 248.757812 476.039062 249.347656 C 475.671875 249.9375 475.269531 250.503906 474.835938 251.046875 C 474.402344 251.585938 473.9375 252.101562 473.441406 252.585938 C 472.945312 253.074219 472.421875 253.527344 471.871094 253.949219 L 515.027344 253.949219 C 515.253906 252.191406 515.382812 250.421875 515.410156 248.644531 C 515.433594 246.871094 515.359375 245.101562 515.183594 243.332031 C 515.003906 241.566406 514.726562 239.816406 514.347656 238.082031 C 513.96875 236.34375 513.492188 234.636719 512.917969 232.957031 C 512.34375 231.277344 511.675781 229.636719 510.910156 228.03125 C 510.148438 226.429688 509.292969 224.875 508.351562 223.371094 C 507.410156 221.863281 506.386719 220.417969 505.277344 219.03125 C 504.171875 217.640625 502.984375 216.324219 501.726562 215.070312 Z M 501.726562 215.070312 " fill-opacity="1" fill-rule="nonzero"/><path fill="#deeaff" d="M 484.503906 273.804688 C 483.378906 273.820312 482.425781 273.429688 481.640625 272.625 C 481.449219 272.441406 481.28125 272.242188 481.128906 272.027344 C 480.980469 271.808594 480.855469 271.578125 480.75 271.335938 C 480.648438 271.09375 480.570312 270.84375 480.515625 270.585938 C 480.464844 270.324219 480.4375 270.066406 480.4375 269.800781 C 480.4375 269.539062 480.464844 269.277344 480.515625 269.019531 C 480.570312 268.761719 480.648438 268.507812 480.75 268.265625 C 480.855469 268.023438 480.980469 267.792969 481.128906 267.578125 C 481.28125 267.359375 481.449219 267.160156 481.640625 266.976562 L 487.796875 260.816406 C 487.980469 260.625 488.183594 260.453125 488.402344 260.300781 C 488.621094 260.148438 488.851562 260.019531 489.09375 259.914062 C 489.339844 259.808594 489.59375 259.730469 489.851562 259.675781 C 490.113281 259.621094 490.378906 259.597656 490.644531 259.597656 C 490.910156 259.597656 491.171875 259.621094 491.433594 259.675781 C 491.695312 259.730469 491.945312 259.808594 492.191406 259.914062 C 492.433594 260.019531 492.667969 260.148438 492.886719 260.300781 C 493.101562 260.453125 493.304688 260.625 493.488281 260.816406 C 493.675781 261 493.847656 261.199219 493.996094 261.417969 C 494.144531 261.632812 494.273438 261.863281 494.375 262.105469 C 494.480469 262.351562 494.554688 262.601562 494.609375 262.859375 C 494.660156 263.117188 494.6875 263.378906 494.6875 263.640625 C 494.6875 263.90625 494.660156 264.167969 494.609375 264.425781 C 494.554688 264.683594 494.480469 264.933594 494.375 265.175781 C 494.273438 265.417969 494.144531 265.648438 493.996094 265.867188 C 493.847656 266.082031 493.675781 266.285156 493.488281 266.464844 L 487.328125 272.625 C 486.550781 273.417969 485.609375 273.808594 484.503906 273.804688 Z M 484.503906 273.804688 " fill-opacity="1" fill-rule="nonzero"/><path fill="#ffcebc" d="M 621.820312 210.792969 L 609.1875 224.800781 C 607.824219 226.300781 606.382812 227.722656 604.863281 229.066406 C 603.347656 230.410156 601.757812 231.664062 600.101562 232.835938 C 598.445312 234.003906 596.730469 235.078125 594.957031 236.058594 C 593.183594 237.039062 591.359375 237.921875 589.488281 238.699219 C 587.617188 239.480469 585.710938 240.15625 583.765625 240.730469 C 581.820312 241.300781 579.851562 241.765625 577.855469 242.121094 C 575.859375 242.476562 573.851562 242.71875 571.828125 242.855469 C 569.804688 242.988281 567.78125 243.015625 565.753906 242.925781 L 464.023438 238.609375 C 463.347656 238.585938 462.675781 238.53125 462.003906 238.4375 C 461.335938 238.347656 460.671875 238.226562 460.015625 238.066406 C 459.355469 237.910156 458.707031 237.722656 458.070312 237.5 C 457.429688 237.28125 456.804688 237.027344 456.191406 236.742188 C 455.578125 236.460938 454.980469 236.144531 454.398438 235.804688 C 453.8125 235.460938 453.25 235.089844 452.703125 234.6875 C 452.160156 234.289062 451.636719 233.863281 451.132812 233.414062 C 450.628906 232.960938 450.148438 232.484375 449.695312 231.984375 C 449.238281 231.484375 448.808594 230.964844 448.40625 230.421875 C 448 229.882812 447.625 229.320312 447.277344 228.742188 C 446.929688 228.160156 446.613281 227.566406 446.324219 226.953125 C 446.035156 226.34375 445.777344 225.71875 445.550781 225.082031 C 445.324219 224.445312 445.128906 223.796875 444.96875 223.140625 C 444.804688 222.484375 444.675781 221.824219 444.582031 221.152344 C 444.484375 220.484375 444.421875 219.8125 444.394531 219.136719 C 444.363281 218.460938 444.367188 217.785156 444.40625 217.109375 C 444.441406 216.480469 444.507812 215.851562 444.601562 215.226562 C 444.699219 214.601562 444.820312 213.984375 444.972656 213.367188 C 445.125 212.753906 445.304688 212.148438 445.515625 211.554688 C 445.722656 210.957031 445.957031 210.371094 446.222656 209.796875 C 446.484375 209.222656 446.773438 208.660156 447.089844 208.113281 C 447.402344 207.5625 447.742188 207.03125 448.109375 206.515625 C 448.472656 206 448.859375 205.5 449.269531 205.019531 C 449.683594 204.539062 450.113281 204.078125 450.566406 203.640625 C 451.019531 203.199219 451.496094 202.78125 451.988281 202.382812 C 452.480469 201.988281 452.988281 201.617188 453.515625 201.265625 C 454.042969 200.917969 454.585938 200.59375 455.144531 200.296875 C 455.699219 199.996094 456.269531 199.726562 456.851562 199.480469 C 457.4375 199.234375 458.027344 199.015625 458.632812 198.828125 C 459.234375 198.636719 459.84375 198.472656 460.460938 198.339844 C 461.078125 198.207031 461.703125 198.101562 462.332031 198.027344 C 462.957031 197.949219 463.585938 197.902344 464.21875 197.886719 L 550.53125 195.570312 Z M 621.820312 210.792969 " fill-opacity="1" fill-rule="nonzero"/><path fill="#ffab94" d="M 630.804688 200.4375 C 630.609375 200.257812 630.402344 200.097656 630.175781 199.960938 C 629.949219 199.824219 629.714844 199.707031 629.464844 199.617188 C 629.214844 199.527344 628.960938 199.464844 628.699219 199.425781 C 628.4375 199.386719 628.175781 199.375 627.910156 199.390625 C 627.648438 199.40625 627.386719 199.445312 627.132812 199.511719 C 626.878906 199.582031 626.632812 199.671875 626.394531 199.789062 C 626.15625 199.90625 625.933594 200.046875 625.726562 200.207031 C 625.515625 200.371094 625.328125 200.550781 625.152344 200.75 L 621.820312 204.476562 L 621.820312 193.140625 L 609.1875 206.949219 L 608.285156 207.890625 C 606.925781 209.324219 605.496094 210.679688 603.996094 211.957031 C 602.492188 213.238281 600.925781 214.433594 599.296875 215.542969 C 597.667969 216.65625 595.980469 217.675781 594.242188 218.605469 C 592.503906 219.535156 590.71875 220.371094 588.890625 221.109375 C 587.058594 221.847656 585.195312 222.488281 583.296875 223.027344 C 581.402344 223.566406 579.480469 224.003906 577.535156 224.335938 C 575.589844 224.667969 573.632812 224.898438 571.664062 225.023438 C 569.695312 225.144531 567.726562 225.164062 565.753906 225.074219 L 464.023438 220.601562 C 452.527344 220.015625 452.644531 202.398438 464.023438 201.769531 L 464.496094 201.769531 L 550.808594 199.457031 C 551.328125 199.457031 551.828125 199.355469 552.308594 199.15625 C 552.789062 198.957031 553.214844 198.675781 553.582031 198.308594 C 553.949219 197.9375 554.234375 197.515625 554.433594 197.035156 C 554.632812 196.554688 554.730469 196.054688 554.730469 195.53125 C 554.730469 195.011719 554.632812 194.511719 554.433594 194.03125 C 554.234375 193.550781 553.949219 193.125 553.582031 192.757812 C 553.214844 192.390625 552.789062 192.105469 552.308594 191.90625 C 551.828125 191.710938 551.328125 191.609375 550.808594 191.609375 L 464.496094 193.925781 C 463.320312 193.964844 462.15625 194.085938 461 194.292969 C 459.84375 194.5 458.707031 194.789062 457.59375 195.15625 C 456.476562 195.527344 455.394531 195.976562 454.347656 196.503906 C 453.296875 197.027344 452.289062 197.628906 451.324219 198.300781 C 450.363281 198.972656 449.449219 199.707031 448.59375 200.511719 C 447.738281 201.3125 446.941406 202.175781 446.207031 203.089844 C 445.472656 204.007812 444.808594 204.972656 444.214844 205.988281 C 443.621094 207 443.101562 208.050781 442.660156 209.140625 C 442.21875 210.226562 441.855469 211.339844 441.574219 212.480469 C 441.292969 213.621094 441.09375 214.777344 440.976562 215.945312 C 440.859375 217.113281 440.828125 218.285156 440.882812 219.457031 C 440.933594 220.628906 441.070312 221.792969 441.292969 222.949219 C 441.515625 224.101562 441.816406 225.234375 442.199219 226.34375 C 442.585938 227.453125 443.046875 228.53125 443.585938 229.574219 C 444.125 230.617188 444.734375 231.617188 445.417969 232.570312 C 446.101562 233.527344 446.851562 234.429688 447.664062 235.277344 C 448.792969 236.410156 450.019531 237.425781 451.339844 238.324219 C 452.664062 239.222656 454.058594 239.992188 455.523438 240.625 C 456.992188 241.261719 458.507812 241.753906 460.070312 242.097656 C 461.628906 242.445312 463.210938 242.644531 464.808594 242.691406 L 565.714844 246.96875 L 568.265625 246.96875 C 570.335938 246.96875 572.402344 246.859375 574.464844 246.644531 C 576.523438 246.425781 578.566406 246.101562 580.59375 245.671875 C 582.617188 245.242188 584.617188 244.707031 586.585938 244.066406 C 588.558594 243.425781 590.488281 242.683594 592.378906 241.84375 C 594.273438 241 596.117188 240.0625 597.910156 239.023438 C 599.703125 237.988281 601.4375 236.863281 603.113281 235.644531 C 604.789062 234.425781 606.398438 233.125 607.9375 231.738281 C 609.476562 230.351562 610.9375 228.890625 612.324219 227.351562 L 631.351562 205.96875 C 631.515625 205.769531 631.660156 205.554688 631.78125 205.328125 C 631.902344 205.101562 632.003906 204.863281 632.078125 204.617188 C 632.152344 204.367188 632.203125 204.117188 632.226562 203.859375 C 632.253906 203.601562 632.253906 203.347656 632.226562 203.089844 C 632.203125 202.832031 632.152344 202.578125 632.074219 202.332031 C 632 202.085938 631.902344 201.847656 631.78125 201.621094 C 631.65625 201.394531 631.515625 201.179688 631.351562 200.980469 C 631.1875 200.78125 631.003906 200.601562 630.804688 200.4375 Z M 630.804688 200.4375 " fill-opacity="1" fill-rule="nonzero"/><path fill="#ffab94" d="M 561.28125 395.425781 C 561.027344 396.171875 560.734375 396.902344 560.40625 397.621094 C 560.078125 398.339844 559.71875 399.039062 559.320312 399.722656 C 558.925781 400.40625 558.5 401.066406 558.039062 401.707031 C 557.578125 402.347656 557.085938 402.964844 556.566406 403.558594 C 556.046875 404.152344 555.5 404.71875 554.921875 405.257812 C 554.347656 405.796875 553.746094 406.308594 553.121094 406.789062 C 552.496094 407.269531 551.851562 407.71875 551.179688 408.136719 C 550.511719 408.554688 549.824219 408.941406 549.117188 409.289062 C 548.410156 409.640625 547.6875 409.957031 546.953125 410.238281 C 546.214844 410.519531 545.464844 410.761719 544.703125 410.96875 C 543.941406 411.179688 543.171875 411.347656 542.394531 411.480469 C 541.617188 411.613281 540.835938 411.707031 540.046875 411.765625 C 539.261719 411.820312 538.472656 411.839844 537.683594 411.820312 C 536.898438 411.796875 536.109375 411.738281 535.328125 411.640625 C 534.542969 411.546875 533.769531 411.410156 533 411.238281 C 532.230469 411.066406 531.46875 410.855469 530.71875 410.609375 L 443.582031 381.222656 C 443.332031 381.144531 443.089844 381.039062 442.859375 380.910156 C 442.628906 380.785156 442.414062 380.632812 442.214844 380.460938 C 442.015625 380.289062 441.832031 380.101562 441.671875 379.894531 C 441.507812 379.683594 441.367188 379.460938 441.25 379.226562 C 441.132812 378.992188 441.042969 378.746094 440.972656 378.488281 C 440.90625 378.234375 440.867188 377.976562 440.851562 377.710938 C 440.835938 377.449219 440.84375 377.1875 440.882812 376.925781 C 440.921875 376.664062 440.984375 376.410156 441.070312 376.164062 C 441.148438 375.910156 441.25 375.667969 441.378906 375.433594 C 441.503906 375.203125 441.652344 374.984375 441.824219 374.78125 C 441.996094 374.578125 442.183594 374.394531 442.390625 374.230469 C 442.597656 374.066406 442.820312 373.925781 443.058594 373.808594 C 443.292969 373.6875 443.539062 373.59375 443.796875 373.523438 C 444.050781 373.453125 444.3125 373.410156 444.574219 373.394531 C 444.839844 373.378906 445.101562 373.386719 445.367188 373.425781 C 445.628906 373.460938 445.882812 373.523438 446.132812 373.613281 L 533.152344 402.996094 C 533.992188 403.285156 534.851562 403.496094 535.726562 403.640625 C 536.601562 403.785156 537.484375 403.855469 538.375 403.855469 C 539.261719 403.851562 540.140625 403.777344 541.019531 403.628906 C 541.894531 403.484375 542.75 403.265625 543.589844 402.976562 C 544.429688 402.6875 545.238281 402.328125 546.019531 401.90625 C 546.800781 401.484375 547.542969 401 548.242188 400.453125 C 548.941406 399.910156 549.59375 399.308594 550.195312 398.65625 C 550.796875 398.003906 551.339844 397.304688 551.828125 396.5625 C 551.671875 396.988281 551.472656 397.394531 551.238281 397.78125 Z M 561.28125 395.425781 " fill-opacity="1" fill-rule="nonzero"/><path fill="#deeaff" d="M 333.457031 325.984375 L 379.320312 325.984375 C 379.929688 325.984375 380.535156 326.042969 381.132812 326.160156 C 381.730469 326.28125 382.3125 326.457031 382.878906 326.691406 C 383.441406 326.925781 383.976562 327.210938 384.484375 327.550781 C 384.992188 327.890625 385.460938 328.273438 385.894531 328.707031 C 386.324219 329.136719 386.710938 329.609375 387.050781 330.117188 C 387.390625 330.625 387.675781 331.160156 387.910156 331.722656 C 388.144531 332.289062 388.320312 332.867188 388.4375 333.46875 C 388.558594 334.066406 388.617188 334.671875 388.617188 335.28125 L 388.617188 454.511719 C 388.617188 455.121094 388.558594 455.726562 388.4375 456.324219 C 388.320312 456.925781 388.144531 457.503906 387.910156 458.070312 C 387.675781 458.632812 387.390625 459.167969 387.050781 459.675781 C 386.710938 460.183594 386.324219 460.652344 385.894531 461.085938 C 385.460938 461.519531 384.992188 461.902344 384.484375 462.242188 C 383.976562 462.582031 383.441406 462.867188 382.878906 463.101562 C 382.3125 463.335938 381.730469 463.511719 381.132812 463.628906 C 380.535156 463.75 379.929688 463.808594 379.320312 463.808594 L 333.457031 463.808594 C 332.84375 463.808594 332.238281 463.75 331.640625 463.628906 C 331.042969 463.511719 330.460938 463.335938 329.898438 463.101562 C 329.332031 462.867188 328.796875 462.582031 328.289062 462.242188 C 327.78125 461.902344 327.3125 461.519531 326.878906 461.085938 C 326.449219 460.652344 326.0625 460.183594 325.722656 459.675781 C 325.386719 459.167969 325.097656 458.632812 324.863281 458.070312 C 324.632812 457.503906 324.453125 456.925781 324.335938 456.324219 C 324.214844 455.726562 324.15625 455.121094 324.15625 454.511719 L 324.15625 335.28125 C 324.15625 334.671875 324.214844 334.066406 324.335938 333.46875 C 324.453125 332.867188 324.632812 332.289062 324.863281 331.722656 C 325.097656 331.160156 325.386719 330.625 325.722656 330.117188 C 326.0625 329.609375 326.449219 329.136719 326.878906 328.707031 C 327.3125 328.273438 327.78125 327.890625 328.289062 327.550781 C 328.796875 327.210938 329.332031 326.925781 329.898438 326.691406 C 330.460938 326.457031 331.042969 326.28125 331.640625 326.160156 C 332.238281 326.042969 332.84375 325.984375 333.457031 325.984375 Z M 333.457031 325.984375 " fill-opacity="1" fill-rule="nonzero"/><path fill="#c0ccff" d="M 388.617188 353.996094 L 388.617188 335.28125 C 388.617188 334.671875 388.558594 334.066406 388.4375 333.46875 C 388.320312 332.867188 388.144531 332.289062 387.910156 331.722656 C 387.675781 331.160156 387.390625 330.625 387.050781 330.117188 C 386.710938 329.609375 386.324219 329.136719 385.894531 328.707031 C 385.460938 328.273438 384.992188 327.890625 384.484375 327.550781 C 383.976562 327.210938 383.441406 326.925781 382.878906 326.691406 C 382.3125 326.457031 381.730469 326.28125 381.132812 326.160156 C 380.535156 326.042969 379.929688 325.984375 379.320312 325.984375 L 333.457031 325.984375 C 332.84375 325.984375 332.238281 326.042969 331.640625 326.160156 C 331.042969 326.28125 330.460938 326.457031 329.898438 326.691406 C 329.332031 326.925781 328.796875 327.210938 328.289062 327.550781 C 327.78125 327.890625 327.3125 328.273438 326.878906 328.707031 C 326.449219 329.136719 326.0625 329.609375 325.722656 330.117188 C 325.386719 330.625 325.097656 331.160156 324.863281 331.722656 C 324.632812 332.289062 324.453125 332.867188 324.335938 333.46875 C 324.214844 334.066406 324.15625 334.671875 324.15625 335.28125 L 324.15625 353.996094 Z M 388.617188 353.996094 " fill-opacity="1" fill-rule="nonzero"/><path fill="#61637a" d="M 370.296875 430.421875 C 370.296875 431.335938 370.207031 432.242188 370.027344 433.140625 C 369.847656 434.035156 369.585938 434.90625 369.234375 435.75 C 368.886719 436.597656 368.457031 437.398438 367.949219 438.160156 C 367.441406 438.921875 366.863281 439.625 366.214844 440.269531 C 365.570312 440.917969 364.867188 441.496094 364.105469 442.003906 C 363.34375 442.511719 362.542969 442.941406 361.699219 443.289062 C 360.851562 443.640625 359.980469 443.902344 359.085938 444.082031 C 358.1875 444.261719 357.28125 444.351562 356.367188 444.351562 C 355.453125 444.351562 354.546875 444.261719 353.648438 444.082031 C 352.753906 443.902344 351.882812 443.640625 351.039062 443.289062 C 350.191406 442.941406 349.390625 442.511719 348.628906 442.003906 C 347.871094 441.496094 347.164062 440.917969 346.519531 440.269531 C 345.871094 439.625 345.296875 438.921875 344.785156 438.160156 C 344.277344 437.398438 343.851562 436.597656 343.5 435.75 C 343.148438 434.90625 342.886719 434.035156 342.707031 433.140625 C 342.527344 432.242188 342.441406 431.335938 342.441406 430.421875 C 342.441406 429.507812 342.527344 428.601562 342.707031 427.703125 C 342.886719 426.808594 343.148438 425.9375 343.5 425.09375 C 343.851562 424.246094 344.277344 423.445312 344.785156 422.683594 C 345.296875 421.921875 345.871094 421.21875 346.519531 420.574219 C 347.164062 419.925781 347.871094 419.347656 348.628906 418.839844 C 349.390625 418.332031 350.191406 417.902344 351.039062 417.554688 C 351.882812 417.203125 352.753906 416.941406 353.648438 416.761719 C 354.546875 416.582031 355.453125 416.496094 356.367188 416.496094 C 357.28125 416.496094 358.1875 416.582031 359.085938 416.761719 C 359.980469 416.941406 360.851562 417.203125 361.699219 417.554688 C 362.542969 417.902344 363.34375 418.332031 364.105469 418.839844 C 364.867188 419.347656 365.570312 419.925781 366.214844 420.574219 C 366.863281 421.21875 367.441406 421.921875 367.949219 422.683594 C 368.457031 423.445312 368.886719 424.246094 369.234375 425.09375 C 369.585938 425.9375 369.847656 426.808594 370.027344 427.703125 C 370.207031 428.601562 370.296875 429.507812 370.296875 430.421875 Z M 370.296875 430.421875 " fill-opacity="1" fill-rule="nonzero"/><g clip-path="url(#e4a755c679)"><path fill="#deeaff" d="M 631.117188 98.980469 L 676.980469 98.980469 C 677.589844 98.980469 678.195312 99.039062 678.796875 99.160156 C 679.394531 99.277344 679.976562 99.453125 680.539062 99.6875 C 681.101562 99.921875 681.640625 100.207031 682.148438 100.546875 C 682.65625 100.886719 683.125 101.273438 683.554688 101.703125 C 683.988281 102.136719 684.375 102.605469 684.710938 103.113281 C 685.050781 103.621094 685.339844 104.15625 685.570312 104.71875 C 685.804688 105.285156 685.980469 105.867188 686.101562 106.464844 C 686.21875 107.0625 686.28125 107.667969 686.28125 108.277344 L 686.28125 227.507812 C 686.28125 228.117188 686.21875 228.722656 686.101562 229.320312 C 685.980469 229.921875 685.804688 230.503906 685.570312 231.066406 C 685.339844 231.628906 685.050781 232.167969 684.710938 232.671875 C 684.375 233.179688 683.988281 233.652344 683.554688 234.082031 C 683.125 234.515625 682.65625 234.898438 682.148438 235.238281 C 681.640625 235.578125 681.101562 235.863281 680.539062 236.097656 C 679.976562 236.332031 679.394531 236.507812 678.796875 236.628906 C 678.195312 236.746094 677.589844 236.804688 676.980469 236.804688 L 631.117188 236.804688 C 630.507812 236.804688 629.902344 236.746094 629.304688 236.628906 C 628.703125 236.507812 628.125 236.332031 627.558594 236.097656 C 626.996094 235.863281 626.460938 235.578125 625.953125 235.238281 C 625.445312 234.898438 624.972656 234.515625 624.542969 234.082031 C 624.109375 233.652344 623.726562 233.179688 623.386719 232.671875 C 623.046875 232.167969 622.761719 231.628906 622.527344 231.066406 C 622.292969 230.503906 622.117188 229.921875 621.996094 229.320312 C 621.878906 228.722656 621.820312 228.117188 621.820312 227.507812 L 621.820312 108.277344 C 621.820312 107.667969 621.878906 107.0625 621.996094 106.464844 C 622.117188 105.867188 622.292969 105.285156 622.527344 104.71875 C 622.761719 104.15625 623.046875 103.621094 623.386719 103.113281 C 623.726562 102.605469 624.109375 102.136719 624.542969 101.703125 C 624.972656 101.273438 625.445312 100.886719 625.953125 100.546875 C 626.460938 100.207031 626.996094 99.921875 627.558594 99.6875 C 628.125 99.453125 628.703125 99.277344 629.304688 99.160156 C 629.902344 99.039062 630.507812 98.980469 631.117188 98.980469 Z M 631.117188 98.980469 " fill-opacity="1" fill-rule="nonzero"/></g><g clip-path="url(#e60d912f1d)"><path fill="#c0ccff" d="M 686.28125 127.03125 L 686.28125 108.277344 C 686.28125 107.667969 686.21875 107.0625 686.101562 106.464844 C 685.980469 105.867188 685.804688 105.285156 685.570312 104.71875 C 685.335938 104.15625 685.050781 103.621094 684.710938 103.113281 C 684.375 102.605469 683.988281 102.136719 683.554688 101.703125 C 683.125 101.273438 682.65625 100.886719 682.148438 100.546875 C 681.640625 100.207031 681.101562 99.921875 680.539062 99.6875 C 679.976562 99.453125 679.394531 99.277344 678.796875 99.160156 C 678.195312 99.039062 677.589844 98.980469 676.980469 98.980469 L 631.117188 98.980469 C 630.507812 98.980469 629.902344 99.039062 629.304688 99.160156 C 628.703125 99.277344 628.125 99.453125 627.558594 99.6875 C 626.996094 99.921875 626.460938 100.207031 625.953125 100.546875 C 625.445312 100.886719 624.972656 101.273438 624.542969 101.703125 C 624.109375 102.136719 623.726562 102.605469 623.386719 103.113281 C 623.046875 103.621094 622.761719 104.15625 622.527344 104.71875 C 622.292969 105.285156 622.117188 105.867188 621.996094 106.464844 C 621.878906 107.0625 621.820312 107.667969 621.820312 108.277344 L 621.820312 127.03125 Z M 686.28125 127.03125 " fill-opacity="1" fill-rule="nonzero"/></g><path fill="#61637a" d="M 667.957031 203.417969 C 667.957031 204.332031 667.867188 205.238281 667.691406 206.136719 C 667.511719 207.03125 667.246094 207.902344 666.898438 208.75 C 666.546875 209.59375 666.117188 210.394531 665.609375 211.15625 C 665.101562 211.917969 664.523438 212.621094 663.878906 213.265625 C 663.230469 213.914062 662.527344 214.492188 661.765625 215 C 661.007812 215.507812 660.203125 215.9375 659.359375 216.285156 C 658.515625 216.636719 657.644531 216.902344 656.746094 217.078125 C 655.851562 217.257812 654.945312 217.347656 654.03125 217.347656 C 653.113281 217.347656 652.210938 217.257812 651.3125 217.078125 C 650.414062 216.902344 649.542969 216.636719 648.699219 216.285156 C 647.855469 215.9375 647.050781 215.507812 646.292969 215 C 645.53125 214.492188 644.828125 213.914062 644.179688 213.265625 C 643.535156 212.621094 642.957031 211.917969 642.449219 211.15625 C 641.941406 210.394531 641.511719 209.59375 641.160156 208.75 C 640.8125 207.902344 640.546875 207.03125 640.371094 206.136719 C 640.191406 205.238281 640.101562 204.332031 640.101562 203.417969 C 640.101562 202.503906 640.191406 201.597656 640.371094 200.703125 C 640.546875 199.804688 640.8125 198.933594 641.160156 198.089844 C 641.511719 197.242188 641.941406 196.441406 642.449219 195.679688 C 642.957031 194.921875 643.535156 194.21875 644.179688 193.570312 C 644.828125 192.921875 645.53125 192.347656 646.292969 191.839844 C 647.050781 191.332031 647.855469 190.902344 648.699219 190.550781 C 649.542969 190.203125 650.414062 189.9375 651.3125 189.757812 C 652.210938 189.582031 653.113281 189.492188 654.03125 189.492188 C 654.945312 189.492188 655.851562 189.582031 656.746094 189.757812 C 657.644531 189.9375 658.515625 190.203125 659.359375 190.550781 C 660.203125 190.902344 661.007812 191.332031 661.765625 191.839844 C 662.527344 192.347656 663.230469 192.921875 663.878906 193.570312 C 664.523438 194.21875 665.101562 194.921875 665.609375 195.679688 C 666.117188 196.441406 666.546875 197.242188 666.898438 198.089844 C 667.246094 198.933594 667.511719 199.804688 667.691406 200.703125 C 667.867188 201.597656 667.957031 202.503906 667.957031 203.417969 Z M 667.957031 203.417969 " fill-opacity="1" fill-rule="nonzero"/><path fill="#ffe2d5" d="M 483.640625 360.742188 C 484.226562 360.742188 484.796875 360.644531 485.351562 360.453125 C 485.90625 360.261719 486.417969 359.988281 486.882812 359.628906 C 487.347656 359.269531 487.738281 358.84375 488.0625 358.355469 C 488.386719 357.863281 488.625 357.335938 488.773438 356.769531 C 488.925781 356.203125 488.980469 355.625 488.9375 355.039062 C 488.898438 354.453125 488.765625 353.890625 488.539062 353.347656 C 488.3125 352.808594 488.003906 352.316406 487.617188 351.875 C 487.226562 351.4375 486.777344 351.070312 486.269531 350.777344 L 453.746094 332.457031 C 452.710938 331.875 451.644531 331.359375 450.546875 330.914062 C 449.449219 330.46875 448.324219 330.09375 447.179688 329.792969 C 446.03125 329.492188 444.871094 329.265625 443.691406 329.113281 C 442.515625 328.960938 441.335938 328.886719 440.148438 328.886719 C 438.964844 328.886719 437.78125 328.960938 436.605469 329.113281 C 435.429688 329.265625 434.269531 329.492188 433.121094 329.792969 C 431.976562 330.09375 430.851562 330.46875 429.753906 330.914062 C 428.65625 331.359375 427.589844 331.875 426.554688 332.457031 L 404.742188 344.777344 C 404.078125 345.148438 403.476562 345.597656 402.9375 346.128906 C 402.394531 346.660156 401.933594 347.253906 401.550781 347.910156 C 401.167969 348.566406 400.875 349.257812 400.679688 349.992188 C 400.480469 350.726562 400.386719 351.472656 400.386719 352.230469 C 400.386719 352.789062 400.441406 353.347656 400.550781 353.894531 C 400.660156 354.445312 400.824219 354.980469 401.039062 355.496094 C 401.253906 356.015625 401.519531 356.507812 401.832031 356.972656 C 402.140625 357.4375 402.496094 357.867188 402.894531 358.265625 C 403.292969 358.660156 403.722656 359.011719 404.191406 359.324219 C 404.660156 359.632812 405.152344 359.894531 405.667969 360.105469 C 406.1875 360.320312 406.722656 360.480469 407.273438 360.585938 C 407.824219 360.695312 408.378906 360.746094 408.941406 360.742188 Z M 483.640625 360.742188 " fill-opacity="1" fill-rule="nonzero"/><path fill="#ffbaa3" d="M 682.472656 413.746094 L 516.636719 472.597656 C 513.835938 473.597656 510.96875 474.339844 508.035156 474.824219 C 505.101562 475.3125 502.148438 475.535156 499.171875 475.496094 C 496.199219 475.457031 493.253906 475.152344 490.335938 474.585938 C 487.414062 474.019531 484.570312 473.199219 481.796875 472.125 L 388.617188 436.109375 L 388.617188 423.871094 L 481.796875 459.925781 C 484.570312 461 487.414062 461.820312 490.335938 462.386719 C 493.253906 462.953125 496.199219 463.253906 499.171875 463.292969 C 502.148438 463.335938 505.101562 463.113281 508.035156 462.625 C 510.96875 462.136719 513.835938 461.394531 516.636719 460.394531 L 682.472656 401.546875 C 684.238281 400.933594 685.90625 400.113281 687.472656 399.09375 C 689.039062 398.074219 690.457031 396.878906 691.734375 395.511719 C 693.007812 394.144531 694.101562 392.644531 695.011719 391.011719 C 695.917969 389.375 696.617188 387.65625 697.109375 385.851562 C 697.285156 386.550781 697.429688 387.253906 697.542969 387.964844 C 697.65625 388.675781 697.738281 389.390625 697.785156 390.105469 C 697.835938 390.824219 697.847656 391.542969 697.832031 392.261719 C 697.8125 392.980469 697.761719 393.699219 697.679688 394.414062 C 697.59375 395.128906 697.480469 395.835938 697.328125 396.539062 C 697.179688 397.246094 697 397.941406 696.789062 398.628906 C 696.574219 399.316406 696.332031 399.992188 696.058594 400.65625 C 695.78125 401.320312 695.476562 401.972656 695.144531 402.609375 C 694.808594 403.246094 694.445312 403.867188 694.054688 404.46875 C 693.664062 405.074219 693.246094 405.660156 692.800781 406.222656 C 692.359375 406.789062 691.886719 407.332031 691.394531 407.855469 C 690.898438 408.378906 690.382812 408.878906 689.839844 409.351562 C 689.300781 409.828125 688.738281 410.277344 688.160156 410.699219 C 687.578125 411.125 686.976562 411.519531 686.359375 411.886719 C 685.742188 412.257812 685.109375 412.597656 684.460938 412.90625 C 683.808594 413.21875 683.148438 413.496094 682.472656 413.746094 Z M 682.472656 413.746094 " fill-opacity="1" fill-rule="nonzero"/></svg>