<svg xmlns="http://www.w3.org/2000/svg" xmlns:xlink="http://www.w3.org/1999/xlink" width="1366" zoomAndPan="magnify" viewBox="0 0 1024.5 576" height="768" preserveAspectRatio="xMidYMid meet" version="1.0"><defs><clipPath id="a7b2f8c13b"><path d="M 0 0.140625 L 1024 0.140625 L 1024 575.859375 L 0 575.859375 Z M 0 0.140625 " clip-rule="nonzero"/></clipPath><clipPath id="715b9a2ffc"><path d="M 335 154 L 652 154 L 652 460.304688 L 335 460.304688 Z M 335 154 " clip-rule="nonzero"/></clipPath></defs><g clip-path="url(#a7b2f8c13b)"><path fill="#ffffff" d="M 0 0.140625 L 1024 0.140625 L 1024 575.859375 L 0 575.859375 Z M 0 0.140625 " fill-opacity="1" fill-rule="nonzero"/><path fill="#fdfeff" d="M 0 0.140625 L 1024 0.140625 L 1024 575.859375 L 0 575.859375 Z M 0 0.140625 " fill-opacity="1" fill-rule="nonzero"/></g><path fill="#a79ba7" d="M 458.359375 320.875 C 463.566406 328.289062 469.6875 335.015625 476.5625 340.886719 L 427.074219 389.34375 L 408.234375 369.949219 Z M 458.359375 320.875 " fill-opacity="1" fill-rule="evenodd"/><path fill="#837683" d="M 467.902344 336.554688 C 468.875 339.742188 470.6875 342.164062 473.289062 343.769531 L 424.128906 392.550781 L 418.105469 385.960938 Z M 467.902344 336.554688 " fill-opacity="1" fill-rule="evenodd"/><path fill="#f1ba84" d="M 364.40625 452.238281 L 343.144531 430.351562 C 339.410156 426.503906 339.503906 420.3125 343.351562 416.582031 L 402.242188 359.5 C 406.089844 355.769531 412.296875 355.863281 416.03125 359.703125 L 437.292969 381.59375 C 441.027344 385.4375 440.933594 391.632812 437.085938 395.363281 L 378.191406 452.445312 C 374.34375 456.175781 368.140625 456.082031 364.40625 452.238281 Z M 364.40625 452.238281 " fill-opacity="1" fill-rule="evenodd"/><path fill="#e3a76f" d="M 437.347656 386.664062 L 378.453125 443.746094 C 374.605469 447.476562 368.402344 447.382812 364.667969 443.539062 L 343.40625 421.652344 C 342.617188 420.84375 342.003906 419.929688 341.554688 418.957031 C 339.605469 422.59375 340.121094 427.242188 343.140625 430.351562 L 364.40625 452.238281 C 368.140625 456.082031 374.34375 456.175781 378.191406 452.445312 L 437.085938 395.363281 C 440.121094 392.417969 440.820312 387.9375 439.140625 384.289062 C 438.679688 385.148438 438.082031 385.953125 437.347656 386.664062 Z M 437.347656 386.664062 " fill-opacity="1" fill-rule="evenodd"/><path fill="#8ac9fe" d="M 614.554688 191.203125 C 615.792969 192.441406 617.003906 193.710938 618.183594 195.011719 C 619.359375 196.308594 620.507812 197.636719 621.621094 198.992188 C 622.734375 200.347656 623.8125 201.726562 624.859375 203.136719 C 625.90625 204.542969 626.914062 205.976562 627.890625 207.433594 C 628.863281 208.890625 629.804688 210.371094 630.707031 211.875 C 631.609375 213.378906 632.472656 214.90625 633.300781 216.449219 C 634.128906 217.996094 634.917969 219.5625 635.667969 221.148438 C 636.417969 222.730469 637.128906 224.335938 637.800781 225.953125 C 638.472656 227.574219 639.101562 229.207031 639.695312 230.859375 C 640.285156 232.511719 640.835938 234.175781 641.347656 235.851562 C 641.855469 237.527344 642.324219 239.21875 642.75 240.917969 C 643.175781 242.621094 643.5625 244.328125 643.902344 246.046875 C 644.246094 247.769531 644.546875 249.496094 644.804688 251.230469 C 645.0625 252.964844 645.277344 254.703125 645.449219 256.445312 C 645.621094 258.191406 645.75 259.941406 645.835938 261.691406 C 645.921875 263.441406 645.964844 265.195312 645.964844 266.945312 C 645.964844 268.699219 645.921875 270.453125 645.835938 272.203125 C 645.75 273.953125 645.621094 275.703125 645.449219 277.445312 C 645.277344 279.191406 645.0625 280.929688 644.804688 282.664062 C 644.546875 284.398438 644.246094 286.125 643.902344 287.84375 C 643.5625 289.5625 643.175781 291.273438 642.75 292.972656 C 642.324219 294.675781 641.855469 296.363281 641.347656 298.042969 C 640.835938 299.71875 640.285156 301.382812 639.695312 303.035156 C 639.105469 304.683594 638.472656 306.320312 637.800781 307.941406 C 637.128906 309.558594 636.417969 311.160156 635.667969 312.746094 C 634.917969 314.332031 634.128906 315.898438 633.300781 317.441406 C 632.476562 318.988281 631.609375 320.511719 630.707031 322.015625 C 629.804688 323.519531 628.867188 325 627.890625 326.460938 C 626.917969 327.917969 625.90625 329.351562 624.859375 330.757812 C 623.816406 332.167969 622.734375 333.546875 621.621094 334.902344 C 620.507812 336.257812 619.363281 337.585938 618.183594 338.882812 C 617.007812 340.183594 615.796875 341.453125 614.554688 342.691406 C 613.3125 343.933594 612.042969 345.140625 610.742188 346.316406 C 609.441406 347.496094 608.113281 348.640625 606.757812 349.75 C 605.402344 350.863281 604.015625 351.941406 602.609375 352.988281 C 601.199219 354.03125 599.761719 355.039062 598.304688 356.015625 C 596.84375 356.988281 595.363281 357.925781 593.855469 358.828125 C 592.351562 359.726562 590.824219 360.59375 589.277344 361.417969 C 587.730469 362.246094 586.164062 363.03125 584.574219 363.78125 C 582.988281 364.53125 581.386719 365.242188 579.765625 365.914062 C 578.140625 366.585938 576.503906 367.214844 574.851562 367.804688 C 573.199219 368.394531 571.535156 368.945312 569.855469 369.453125 C 568.175781 369.964844 566.484375 370.429688 564.78125 370.859375 C 563.078125 371.285156 561.367188 371.667969 559.644531 372.007812 C 557.925781 372.351562 556.195312 372.652344 554.460938 372.910156 C 552.722656 373.164062 550.984375 373.378906 549.234375 373.550781 C 547.488281 373.722656 545.738281 373.851562 543.988281 373.9375 C 542.234375 374.023438 540.480469 374.066406 538.722656 374.066406 C 536.96875 374.066406 535.214844 374.023438 533.460938 373.9375 C 531.710938 373.851562 529.960938 373.722656 528.214844 373.550781 C 526.464844 373.378906 524.726562 373.167969 522.988281 372.910156 C 521.253906 372.652344 519.523438 372.351562 517.800781 372.011719 C 516.082031 371.667969 514.371094 371.285156 512.667969 370.859375 C 510.964844 370.433594 509.273438 369.964844 507.59375 369.457031 C 505.914062 368.949219 504.25 368.398438 502.597656 367.808594 C 500.945312 367.214844 499.304688 366.585938 497.683594 365.914062 C 496.0625 365.246094 494.460938 364.535156 492.871094 363.785156 C 491.285156 363.035156 489.71875 362.246094 488.171875 361.421875 C 486.625 360.59375 485.097656 359.730469 483.589844 358.828125 C 482.085938 357.929688 480.601562 356.992188 479.144531 356.015625 C 477.683594 355.042969 476.25 354.035156 474.839844 352.988281 C 473.429688 351.945312 472.046875 350.867188 470.691406 349.753906 C 469.335938 348.640625 468.003906 347.496094 466.707031 346.320312 C 465.40625 345.144531 464.132812 343.933594 462.894531 342.695312 C 461.652344 341.457031 460.441406 340.1875 459.261719 338.886719 C 458.085938 337.589844 456.9375 336.261719 455.824219 334.90625 C 454.710938 333.550781 453.632812 332.167969 452.585938 330.761719 C 451.542969 329.351562 450.53125 327.921875 449.554688 326.464844 C 448.582031 325.003906 447.640625 323.523438 446.738281 322.019531 C 445.835938 320.515625 444.972656 318.992188 444.144531 317.445312 C 443.316406 315.898438 442.527344 314.335938 441.777344 312.75 C 441.027344 311.164062 440.316406 309.5625 439.644531 307.945312 C 438.972656 306.324219 438.34375 304.6875 437.75 303.039062 C 437.160156 301.386719 436.609375 299.722656 436.101562 298.046875 C 435.589844 296.367188 435.121094 294.679688 434.695312 292.980469 C 434.269531 291.277344 433.886719 289.566406 433.542969 287.847656 C 433.199219 286.128906 432.898438 284.402344 432.644531 282.667969 C 432.386719 280.933594 432.171875 279.195312 432 277.449219 C 431.828125 275.707031 431.695312 273.957031 431.609375 272.207031 C 431.523438 270.457031 431.480469 268.703125 431.480469 266.949219 C 431.480469 265.199219 431.523438 263.445312 431.609375 261.695312 C 431.695312 259.945312 431.824219 258.195312 431.996094 256.453125 C 432.171875 254.707031 432.382812 252.96875 432.640625 251.234375 C 432.898438 249.5 433.199219 247.773438 433.542969 246.054688 C 433.882812 244.332031 434.269531 242.625 434.695312 240.921875 C 435.121094 239.222656 435.589844 237.535156 436.097656 235.855469 C 436.609375 234.179688 437.160156 232.515625 437.75 230.863281 C 438.339844 229.210938 438.972656 227.578125 439.644531 225.957031 C 440.316406 224.339844 441.027344 222.734375 441.777344 221.152344 C 442.527344 219.566406 443.316406 218 444.144531 216.453125 C 444.972656 214.910156 445.835938 213.382812 446.738281 211.878906 C 447.640625 210.375 448.578125 208.894531 449.554688 207.4375 C 450.53125 205.980469 451.539062 204.546875 452.585938 203.140625 C 453.628906 201.730469 454.710938 200.351562 455.824219 198.996094 C 456.9375 197.640625 458.082031 196.3125 459.261719 195.011719 C 460.441406 193.714844 461.648438 192.445312 462.890625 191.207031 C 464.132812 189.964844 465.402344 188.757812 466.703125 187.578125 C 468.003906 186.402344 469.332031 185.257812 470.6875 184.144531 C 472.046875 183.035156 473.429688 181.957031 474.839844 180.910156 C 476.246094 179.867188 477.683594 178.859375 479.140625 177.882812 C 480.601562 176.910156 482.082031 175.972656 483.589844 175.070312 C 485.09375 174.167969 486.621094 173.304688 488.167969 172.480469 C 489.714844 171.652344 491.285156 170.863281 492.871094 170.113281 C 494.457031 169.367188 496.0625 168.65625 497.683594 167.984375 C 499.304688 167.3125 500.941406 166.683594 502.59375 166.09375 C 504.246094 165.5 505.910156 164.953125 507.589844 164.441406 C 509.269531 163.933594 510.960938 163.464844 512.664062 163.039062 C 514.367188 162.613281 516.078125 162.230469 517.800781 161.886719 C 519.519531 161.546875 521.25 161.246094 522.984375 160.988281 C 524.722656 160.730469 526.464844 160.515625 528.210938 160.34375 C 529.957031 160.171875 531.707031 160.042969 533.460938 159.957031 C 535.210938 159.871094 536.964844 159.828125 538.722656 159.828125 C 540.476562 159.828125 542.230469 159.871094 543.984375 159.957031 C 545.738281 160.042969 547.484375 160.171875 549.234375 160.34375 C 550.980469 160.515625 552.722656 160.730469 554.457031 160.988281 C 556.191406 161.246094 557.921875 161.546875 559.644531 161.886719 C 561.363281 162.230469 563.078125 162.613281 564.777344 163.039062 C 566.480469 163.464844 568.171875 163.933594 569.851562 164.441406 C 571.53125 164.949219 573.199219 165.5 574.851562 166.089844 C 576.503906 166.679688 578.140625 167.3125 579.761719 167.984375 C 581.382812 168.652344 582.988281 169.363281 584.574219 170.113281 C 586.160156 170.863281 587.726562 171.652344 589.273438 172.476562 C 590.824219 173.304688 592.347656 174.167969 593.855469 175.066406 C 595.359375 175.96875 596.84375 176.90625 598.300781 177.882812 C 599.761719 178.855469 601.195312 179.863281 602.605469 180.910156 C 604.015625 181.953125 605.398438 183.03125 606.753906 184.144531 C 608.113281 185.253906 609.441406 186.398438 610.742188 187.578125 C 612.042969 188.753906 613.3125 189.960938 614.554688 191.203125 Z M 614.554688 191.203125 " fill-opacity="1" fill-rule="nonzero"/><path fill="#60b7ff" d="M 538.726562 159.828125 C 597.953125 159.828125 645.964844 207.789062 645.964844 266.949219 C 645.964844 326.109375 597.953125 374.066406 538.726562 374.066406 C 536.980469 374.066406 535.246094 374.023438 533.519531 373.941406 C 590.328125 371.226562 635.554688 324.367188 635.554688 266.949219 C 635.554688 209.53125 590.328125 162.667969 533.519531 159.957031 C 535.242188 159.875 536.980469 159.828125 538.726562 159.828125 Z M 538.726562 159.828125 " fill-opacity="1" fill-rule="evenodd"/><path fill="#eceff1" d="M 599.492188 206.246094 C 600.484375 207.242188 601.453125 208.257812 602.398438 209.300781 C 603.34375 210.339844 604.261719 211.402344 605.15625 212.488281 C 606.046875 213.574219 606.910156 214.683594 607.75 215.8125 C 608.585938 216.941406 609.398438 218.089844 610.179688 219.257812 C 610.960938 220.425781 611.710938 221.609375 612.433594 222.816406 C 613.160156 224.019531 613.851562 225.242188 614.515625 226.480469 C 615.175781 227.71875 615.808594 228.976562 616.410156 230.246094 C 617.011719 231.515625 617.582031 232.800781 618.121094 234.097656 C 618.660156 235.394531 619.164062 236.707031 619.636719 238.027344 C 620.113281 239.351562 620.554688 240.683594 620.960938 242.027344 C 621.371094 243.371094 621.746094 244.726562 622.085938 246.089844 C 622.429688 247.453125 622.738281 248.824219 623.011719 250.199219 C 623.285156 251.578125 623.527344 252.960938 623.734375 254.351562 C 623.9375 255.742188 624.109375 257.136719 624.25 258.535156 C 624.386719 259.929688 624.492188 261.332031 624.558594 262.734375 C 624.628906 264.136719 624.664062 265.542969 624.664062 266.949219 C 624.664062 268.351562 624.628906 269.757812 624.558594 271.160156 C 624.492188 272.5625 624.386719 273.964844 624.25 275.359375 C 624.113281 276.757812 623.9375 278.152344 623.734375 279.542969 C 623.527344 280.933594 623.285156 282.316406 623.011719 283.695312 C 622.738281 285.070312 622.429688 286.441406 622.085938 287.804688 C 621.746094 289.167969 621.371094 290.523438 620.960938 291.867188 C 620.554688 293.210938 620.113281 294.542969 619.640625 295.867188 C 619.164062 297.191406 618.660156 298.5 618.121094 299.796875 C 617.582031 301.097656 617.011719 302.378906 616.414062 303.648438 C 615.8125 304.917969 615.179688 306.175781 614.515625 307.414062 C 613.851562 308.652344 613.160156 309.875 612.4375 311.078125 C 611.714844 312.285156 610.960938 313.472656 610.179688 314.640625 C 609.398438 315.808594 608.589844 316.957031 607.75 318.082031 C 606.914062 319.210938 606.046875 320.320312 605.15625 321.40625 C 604.265625 322.492188 603.347656 323.554688 602.402344 324.597656 C 601.457031 325.636719 600.488281 326.652344 599.492188 327.648438 C 598.5 328.640625 597.480469 329.609375 596.4375 330.550781 C 595.394531 331.496094 594.332031 332.414062 593.242188 333.304688 C 592.15625 334.195312 591.046875 335.058594 589.917969 335.898438 C 588.789062 336.734375 587.640625 337.542969 586.46875 338.324219 C 585.300781 339.105469 584.113281 339.855469 582.90625 340.578125 C 581.699219 341.300781 580.476562 341.992188 579.234375 342.652344 C 577.996094 343.316406 576.738281 343.949219 575.46875 344.546875 C 574.195312 345.148438 572.910156 345.71875 571.613281 346.257812 C 570.3125 346.792969 569 347.300781 567.675781 347.773438 C 566.351562 348.246094 565.015625 348.6875 563.671875 349.09375 C 562.324219 349.503906 560.96875 349.875 559.605469 350.21875 C 558.242188 350.558594 556.871094 350.867188 555.492188 351.140625 C 554.109375 351.414062 552.726562 351.65625 551.335938 351.863281 C 549.941406 352.066406 548.546875 352.238281 547.148438 352.378906 C 545.75 352.515625 544.347656 352.617188 542.941406 352.6875 C 541.535156 352.757812 540.132812 352.792969 538.722656 352.792969 C 537.316406 352.792969 535.914062 352.757812 534.507812 352.6875 C 533.101562 352.617188 531.699219 352.515625 530.300781 352.378906 C 528.902344 352.238281 527.503906 352.066406 526.113281 351.863281 C 524.722656 351.65625 523.335938 351.414062 521.957031 351.140625 C 520.578125 350.867188 519.207031 350.558594 517.84375 350.21875 C 516.476562 349.878906 515.125 349.503906 513.777344 349.09375 C 512.429688 348.6875 511.097656 348.246094 509.773438 347.773438 C 508.449219 347.300781 507.136719 346.792969 505.835938 346.257812 C 504.539062 345.71875 503.25 345.152344 501.980469 344.550781 C 500.707031 343.949219 499.453125 343.316406 498.210938 342.65625 C 496.972656 341.992188 495.75 341.300781 494.542969 340.578125 C 493.335938 339.855469 492.148438 339.105469 490.980469 338.324219 C 489.808594 337.542969 488.660156 336.734375 487.53125 335.898438 C 486.398438 335.0625 485.292969 334.199219 484.203125 333.308594 C 483.117188 332.414062 482.050781 331.5 481.011719 330.554688 C 479.96875 329.609375 478.949219 328.644531 477.957031 327.648438 C 476.960938 326.65625 475.992188 325.640625 475.046875 324.597656 C 474.101562 323.558594 473.183594 322.492188 472.292969 321.40625 C 471.398438 320.320312 470.535156 319.214844 469.695312 318.085938 C 468.859375 316.957031 468.046875 315.808594 467.265625 314.640625 C 466.484375 313.472656 465.734375 312.285156 465.011719 311.082031 C 464.289062 309.875 463.59375 308.65625 462.929688 307.414062 C 462.269531 306.175781 461.636719 304.921875 461.035156 303.652344 C 460.433594 302.382812 459.863281 301.097656 459.324219 299.800781 C 458.789062 298.503906 458.28125 297.191406 457.808594 295.871094 C 457.332031 294.546875 456.890625 293.214844 456.484375 291.867188 C 456.074219 290.523438 455.699219 289.171875 455.359375 287.808594 C 455.015625 286.445312 454.710938 285.074219 454.433594 283.695312 C 454.160156 282.320312 453.917969 280.9375 453.714844 279.546875 C 453.507812 278.15625 453.335938 276.761719 453.195312 275.363281 C 453.058594 273.964844 452.957031 272.566406 452.886719 271.164062 C 452.816406 269.757812 452.78125 268.355469 452.78125 266.949219 C 452.78125 265.546875 452.816406 264.140625 452.886719 262.738281 C 452.957031 261.335938 453.058594 259.933594 453.195312 258.535156 C 453.335938 257.136719 453.507812 255.746094 453.714844 254.355469 C 453.917969 252.964844 454.160156 251.582031 454.433594 250.203125 C 454.707031 248.824219 455.015625 247.453125 455.359375 246.09375 C 455.699219 244.730469 456.074219 243.375 456.484375 242.03125 C 456.890625 240.6875 457.332031 239.355469 457.804688 238.03125 C 458.28125 236.707031 458.785156 235.398438 459.324219 234.101562 C 459.863281 232.800781 460.433594 231.519531 461.035156 230.246094 C 461.636719 228.976562 462.265625 227.722656 462.929688 226.484375 C 463.59375 225.246094 464.285156 224.023438 465.007812 222.816406 C 465.730469 221.613281 466.484375 220.425781 467.265625 219.257812 C 468.046875 218.089844 468.855469 216.941406 469.695312 215.8125 C 470.53125 214.683594 471.398438 213.578125 472.289062 212.492188 C 473.183594 211.40625 474.101562 210.34375 475.042969 209.300781 C 475.988281 208.261719 476.957031 207.242188 477.953125 206.25 C 478.949219 205.257812 479.964844 204.289062 481.007812 203.34375 C 482.050781 202.402344 483.113281 201.484375 484.203125 200.59375 C 485.289062 199.703125 486.398438 198.835938 487.527344 198 C 488.65625 197.164062 489.804688 196.355469 490.976562 195.574219 C 492.144531 194.792969 493.332031 194.042969 494.539062 193.320312 C 495.746094 192.597656 496.96875 191.90625 498.210938 191.242188 C 499.449219 190.582031 500.707031 189.949219 501.976562 189.347656 C 503.25 188.75 504.535156 188.179688 505.832031 187.640625 C 507.132812 187.105469 508.445312 186.597656 509.769531 186.125 C 511.09375 185.652344 512.429688 185.210938 513.773438 184.804688 C 515.121094 184.394531 516.476562 184.019531 517.839844 183.679688 C 519.203125 183.339844 520.574219 183.03125 521.957031 182.757812 C 523.335938 182.480469 524.71875 182.242188 526.113281 182.035156 C 527.503906 181.828125 528.898438 181.65625 530.296875 181.519531 C 531.699219 181.382812 533.101562 181.277344 534.503906 181.210938 C 535.910156 181.140625 537.316406 181.105469 538.722656 181.105469 C 540.128906 181.105469 541.535156 181.140625 542.9375 181.210938 C 544.34375 181.277344 545.746094 181.382812 547.144531 181.519531 C 548.542969 181.65625 549.941406 181.828125 551.332031 182.035156 C 552.722656 182.242188 554.109375 182.480469 555.488281 182.753906 C 556.867188 183.03125 558.238281 183.335938 559.601562 183.679688 C 560.96875 184.019531 562.324219 184.394531 563.667969 184.800781 C 565.015625 185.210938 566.347656 185.652344 567.671875 186.125 C 568.996094 186.597656 570.308594 187.101562 571.609375 187.640625 C 572.910156 188.179688 574.195312 188.746094 575.464844 189.347656 C 576.738281 189.949219 577.992188 190.578125 579.234375 191.242188 C 580.472656 191.902344 581.695312 192.597656 582.902344 193.320312 C 584.109375 194.039062 585.296875 194.792969 586.46875 195.574219 C 587.636719 196.351562 588.785156 197.160156 589.917969 198 C 591.046875 198.835938 592.152344 199.699219 593.242188 200.589844 C 594.328125 201.480469 595.394531 202.398438 596.4375 203.34375 C 597.476562 204.285156 598.496094 205.253906 599.492188 206.246094 Z M 599.492188 206.246094 " fill-opacity="1" fill-rule="nonzero"/><path fill="#d1d1d6" d="M 538.726562 181.105469 C 540.679688 181.105469 542.613281 181.179688 544.535156 181.304688 C 499.78125 184.289062 464.40625 221.488281 464.40625 266.949219 C 464.40625 312.40625 499.78125 349.605469 544.535156 352.589844 C 542.613281 352.71875 540.679688 352.789062 538.726562 352.789062 C 491.261719 352.789062 452.785156 314.359375 452.785156 266.949219 C 452.785156 219.539062 491.261719 181.105469 538.726562 181.105469 Z M 538.726562 181.105469 " fill-opacity="1" fill-rule="evenodd"/><path fill="#ffe177" d="M 595.996094 341.550781 L 643.0625 422.980469 C 646.933594 429.675781 646.933594 437.753906 643.0625 444.449219 C 639.195312 451.144531 632.1875 455.183594 624.449219 455.183594 L 530.316406 455.183594 C 522.578125 455.183594 515.570312 451.144531 511.703125 444.449219 C 507.832031 437.753906 507.832031 429.675781 511.703125 422.980469 L 558.769531 341.550781 C 562.640625 334.855469 569.644531 330.816406 577.382812 330.816406 C 585.121094 330.816406 592.128906 334.855469 595.996094 341.550781 Z M 595.996094 341.550781 " fill-opacity="1" fill-rule="evenodd"/><path fill="#ffd064" d="M 595.996094 341.550781 L 643.0625 422.980469 C 646.933594 429.675781 646.933594 437.753906 643.0625 444.449219 C 639.195312 451.144531 632.191406 455.183594 624.449219 455.183594 L 611.808594 455.183594 C 619.546875 455.183594 626.550781 451.144531 630.421875 444.449219 C 634.292969 437.753906 634.292969 429.675781 630.421875 422.980469 L 583.355469 341.550781 C 580.578125 336.746094 576.183594 333.308594 571.0625 331.75 C 573.074219 331.136719 575.199219 330.816406 577.382812 330.816406 C 585.121094 330.816406 592.128906 334.855469 595.996094 341.550781 Z M 595.996094 341.550781 " fill-opacity="1" fill-rule="evenodd"/><path fill="#fe646f" d="M 577.382812 425.214844 C 581.363281 425.214844 584.59375 428.4375 584.59375 432.414062 C 584.59375 436.390625 581.363281 439.613281 577.382812 439.613281 C 573.402344 439.613281 570.175781 436.390625 570.175781 432.414062 C 570.175781 428.4375 573.402344 425.214844 577.382812 425.214844 Z M 577.382812 412.359375 C 574.355469 412.359375 571.867188 409.964844 571.761719 406.941406 L 570.339844 367.597656 C 570.28125 366.015625 570.8125 364.632812 571.910156 363.496094 C 573.011719 362.355469 574.375 361.777344 575.960938 361.777344 C 577.972656 361.777344 576.796875 361.777344 578.804688 361.777344 C 580.390625 361.777344 581.753906 362.355469 582.855469 363.496094 C 583.957031 364.632812 584.488281 366.015625 584.429688 367.597656 L 583.007812 406.941406 C 582.898438 409.964844 580.410156 412.359375 577.382812 412.359375 Z M 577.382812 412.359375 " fill-opacity="1" fill-rule="evenodd"/><path fill="#fd4755" d="M 577.382812 425.214844 C 578.183594 425.214844 578.957031 425.34375 579.675781 425.585938 C 576.820312 426.542969 574.761719 429.238281 574.761719 432.414062 C 574.761719 435.589844 576.820312 438.285156 579.675781 439.242188 C 578.957031 439.484375 578.183594 439.613281 577.382812 439.613281 C 573.402344 439.613281 570.175781 436.390625 570.175781 432.414062 C 570.175781 428.4375 573.402344 425.214844 577.382812 425.214844 Z M 577.382812 412.359375 C 574.355469 412.359375 571.867188 409.964844 571.757812 406.941406 L 570.335938 367.601562 C 570.28125 366.019531 570.808594 364.636719 571.910156 363.496094 C 573.011719 362.355469 574.375 361.777344 575.960938 361.777344 C 577.972656 361.777344 576.792969 361.777344 578.804688 361.777344 C 579.105469 361.777344 579.394531 361.796875 579.675781 361.839844 C 578.460938 362.015625 577.390625 362.570312 576.5 363.496094 C 575.398438 364.636719 574.867188 366.019531 574.925781 367.601562 L 576.347656 406.941406 C 576.429688 409.148438 577.777344 411.023438 579.675781 411.871094 C 578.976562 412.1875 578.199219 412.359375 577.382812 412.359375 Z M 577.382812 412.359375 " fill-opacity="1" fill-rule="evenodd"/><path fill="#ffe177" d="M 551.367188 214.039062 C 556.972656 215.375 562.324219 217.59375 567.230469 220.609375 L 577.542969 216.035156 L 589.691406 228.175781 L 585.113281 238.46875 C 588.136719 243.371094 590.359375 248.71875 591.691406 254.320312 L 602.210938 258.363281 L 602.210938 275.53125 L 591.691406 279.574219 C 590.445312 284.796875 588.429688 289.800781 585.710938 294.429688 L 586.019531 287.808594 C 586.230469 283.042969 582.828125 278.773438 578 278.007812 L 571.898438 277.035156 C 572.871094 273.84375 573.394531 270.457031 573.394531 266.949219 C 573.394531 247.820312 557.875 232.316406 538.722656 232.316406 C 530.75 232.316406 523.410156 235.003906 517.554688 239.523438 L 510.847656 238.453125 L 511.394531 226.675781 C 511.5 224.199219 510.648438 221.90625 509.167969 220.148438 L 510.214844 220.613281 C 515.121094 217.59375 520.476562 215.375 526.082031 214.042969 L 530.132812 203.535156 L 547.316406 203.535156 Z M 568.28125 313.75 C 566.800781 311.992188 565.949219 309.695312 566.054688 307.21875 L 566.601562 295.445312 L 559.894531 294.375 C 554.039062 298.890625 546.699219 301.582031 538.726562 301.582031 C 519.574219 301.582031 504.054688 286.078125 504.054688 266.949219 C 504.054688 263.441406 504.578125 260.054688 505.550781 256.863281 L 499.449219 255.890625 C 494.621094 255.125 491.21875 250.855469 491.429688 246.089844 L 491.738281 239.46875 L 491.734375 239.46875 C 489.019531 244.09375 487 249.097656 485.757812 254.320312 L 475.238281 258.367188 L 475.238281 275.53125 L 485.753906 279.574219 C 487.089844 285.171875 489.3125 290.523438 492.332031 295.425781 L 487.757812 305.71875 L 499.90625 317.859375 L 510.214844 313.285156 C 515.121094 316.300781 520.476562 318.523438 526.082031 319.855469 L 530.132812 330.363281 L 547.316406 330.363281 L 551.363281 319.855469 C 556.972656 318.523438 562.328125 316.304688 567.234375 313.285156 Z M 568.28125 313.75 " fill-opacity="1" fill-rule="evenodd"/><path fill="#ffd064" d="M 510.21875 313.285156 L 499.90625 317.855469 L 498.320312 316.273438 L 507.988281 311.984375 C 508.71875 312.433594 509.464844 312.867188 510.21875 313.285156 Z M 551.367188 214.039062 C 556.972656 215.375 562.324219 217.59375 567.230469 220.609375 L 564.300781 221.910156 C 559.394531 218.894531 551.808594 215.375 546.203125 214.039062 L 542.15625 203.53125 L 547.316406 203.53125 Z M 567.234375 313.285156 C 562.328125 316.304688 556.972656 318.523438 551.363281 319.855469 L 547.316406 330.363281 L 542.15625 330.363281 L 546.203125 319.855469 C 551.8125 318.523438 559.398438 315.003906 564.304688 311.984375 Z M 509.167969 220.144531 L 510.21875 220.613281 C 510.054688 220.703125 509.890625 220.792969 509.730469 220.882812 C 509.554688 220.628906 509.367188 220.382812 509.167969 220.148438 Z M 573.96875 217.621094 L 577.542969 216.035156 L 589.691406 228.175781 L 585.113281 238.46875 C 588.136719 243.371094 590.359375 248.71875 591.691406 254.320312 L 602.210938 258.363281 L 602.210938 275.53125 L 591.691406 279.574219 C 590.445312 284.796875 588.429688 289.800781 585.710938 294.429688 L 586.019531 287.808594 C 586.078125 286.414062 585.832031 285.0625 585.328125 283.828125 C 585.785156 282.429688 586.1875 281.007812 586.527344 279.574219 L 597.050781 275.53125 L 597.050781 258.363281 L 586.53125 254.320312 C 585.199219 248.71875 582.976562 243.371094 579.953125 238.46875 L 584.53125 228.175781 Z M 573.96875 217.621094 " fill-opacity="1" fill-rule="evenodd"/><g clip-path="url(#715b9a2ffc)"><path fill="#000000" d="M 516.128906 223.101562 C 519.664062 221.289062 523.378906 219.910156 527.242188 218.988281 C 528.890625 218.597656 530.242188 217.433594 530.839844 215.871094 L 533.625 208.621094 L 543.8125 208.621094 L 546.601562 215.871094 C 547.199219 217.433594 548.546875 218.597656 550.164062 218.988281 C 555.261719 220.195312 560.082031 222.199219 564.546875 224.945312 C 565.988281 225.824219 567.753906 225.941406 569.28125 225.261719 L 576.414062 222.101562 L 583.605469 229.300781 L 580.460938 236.402344 C 579.769531 237.9375 579.890625 239.710938 580.757812 241.132812 C 583.515625 245.589844 585.523438 250.421875 586.722656 255.496094 C 587.113281 257.132812 588.28125 258.46875 589.867188 259.066406 L 597.121094 261.855469 L 597.121094 272.035156 L 589.839844 274.828125 C 588.640625 275.292969 587.652344 276.203125 587.113281 277.347656 C 584.953125 275.089844 582.078125 273.507812 578.78125 272.984375 L 578.03125 272.863281 C 578.332031 270.910156 578.480469 268.933594 578.480469 266.945312 C 578.480469 245.042969 560.652344 227.226562 538.71875 227.226562 C 530.601562 227.226562 522.871094 229.617188 516.25 234.164062 L 516.128906 234.144531 L 516.457031 226.890625 C 516.515625 225.605469 516.425781 224.335938 516.128906 223.101562 Z M 506.300781 226.4375 L 505.761719 238.214844 C 505.640625 240.804688 507.46875 243.066406 510.046875 243.472656 L 516.757812 244.542969 C 518.136719 244.765625 519.542969 244.402344 520.652344 243.542969 C 525.867188 239.527344 532.097656 237.402344 538.71875 237.402344 C 555.019531 237.402344 568.292969 250.652344 568.292969 266.945312 C 568.292969 269.875 567.875 272.773438 567.007812 275.554688 C 566.585938 276.957031 566.796875 278.484375 567.574219 279.730469 C 568.355469 280.976562 569.644531 281.824219 571.082031 282.058594 L 577.195312 283.03125 C 579.410156 283.378906 581.027344 285.339844 580.9375 287.570312 L 580.609375 294.191406 C 580.519531 296.53125 582.019531 298.636719 584.265625 299.304688 C 584.746094 299.441406 585.222656 299.511719 585.703125 299.511719 C 587.472656 299.511719 589.148438 298.582031 590.078125 297 C 592.625 292.714844 594.570312 288.144531 595.949219 283.386719 L 604.042969 280.277344 C 605.988281 279.523438 607.308594 277.632812 607.308594 275.527344 L 607.308594 258.367188 C 607.308594 256.261719 605.988281 254.371094 604.042969 253.617188 L 595.949219 250.507812 C 594.722656 246.207031 592.984375 242.070312 590.828125 238.152344 L 594.332031 230.242188 C 595.203125 228.316406 594.78125 226.0625 593.285156 224.578125 L 581.148438 212.441406 C 579.652344 210.957031 577.402344 210.535156 575.457031 211.390625 L 567.546875 214.90625 C 563.621094 212.738281 559.484375 211.019531 555.171875 209.785156 L 552.054688 201.703125 C 551.304688 199.742188 549.417969 198.449219 547.320312 198.449219 L 530.121094 198.449219 C 528.023438 198.449219 526.136719 199.742188 525.355469 201.703125 L 522.269531 209.785156 C 517.835938 211.050781 513.609375 212.824219 509.597656 215.078125 C 507.886719 214.929688 506.179688 215.664062 505.101562 217.085938 C 503.664062 218.980469 503.753906 221.605469 505.25 223.417969 C 505.96875 224.269531 506.328125 225.34375 506.300781 226.4375 Z M 550.167969 314.90625 C 554.03125 313.984375 557.777344 312.605469 561.28125 310.792969 C 561.011719 309.558594 560.894531 308.289062 560.953125 306.996094 L 561.28125 299.75 L 561.164062 299.730469 C 554.542969 304.277344 546.839844 306.667969 538.71875 306.667969 C 516.785156 306.667969 498.957031 288.851562 498.957031 266.945312 C 498.957031 264.960938 499.109375 262.984375 499.378906 261.03125 L 498.628906 260.910156 C 495.363281 260.386719 492.484375 258.804688 490.328125 256.546875 C 489.757812 257.691406 488.800781 258.601562 487.570312 259.066406 L 480.320312 261.859375 L 480.320312 272.039062 L 487.570312 274.832031 C 489.160156 275.425781 490.296875 276.761719 490.6875 278.398438 C 491.917969 283.472656 493.925781 288.304688 496.652344 292.753906 C 497.550781 294.1875 497.667969 295.960938 496.980469 297.492188 L 493.835938 304.59375 L 501.027344 311.792969 L 508.15625 308.632812 C 509.683594 307.953125 511.453125 308.074219 512.890625 308.949219 C 517.355469 311.691406 522.179688 313.695312 527.242188 314.902344 C 528.890625 315.289062 530.242188 316.460938 530.839844 318.023438 L 533.625 325.273438 L 543.8125 325.273438 L 546.601562 318.03125 C 547.199219 316.460938 548.550781 315.296875 550.167969 314.90625 Z M 567.84375 318.816406 C 569.554688 318.953125 571.261719 318.234375 572.339844 316.800781 C 573.777344 314.90625 573.6875 312.28125 572.160156 310.46875 C 571.441406 309.621094 571.082031 308.546875 571.140625 307.457031 L 571.679688 295.679688 C 571.800781 293.089844 569.972656 290.828125 567.394531 290.417969 L 560.683594 289.351562 C 559.304688 289.128906 557.898438 289.492188 556.789062 290.34375 C 551.574219 294.367188 545.3125 296.492188 538.71875 296.492188 C 522.390625 296.492188 509.144531 283.234375 509.144531 266.945312 C 509.144531 264.019531 509.566406 261.117188 510.40625 258.339844 C 510.855469 256.933594 510.644531 255.410156 509.867188 254.164062 C 509.085938 252.917969 507.796875 252.070312 506.328125 251.835938 L 500.246094 250.863281 C 498.03125 250.511719 496.410156 248.554688 496.5 246.324219 L 496.832031 239.703125 C 496.921875 237.363281 495.421875 235.253906 493.175781 234.589844 C 490.929688 233.921875 488.53125 234.871094 487.332031 236.894531 C 484.816406 241.179688 482.867188 245.75 481.492188 250.507812 L 473.402344 253.617188 C 471.421875 254.371094 470.132812 256.261719 470.132812 258.367188 L 470.132812 275.527344 C 470.132812 277.632812 471.421875 279.519531 473.402344 280.277344 L 481.492188 283.386719 C 482.71875 287.683594 484.425781 291.824219 486.613281 295.742188 L 483.109375 303.652344 C 482.238281 305.578125 482.660156 307.828125 484.15625 309.316406 L 496.292969 321.449219 C 497.792969 322.9375 500.039062 323.355469 501.957031 322.503906 L 509.894531 318.988281 C 513.820312 321.15625 517.957031 322.871094 522.269531 324.105469 L 525.355469 332.1875 C 526.136719 334.148438 528.023438 335.445312 530.121094 335.445312 L 547.320312 335.445312 C 549.417969 335.445312 551.304688 334.148438 552.054688 332.1875 L 555.171875 324.113281 C 559.605469 322.84375 563.832031 321.070312 567.84375 318.816406 Z M 575.546875 367.015625 C 575.726562 366.863281 575.90625 366.863281 575.964844 366.863281 L 578.8125 366.863281 C 578.871094 366.863281 579.050781 366.863281 579.203125 367.015625 C 579.351562 367.167969 579.320312 367.351562 579.320312 367.410156 L 577.914062 406.757812 C 577.882812 407.046875 577.671875 407.273438 577.375 407.273438 C 577.074219 407.273438 576.863281 407.046875 576.835938 406.757812 L 575.425781 367.417969 C 575.425781 367.351562 575.425781 367.167969 575.546875 367.015625 Z M 577.375 417.449219 C 583.1875 417.449219 587.890625 412.914062 588.101562 407.125 L 589.507812 367.78125 C 589.628906 364.839844 588.550781 362.058594 586.511719 359.953125 C 584.476562 357.847656 581.75 356.691406 578.8125 356.691406 L 575.964844 356.691406 C 573 356.691406 570.273438 357.847656 568.234375 359.953125 C 566.195312 362.054688 565.117188 364.839844 565.238281 367.78125 L 566.648438 407.125 C 566.855469 412.914062 571.5625 417.449219 577.375 417.449219 Z M 577.375 434.527344 C 576.203125 434.527344 575.246094 433.578125 575.246094 432.410156 C 575.246094 431.246094 576.203125 430.296875 577.375 430.296875 C 578.542969 430.296875 579.5 431.246094 579.5 432.410156 C 579.5 433.578125 578.542969 434.527344 577.375 434.527344 Z M 577.375 420.125 C 570.601562 420.125 565.089844 425.636719 565.089844 432.410156 C 565.089844 439.1875 570.601562 444.703125 577.375 444.703125 C 584.175781 444.703125 589.6875 439.1875 589.6875 432.410156 C 589.6875 425.636719 584.175781 420.125 577.375 420.125 Z M 638.648438 441.902344 C 641.617188 436.769531 641.617188 430.648438 638.648438 425.523438 L 591.578125 344.09375 C 588.609375 338.960938 583.308594 335.898438 577.375 335.898438 C 571.441406 335.898438 566.136719 338.960938 563.171875 344.09375 L 516.097656 425.523438 C 513.132812 430.648438 513.132812 436.773438 516.097656 441.902344 C 519.0625 447.035156 524.367188 450.09375 530.300781 450.09375 L 624.445312 450.09375 C 630.378906 450.09375 635.683594 447.035156 638.648438 441.902344 Z M 549.777344 346.941406 L 554.363281 339.007812 C 559.15625 330.691406 567.753906 325.722656 577.375 325.722656 C 582.046875 325.722656 586.484375 326.90625 590.347656 329.074219 C 608.957031 313.667969 619.5625 291.226562 619.5625 266.945312 C 619.5625 222.421875 583.308594 186.1875 538.71875 186.1875 C 494.136719 186.1875 457.878906 222.421875 457.878906 266.945312 C 457.878906 311.472656 494.136719 347.699219 538.71875 347.699219 C 542.40625 347.699219 546.121094 347.4375 549.777344 346.941406 Z M 436.574219 266.945312 C 436.574219 322.644531 481.492188 368.058594 537.042969 368.957031 L 543.515625 357.746094 C 541.925781 357.828125 540.308594 357.871094 538.722656 357.871094 C 488.53125 357.871094 447.691406 317.082031 447.691406 266.945312 C 447.691406 216.804688 488.53125 176.015625 538.722656 176.015625 C 588.910156 176.015625 629.75 216.804688 629.75 266.945312 C 629.75 293.699219 618.335938 318.472656 598.199219 335.777344 C 599.007812 336.789062 599.726562 337.863281 600.386719 339.007812 L 604.070312 345.363281 C 627.535156 325.90625 640.867188 297.644531 640.867188 266.945312 C 640.867188 210.6875 595.050781 164.910156 538.722656 164.910156 C 482.390625 164.914062 436.574219 210.6875 436.574219 266.945312 Z M 436.183594 373.152344 L 424.441406 361.058594 L 450.269531 336.03125 C 453.742188 340.460938 457.550781 344.621094 461.625 348.488281 Z M 433.519531 391.714844 C 434.417969 390.855469 434.925781 389.691406 434.925781 388.445312 C 434.957031 387.191406 434.476562 386.015625 433.636719 385.132812 L 412.363281 363.246094 C 411.523438 362.363281 410.355469 361.867188 409.097656 361.847656 C 409.066406 361.847656 409.039062 361.847656 409.007812 361.847656 C 407.808594 361.847656 406.640625 362.304688 405.773438 363.144531 L 346.894531 420.230469 C 345.035156 422.011719 345.007812 424.960938 346.773438 426.808594 L 368.050781 448.695312 C 369.847656 450.53125 372.785156 450.574219 374.640625 448.789062 Z M 647.457031 420.4375 L 609.226562 354.28125 C 621.390625 344.449219 631.546875 332.0625 638.679688 318.195312 C 646.890625 302.246094 651.054688 285.003906 651.054688 266.945312 C 651.054688 205.074219 600.65625 154.738281 538.71875 154.738281 C 476.785156 154.738281 426.386719 205.074219 426.386719 266.945312 C 426.386719 289.292969 432.949219 310.136719 444.273438 327.644531 L 417.070312 354.03125 C 414.761719 352.546875 412.0625 351.71875 409.246094 351.671875 C 405.261719 351.605469 401.515625 353.097656 398.699219 355.84375 L 339.792969 412.925781 C 333.921875 418.625 333.769531 428.027344 339.492188 433.890625 L 360.738281 455.777344 C 363.644531 458.773438 367.507812 460.273438 371.40625 460.273438 C 375.121094 460.273438 378.867188 458.886719 381.742188 456.097656 L 440.621094 399.011719 C 443.464844 396.261719 445.054688 392.566406 445.113281 388.597656 C 445.175781 385.773438 444.425781 383.066406 442.988281 380.71875 L 469.386719 355.15625 C 486.644531 368.746094 508.007812 377.375 531.289062 378.902344 L 507.289062 420.4375 C 502.496094 428.746094 502.496094 438.679688 507.289062 446.992188 C 512.082031 455.308594 520.710938 460.269531 530.300781 460.269531 L 624.445312 460.269531 C 634.066406 460.269531 642.664062 455.308594 647.457031 446.992188 C 652.28125 438.679688 652.28125 428.746094 647.457031 420.4375 Z M 647.457031 420.4375 " fill-opacity="1" fill-rule="evenodd"/></g></svg>