<svg xmlns="http://www.w3.org/2000/svg" xmlns:xlink="http://www.w3.org/1999/xlink" width="1366" zoomAndPan="magnify" viewBox="0 0 1024.5 576" height="768" preserveAspectRatio="xMidYMid meet" version="1.0"><defs><clipPath id="1f3a89a751"><path d="M 0 0.140625 L 1024 0.140625 L 1024 575.859375 L 0 575.859375 Z M 0 0.140625 " clip-rule="nonzero"/></clipPath><clipPath id="b6cbe06469"><path d="M 307.03125 127.609375 L 717.082031 127.609375 L 717.082031 448 L 307.03125 448 Z M 307.03125 127.609375 " clip-rule="nonzero"/></clipPath></defs><g clip-path="url(#1f3a89a751)"><path fill="#ffffff" d="M 0 0.140625 L 1024 0.140625 L 1024 575.859375 L 0 575.859375 Z M 0 0.140625 " fill-opacity="1" fill-rule="nonzero"/><path fill="#fdfeff" d="M 0 0.140625 L 1024 0.140625 L 1024 575.859375 L 0 575.859375 Z M 0 0.140625 " fill-opacity="1" fill-rule="nonzero"/></g><g clip-path="url(#b6cbe06469)"><path fill="#f7f4ed" d="M 717.082031 147.671875 C 712.984375 164.140625 709.949219 180.9375 707.492188 197.734375 C 703.476562 224.859375 703.394531 252.308594 699.871094 279.511719 C 698.152344 292.867188 695.855469 306.140625 693.398438 319.414062 C 693.398438 336.214844 693.316406 353.011719 693.5625 369.808594 C 693.726562 382.507812 694.792969 395.535156 693.644531 408.238281 C 693.644531 408.484375 693.480469 408.648438 693.234375 408.648438 C 688.316406 408.648438 683.484375 408.566406 678.566406 408.484375 C 676.191406 420.773438 673.648438 433.066406 670.78125 445.273438 C 670.78125 445.4375 670.617188 445.519531 670.535156 445.519531 C 660.539062 448.386719 648.246094 448.222656 638.90625 443.144531 C 638.824219 443.144531 638.742188 443.0625 638.660156 442.980469 C 636.527344 441.75 634.480469 440.277344 632.757812 438.554688 C 632.023438 437.816406 631.449219 437.242188 631.121094 436.753906 C 622.433594 438.144531 612.847656 437.242188 605.226562 433.066406 C 605.144531 433.066406 605.0625 432.984375 604.980469 432.902344 C 602.851562 431.671875 600.800781 430.195312 599.082031 428.476562 C 597.933594 427.328125 597.359375 426.671875 597.03125 426.019531 C 596.703125 426.019531 596.457031 425.445312 596.867188 425.199219 C 596.867188 424.460938 597.113281 423.640625 597.441406 422.25 C 598.507812 417.988281 599.488281 413.726562 600.472656 409.546875 C 600.636719 408.8125 600.800781 408.15625 600.964844 407.417969 C 572.449219 407.007812 543.933594 406.597656 515.414062 406.925781 C 485.015625 407.253906 454.53125 408.320312 424.128906 408.566406 C 385.453125 408.8125 346.855469 407.664062 308.175781 407.089844 C 307.933594 407.089844 307.769531 406.925781 307.769531 406.679688 C 307.769531 378.492188 308.585938 350.386719 307.851562 322.203125 C 307.03125 294.261719 307.523438 266.320312 307.523438 238.460938 C 307.523438 212.074219 307.523438 185.609375 307.523438 159.226562 C 307.523438 158.980469 307.6875 158.816406 307.933594 158.816406 C 316.207031 158.816406 324.402344 158.898438 332.679688 158.898438 C 369.800781 158.980469 407.003906 159.144531 444.125 159.308594 C 471.246094 159.390625 498.371094 159.308594 525.496094 159.714844 C 535.082031 159.878906 544.75 159.796875 554.339844 159.796875 C 582.035156 159.796875 609.816406 159.796875 637.511719 159.796875 C 638.824219 149.226562 640.132812 138.738281 641.445312 128.171875 C 641.445312 128.171875 641.445312 128.171875 641.445312 128.089844 C 641.445312 128.007812 641.445312 128.007812 641.527344 127.925781 C 641.527344 127.925781 641.609375 127.84375 641.609375 127.84375 C 641.691406 127.679688 641.855469 127.679688 642.019531 127.679688 C 655.867188 130.136719 669.632812 133.167969 683.074219 137.101562 C 683.320312 137.183594 683.402344 137.429688 683.402344 137.675781 C 683.320312 138.167969 683.15625 138.65625 683.074219 139.148438 C 694.464844 141.363281 705.773438 143.984375 716.835938 147.179688 C 717 147.179688 717.082031 147.425781 717.082031 147.671875 Z M 717.082031 147.671875 " fill-opacity="1" fill-rule="nonzero"/><path fill="#6e6057" d="M 600.964844 407.417969 C 572.449219 407.007812 543.933594 406.597656 515.414062 406.925781 C 485.011719 407.253906 454.53125 408.320312 424.128906 408.566406 C 385.453125 408.8125 346.855469 407.664062 308.175781 407.089844 C 307.933594 407.089844 307.769531 406.925781 307.769531 406.679688 C 307.769531 378.492188 308.585938 350.386719 307.851562 322.285156 C 307.03125 294.34375 307.523438 266.402344 307.523438 238.542969 C 307.523438 212.15625 307.523438 185.691406 307.523438 159.308594 C 307.523438 159.0625 307.6875 158.898438 307.933594 158.898438 C 316.207031 158.816406 324.402344 158.816406 332.679688 158.816406 C 369.800781 158.898438 407.003906 159.0625 444.125 159.226562 C 471.246094 159.308594 498.371094 159.226562 525.496094 159.632812 C 535.082031 159.796875 544.75 159.714844 554.339844 159.714844 C 582.035156 159.714844 609.816406 159.714844 637.511719 159.714844 C 637.511719 159.960938 637.429688 160.289062 637.429688 160.535156 C 600.144531 160.617188 562.777344 160.945312 525.496094 160.453125 C 521.480469 160.371094 517.382812 160.371094 513.367188 160.371094 C 472.066406 160.125 430.765625 160.042969 389.464844 159.878906 C 369.636719 159.796875 349.804688 159.714844 329.976562 159.714844 C 324.238281 159.714844 318.421875 159.714844 312.683594 159.632812 C 311.292969 159.632812 309.980469 159.632812 308.585938 159.632812 C 308.503906 159.632812 308.421875 159.632812 308.339844 159.632812 C 307.6875 163.648438 308.339844 168.238281 308.339844 172.335938 C 308.339844 180.855469 308.339844 189.460938 308.339844 197.980469 C 308.339844 220.023438 308.339844 242.066406 308.339844 264.105469 C 308.339844 306.46875 309.40625 348.832031 308.667969 391.195312 C 308.585938 395.78125 309.40625 401.027344 308.585938 405.453125 C 308.503906 405.777344 308.585938 406.023438 308.585938 406.1875 C 308.585938 406.1875 308.667969 406.1875 308.667969 406.1875 C 309.40625 406.351562 310.308594 406.1875 311.046875 406.1875 C 319.8125 406.351562 328.582031 406.433594 337.351562 406.597656 C 362.097656 406.925781 386.84375 407.335938 411.589844 407.582031 C 438.304688 407.910156 465.101562 406.761719 491.816406 406.351562 C 528.28125 405.699219 564.664062 406.105469 601.128906 406.597656 C 601.128906 406.925781 601.046875 407.171875 600.964844 407.417969 Z M 636.363281 169.386719 C 636.363281 169.058594 636.445312 168.8125 636.445312 168.484375 C 610.714844 168.484375 585.066406 168.484375 559.335938 168.484375 C 524.347656 168.484375 489.4375 168.484375 454.449219 168.484375 C 424.375 168.484375 394.21875 168.484375 364.144531 168.484375 C 354.148438 168.484375 344.234375 168.484375 334.234375 168.484375 C 331.121094 168.484375 328.089844 168.484375 324.976562 168.484375 C 323.582031 168.484375 321.371094 168.074219 320.058594 168.484375 C 319.894531 168.566406 319.648438 168.484375 319.484375 168.484375 C 319.238281 168.484375 319.078125 168.648438 319.078125 168.894531 C 319.078125 194.867188 319.078125 220.761719 319.078125 246.652344 C 319.078125 287.789062 319.078125 328.921875 319.078125 370.054688 C 319.078125 379.476562 319.078125 388.898438 319.078125 398.324219 C 319.078125 398.570312 319.238281 398.734375 319.484375 398.734375 C 331.53125 398.734375 343.578125 398.734375 355.625 398.734375 C 384.386719 398.734375 413.230469 398.734375 441.992188 398.734375 C 476.902344 398.734375 511.890625 398.734375 546.882812 398.734375 C 565.566406 398.734375 584.25 398.734375 603.011719 398.734375 C 603.09375 398.488281 603.09375 398.160156 603.175781 397.914062 C 600.390625 397.914062 597.605469 397.914062 594.820312 397.914062 C 567.449219 397.914062 540.082031 397.914062 512.710938 397.914062 C 484.441406 397.914062 456.085938 397.914062 427.816406 397.914062 C 404.707031 397.914062 381.519531 397.914062 358.410156 397.914062 C 346.117188 397.914062 333.828125 397.914062 321.535156 397.914062 C 321.207031 397.914062 320.386719 398.078125 319.894531 397.996094 C 320.304688 397.914062 319.976562 396.929688 319.976562 396.027344 C 319.976562 389.964844 319.976562 383.902344 319.976562 377.839844 C 319.976562 353.746094 319.976562 329.574219 319.976562 305.484375 C 319.976562 277.789062 319.976562 250.011719 319.976562 222.316406 C 319.976562 205.355469 319.976562 188.394531 319.976562 171.433594 C 319.976562 170.53125 320.304688 169.304688 319.894531 169.222656 C 320.386719 169.140625 321.125 169.304688 321.453125 169.304688 C 325.796875 169.304688 330.058594 169.304688 334.316406 169.304688 C 352.589844 169.304688 370.863281 169.304688 389.140625 169.304688 C 415.605469 169.304688 441.992188 169.304688 468.460938 169.304688 C 496.976562 169.304688 525.496094 169.304688 554.011719 169.304688 C 579.003906 169.304688 603.996094 169.304688 628.90625 169.304688 C 631.449219 169.386719 633.90625 169.386719 636.363281 169.386719 Z M 499.109375 306.878906 C 501.648438 303.027344 504.1875 299.09375 506.730469 295.242188 C 506.730469 295.160156 506.8125 295.160156 506.8125 295.160156 C 506.894531 294.996094 507.136719 294.996094 507.300781 295.078125 C 511.070312 297.539062 514.839844 299.996094 518.609375 302.453125 C 518.773438 302.535156 518.855469 302.863281 518.773438 303.027344 C 516.234375 306.960938 513.695312 310.8125 511.152344 314.746094 C 510.988281 314.910156 510.746094 315.074219 510.582031 314.910156 C 508.695312 313.679688 506.730469 312.449219 504.84375 311.140625 C 502.960938 309.910156 501.15625 308.679688 499.273438 307.535156 C 499.109375 307.289062 499.027344 307.042969 499.109375 306.878906 Z M 500.664062 305.402344 C 501.074219 305.648438 501.484375 305.976562 501.894531 306.222656 C 501.976562 306.304688 502.058594 306.304688 502.058594 306.386719 C 502.550781 305.894531 502.960938 304.914062 503.207031 304.421875 C 504.1875 302.945312 505.171875 301.390625 506.15625 299.914062 C 506.320312 299.75 506.566406 299.585938 506.730469 299.75 C 507.957031 300.570312 509.1875 301.390625 510.417969 302.125 C 510.5 302.125 510.5 302.207031 510.582031 302.207031 C 511.808594 303.027344 513.039062 303.847656 514.351562 304.667969 C 514.511719 304.75 514.675781 305.078125 514.511719 305.238281 C 513.449219 306.796875 512.464844 308.355469 511.398438 309.992188 C 511.152344 310.320312 510.417969 311.140625 510.171875 311.714844 C 510.417969 311.46875 510.988281 312.042969 511.480469 312.449219 C 511.480469 312.449219 511.480469 312.367188 511.5625 312.367188 C 512.464844 311.058594 513.285156 309.664062 514.1875 308.355469 C 515.085938 306.960938 517.792969 304.175781 517.957031 302.535156 C 517.875 303.355469 517.136719 302.453125 516.234375 301.878906 C 515.085938 301.144531 513.941406 300.40625 512.792969 299.667969 C 510.90625 298.4375 509.023438 297.210938 507.136719 295.980469 C 505.992188 297.785156 504.761719 299.585938 503.613281 301.472656 C 503.042969 302.371094 501.566406 304.011719 500.664062 305.402344 Z M 499.925781 307.207031 C 500.007812 306.386719 500.746094 307.289062 501.648438 307.863281 C 502.796875 308.601562 503.941406 309.335938 505.089844 310.15625 C 505.171875 310.15625 505.171875 310.238281 505.253906 310.238281 C 505.253906 310.238281 505.335938 310.238281 505.335938 310.320312 C 506.648438 311.140625 507.875 311.960938 509.1875 312.777344 C 509.433594 312.941406 510.335938 313.433594 510.746094 313.761719 C 510.824219 313.597656 510.988281 313.351562 511.152344 313.105469 C 510.664062 312.777344 510.171875 312.449219 509.597656 312.121094 C 509.433594 311.960938 509.269531 311.714844 509.433594 311.550781 C 510.664062 309.582031 511.808594 307.535156 513.285156 305.730469 C 513.367188 305.648438 513.53125 305.320312 513.613281 305.15625 C 513.53125 305.078125 513.449219 304.996094 513.367188 304.996094 C 512.300781 304.585938 511.234375 303.601562 510.253906 302.945312 C 509.351562 302.371094 507.710938 301.636719 506.976562 300.816406 C 506.894531 300.734375 506.8125 300.652344 506.8125 300.652344 C 506.648438 300.898438 506.484375 301.226562 506.402344 301.390625 C 505.171875 303.273438 503.941406 305.15625 502.714844 307.042969 C 502.550781 307.207031 502.304688 307.289062 502.140625 307.207031 C 501.566406 306.796875 500.992188 306.46875 500.417969 306.058594 C 500.089844 306.550781 499.925781 306.960938 499.925781 307.207031 Z M 518.773438 330.3125 C 518.9375 330.558594 518.773438 330.804688 518.609375 330.886719 C 514.839844 333.34375 511.070312 335.804688 507.300781 338.261719 C 507.136719 338.425781 506.894531 338.34375 506.8125 338.179688 C 506.8125 338.179688 506.730469 338.097656 506.730469 338.097656 C 504.1875 334.246094 501.648438 330.3125 499.109375 326.460938 C 498.945312 326.214844 499.109375 325.96875 499.273438 325.890625 C 501.074219 324.742188 502.878906 323.511719 504.761719 322.367188 C 504.761719 322.285156 504.84375 322.285156 504.925781 322.285156 C 506.8125 321.054688 508.695312 319.824219 510.664062 318.597656 C 510.90625 318.433594 511.152344 318.597656 511.234375 318.761719 C 513.695312 322.527344 516.316406 326.460938 518.773438 330.3125 Z M 500.253906 327.117188 C 500.828125 326.707031 501.402344 326.378906 501.976562 325.96875 C 502.222656 325.808594 502.46875 325.96875 502.550781 326.132812 C 503.777344 328.101562 505.253906 329.984375 506.402344 331.953125 C 506.484375 332.117188 506.648438 332.28125 506.730469 332.445312 C 506.8125 332.363281 506.976562 332.363281 507.058594 332.28125 C 507.875 331.460938 509.1875 330.886719 510.171875 330.230469 C 511.070312 329.574219 512.300781 328.429688 513.449219 328.101562 C 513.53125 328.101562 513.613281 328.019531 513.613281 328.019531 C 513.449219 327.773438 513.203125 327.527344 513.121094 327.28125 C 511.890625 325.398438 510.664062 323.511719 509.433594 321.628906 C 509.269531 321.382812 509.433594 321.136719 509.597656 321.054688 C 510.089844 320.726562 510.664062 320.398438 511.152344 320.070312 C 510.988281 319.824219 510.824219 319.578125 510.746094 319.414062 C 510.417969 319.742188 509.433594 320.234375 509.1875 320.398438 C 507.792969 321.300781 506.484375 322.203125 505.089844 323.101562 C 503.859375 323.921875 502.632812 324.742188 501.402344 325.480469 C 500.664062 325.96875 500.171875 326.625 500.007812 326.296875 C 500.007812 326.542969 500.089844 326.871094 500.253906 327.117188 Z M 518.039062 330.722656 C 517.875 329.167969 515.085938 326.214844 514.269531 324.90625 C 513.367188 323.59375 512.546875 322.203125 511.644531 320.890625 C 511.644531 320.890625 511.5625 320.808594 511.5625 320.808594 C 511.316406 320.972656 510.988281 321.21875 510.746094 321.300781 C 510.5 321.382812 510.335938 321.546875 510.253906 321.546875 C 510.5 322.121094 511.152344 322.855469 511.398438 323.183594 C 512.464844 324.742188 513.449219 326.296875 514.511719 327.9375 C 514.675781 328.183594 514.511719 328.429688 514.351562 328.511719 C 513.121094 329.332031 511.890625 330.148438 510.582031 330.96875 C 510.582031 330.96875 510.5 331.050781 510.417969 331.050781 C 509.1875 331.871094 507.957031 332.691406 506.730469 333.425781 C 506.484375 333.589844 506.238281 333.425781 506.15625 333.261719 C 505.171875 331.789062 504.1875 330.230469 503.207031 328.757812 C 502.878906 328.265625 502.46875 327.28125 502.058594 326.789062 C 502.058594 326.789062 501.976562 326.871094 501.894531 326.953125 C 501.484375 327.199219 501.074219 327.527344 500.664062 327.773438 C 501.566406 329.25 503.042969 330.804688 503.613281 331.707031 C 504.761719 333.507812 505.992188 335.3125 507.136719 337.195312 C 509.023438 335.96875 510.90625 334.738281 512.792969 333.507812 C 513.941406 332.773438 515.085938 332.035156 516.234375 331.296875 C 517.21875 330.804688 517.957031 329.902344 518.039062 330.722656 Z M 513.695312 328.019531 C 513.859375 327.9375 513.777344 327.855469 513.695312 328.019531 Z M 613.996094 347.847656 C 613.996094 325.726562 613.996094 303.683594 613.996094 281.558594 C 596.292969 281.558594 578.59375 281.558594 560.8125 281.558594 C 560.8125 296.144531 560.8125 310.8125 560.8125 325.398438 C 560.8125 326.214844 559.5 326.214844 559.5 325.398438 C 559.5 321.792969 559.5 318.269531 559.5 314.664062 C 559.5 303.601562 559.5 292.621094 559.5 281.558594 C 556.140625 281.558594 552.699219 281.558594 549.339844 281.558594 C 549.339844 286.3125 549.339844 291.148438 549.339844 295.898438 C 549.339844 296.144531 549.175781 296.308594 548.929688 296.308594 C 540.328125 296.308594 530.820312 290.902344 530.328125 281.476562 C 506.320312 281.476562 482.308594 281.476562 458.300781 281.476562 C 458.300781 288.359375 458.300781 295.324219 458.300781 302.207031 C 458.300781 321.546875 458.300781 340.800781 458.300781 360.140625 C 462.316406 360.140625 466.25 360.140625 470.265625 360.140625 C 470.265625 359.894531 470.265625 359.648438 470.265625 359.320312 C 470.265625 359.074219 470.425781 358.910156 470.671875 358.910156 C 476 358.910156 481.40625 358.910156 486.816406 358.910156 C 525.414062 358.910156 564.007812 358.910156 602.605469 358.910156 C 602.851562 358.910156 603.011719 359.074219 603.011719 359.320312 C 603.011719 359.566406 603.011719 359.8125 603.011719 360.140625 C 605.636719 360.140625 609.078125 359.566406 611.863281 359.894531 C 611.78125 360.386719 611.617188 360.957031 611.535156 361.449219 C 608.667969 361.449219 605.882812 361.449219 603.011719 361.449219 C 603.011719 361.695312 603.011719 361.941406 603.011719 362.269531 C 603.011719 362.351562 602.933594 362.433594 602.933594 362.515625 C 602.851562 362.597656 602.769531 362.597656 602.6875 362.597656 C 597.277344 362.597656 591.949219 362.597656 586.542969 362.597656 C 547.945312 362.597656 509.351562 362.597656 470.753906 362.597656 C 470.507812 362.597656 470.34375 362.433594 470.34375 362.1875 C 470.34375 361.941406 470.34375 361.695312 470.34375 361.367188 C 462.152344 361.367188 453.875 361.367188 445.597656 361.367188 C 445.1875 371.28125 434.699219 376.609375 425.769531 376.609375 C 425.523438 376.609375 425.359375 376.445312 425.359375 376.199219 C 425.359375 371.28125 425.359375 366.285156 425.359375 361.367188 C 411.019531 361.367188 396.675781 361.367188 382.253906 361.367188 C 381.925781 361.367188 381.601562 361.039062 381.601562 360.710938 C 381.601562 349.40625 381.601562 338.097656 381.601562 326.789062 C 381.601562 323.59375 381.601562 320.398438 381.601562 317.203125 C 381.601562 294.914062 381.601562 272.628906 381.601562 250.421875 C 381.601562 249.605469 382.910156 249.605469 382.910156 250.421875 C 382.910156 260.746094 382.910156 271.070312 382.910156 281.3125 C 382.910156 294.261719 382.910156 307.289062 382.910156 320.234375 C 382.910156 321.875 383.15625 323.675781 382.910156 325.316406 C 382.828125 325.726562 382.828125 326.050781 382.910156 326.214844 C 385.695312 326.460938 388.730469 326.132812 391.433594 326.132812 C 413.3125 326.132812 435.191406 326.132812 457.070312 326.132812 C 457.070312 304.421875 457.070312 282.625 457.070312 260.910156 C 457.070312 256.324219 457.070312 251.816406 457.070312 247.226562 C 455.59375 247.226562 454.121094 247.226562 452.5625 247.226562 C 452.5625 248.703125 452.5625 250.257812 452.5625 251.734375 C 452.5625 253.453125 452.070312 254.929688 450.105469 255.09375 C 448.21875 255.09375 447.648438 253.371094 447.648438 251.816406 C 447.648438 250.257812 447.648438 248.703125 447.648438 247.226562 C 429.128906 247.226562 410.609375 247.226562 392.171875 247.226562 C 392.171875 248.703125 392.171875 250.257812 392.171875 251.734375 C 392.171875 253.453125 391.679688 254.929688 389.710938 255.09375 C 387.828125 255.09375 387.253906 253.371094 387.253906 251.816406 C 387.253906 250.257812 387.253906 248.703125 387.253906 247.226562 C 385.53125 247.226562 383.894531 247.226562 382.253906 247.226562 C 381.683594 247.226562 381.683594 246.324219 382.253906 246.324219 C 385.371094 246.324219 388.566406 246.324219 391.679688 246.324219 C 413.476562 246.324219 435.273438 246.324219 457.070312 246.324219 C 457.070312 234.28125 457.070312 222.234375 457.070312 210.191406 C 457.070312 209.863281 457.398438 209.535156 457.726562 209.535156 C 462.316406 209.535156 466.820312 209.535156 471.410156 209.535156 C 471.410156 209.289062 471.410156 209.042969 471.410156 208.714844 C 471.410156 208.46875 471.574219 208.304688 471.820312 208.304688 C 479.441406 208.304688 487.144531 208.304688 494.765625 208.304688 C 495.011719 208.304688 495.175781 208.46875 495.175781 208.714844 C 495.175781 208.960938 495.175781 209.289062 495.175781 209.535156 C 500.992188 209.535156 506.730469 209.535156 512.546875 209.535156 C 512.546875 203.226562 512.546875 196.835938 512.546875 190.527344 C 512.546875 190.199219 512.875 189.871094 513.203125 189.871094 C 530.164062 189.871094 547.128906 189.871094 564.089844 189.871094 C 564.417969 189.871094 564.746094 190.199219 564.746094 190.527344 C 564.746094 196.835938 564.746094 203.226562 564.746094 209.535156 C 566.957031 209.535156 569.171875 209.535156 571.382812 209.535156 C 571.382812 209.289062 571.382812 209.042969 571.382812 208.714844 C 571.382812 208.46875 571.546875 208.304688 571.792969 208.304688 C 581.214844 208.304688 590.640625 208.304688 600.0625 208.304688 C 600.308594 208.304688 600.472656 208.46875 600.472656 208.714844 C 600.472656 208.960938 600.472656 209.207031 600.472656 209.535156 C 605.226562 209.535156 609.980469 209.535156 614.730469 209.535156 C 615.058594 209.535156 615.386719 209.863281 615.386719 210.191406 C 615.386719 216.417969 615.386719 222.5625 615.386719 228.792969 C 615.386719 255.914062 615.386719 282.953125 615.386719 310.074219 C 615.386719 321.382812 615.386719 332.691406 615.386719 343.996094 C 614.894531 346.128906 614.484375 348.257812 613.996094 350.386719 C 613.996094 349.652344 613.996094 348.75 613.996094 347.847656 Z M 391.351562 250.175781 C 391.351562 249.277344 391.351562 248.292969 391.351562 247.390625 C 390.285156 247.390625 389.21875 247.390625 388.15625 247.390625 C 388.074219 249.359375 387.5 254.355469 389.710938 254.355469 C 391.761719 254.191406 391.351562 251.570312 391.351562 250.175781 Z M 451.746094 250.175781 C 451.746094 249.277344 451.746094 248.292969 451.746094 247.390625 C 450.679688 247.390625 449.613281 247.390625 448.546875 247.390625 C 448.464844 249.359375 447.894531 254.355469 450.105469 254.355469 C 452.152344 254.191406 451.746094 251.570312 451.746094 250.175781 Z M 457.070312 327.609375 C 454.121094 327.609375 451.171875 327.609375 448.21875 327.609375 C 426.421875 327.609375 404.625 327.609375 382.910156 327.609375 C 382.910156 333.015625 382.910156 338.507812 382.910156 343.996094 C 382.910156 349.40625 382.828125 354.894531 382.910156 360.304688 C 383.484375 360.304688 384.140625 360.304688 384.714844 360.304688 C 387.335938 360.304688 389.957031 360.304688 392.5 360.304688 C 403.5625 360.304688 414.625 360.304688 425.6875 360.304688 C 426.339844 360.304688 426.503906 361.121094 426.09375 361.449219 C 426.09375 363.335938 426.09375 365.21875 426.09375 367.1875 C 426.09375 369.5625 425.359375 373.414062 426.09375 375.707031 C 426.09375 375.789062 426.09375 375.953125 426.09375 376.035156 C 426.421875 375.789062 427.652344 375.953125 428.0625 375.953125 C 431.09375 375.707031 434.207031 374.886719 436.832031 373.332031 C 441.089844 370.792969 444.449219 366.53125 444.695312 361.449219 C 444.371094 361.121094 444.53125 360.304688 445.1875 360.386719 C 449.121094 360.386719 453.136719 360.386719 457.070312 360.386719 C 457.070312 354.402344 457.070312 348.421875 457.070312 342.441406 C 457.070312 337.441406 457.070312 332.527344 457.070312 327.609375 Z M 470.753906 361.941406 C 471.328125 362.433594 474.441406 361.941406 475.097656 361.941406 C 478.457031 361.941406 481.816406 361.941406 485.09375 361.941406 C 524.101562 361.941406 563.105469 361.941406 602.113281 361.941406 C 602.113281 361.777344 602.113281 361.613281 602.113281 361.367188 C 597.523438 361.367188 592.851562 361.367188 588.261719 361.367188 C 549.75 361.367188 511.152344 361.367188 472.640625 361.367188 C 472.066406 361.367188 472.066406 360.550781 472.640625 360.46875 C 477.964844 360.46875 483.375 360.46875 488.78125 360.46875 C 526.558594 360.46875 564.335938 360.46875 602.195312 360.46875 C 602.195312 360.222656 602.277344 359.976562 602.359375 359.894531 C 602.277344 359.894531 602.113281 359.894531 602.113281 359.894531 C 601.375 359.648438 600.0625 359.894531 599.324219 359.894531 C 595.636719 359.894531 592.03125 359.894531 588.34375 359.894531 C 575.890625 359.894531 563.433594 359.894531 550.980469 359.894531 C 527.871094 359.894531 504.679688 359.894531 481.570312 359.894531 C 478.785156 359.894531 476 359.894531 473.214844 359.894531 C 472.722656 359.894531 471.574219 359.648438 471.164062 359.894531 C 471.246094 359.8125 471.328125 360.058594 471.328125 360.386719 C 471.574219 360.628906 471.574219 361.121094 471.246094 361.367188 C 471.082031 361.777344 470.917969 362.023438 470.753906 361.941406 Z M 571.957031 209.78125 C 572.039062 209.863281 572.121094 209.863281 572.203125 209.945312 C 581.296875 209.945312 590.476562 209.945312 599.570312 209.945312 C 599.570312 209.535156 599.652344 209.289062 599.652344 209.371094 C 599.246094 209.125 597.441406 209.371094 597.03125 209.371094 C 593.835938 209.371094 590.722656 209.371094 587.527344 209.371094 C 584.085938 209.371094 580.5625 209.371094 577.121094 209.371094 C 576.300781 209.371094 571.957031 209.207031 571.957031 209.289062 C 571.875 209.371094 571.957031 209.535156 571.957031 209.78125 Z M 572.039062 211.421875 C 572.449219 211.664062 574.25 211.421875 574.660156 211.421875 C 577.855469 211.421875 580.96875 211.421875 584.167969 211.421875 C 589.328125 211.421875 594.410156 211.421875 599.570312 211.421875 C 599.570312 211.257812 599.570312 211.09375 599.570312 210.847656 C 590.476562 210.847656 581.296875 210.847656 572.203125 210.847656 C 572.203125 211.257812 572.121094 211.5 572.039062 211.421875 Z M 566.300781 211.011719 C 566.382812 213.632812 566.464844 216.335938 566.464844 218.957031 C 566.464844 220.269531 566.792969 222.234375 566.382812 223.546875 C 566.300781 223.710938 566.300781 223.792969 566.300781 223.957031 C 569.746094 224.613281 574.167969 223.875 577.609375 223.875 C 584.574219 223.875 591.542969 223.875 598.507812 223.875 C 601.210938 223.875 603.832031 223.875 606.539062 223.875 C 607.273438 223.875 609.078125 224.203125 609.980469 223.957031 C 609.570312 223.957031 609.816406 222.808594 609.816406 221.988281 C 609.816406 220.433594 609.816406 218.875 609.816406 217.402344 C 609.816406 215.269531 609.816406 213.222656 609.816406 211.09375 C 609.734375 211.09375 609.652344 211.09375 609.570312 211.09375 C 606.539062 211.09375 603.421875 211.09375 600.390625 211.09375 C 600.390625 211.339844 600.390625 211.582031 600.390625 211.910156 C 600.390625 212.074219 600.308594 212.15625 600.226562 212.238281 C 600.144531 212.320312 600.0625 212.320312 599.980469 212.320312 C 590.558594 212.320312 581.132812 212.320312 571.710938 212.320312 C 571.464844 212.320312 571.300781 212.15625 571.300781 211.910156 C 571.300781 211.664062 571.300781 211.421875 571.300781 211.09375 C 569.664062 211.011719 567.941406 211.011719 566.300781 211.011719 Z M 566.21875 224.121094 C 566.21875 224.367188 566.300781 224.285156 566.21875 224.121094 Z M 513.777344 191.097656 C 514.023438 190.933594 513.777344 190.851562 513.777344 191.097656 Z M 472.066406 209.289062 C 472.066406 209.289062 472.148438 209.535156 472.148438 209.863281 C 472.230469 209.863281 472.230469 209.945312 472.230469 209.945312 C 479.605469 209.945312 486.898438 209.945312 494.273438 209.945312 C 494.273438 209.535156 494.355469 209.289062 494.4375 209.289062 C 494.109375 209.207031 493.125 209.289062 492.796875 209.289062 C 490.175781 209.289062 487.554688 209.289062 484.933594 209.289062 C 481.980469 209.289062 478.949219 209.289062 476 209.289062 C 475.261719 209.371094 472.066406 209.289062 472.066406 209.289062 Z M 494.273438 210.847656 C 486.898438 210.847656 479.605469 210.847656 472.230469 210.847656 C 472.230469 211.175781 472.230469 211.421875 472.066406 211.421875 C 472.476562 211.5 473.625 211.339844 473.871094 211.339844 C 476.410156 211.339844 478.949219 211.339844 481.488281 211.339844 C 485.75 211.339844 490.011719 211.339844 494.273438 211.339844 C 494.273438 211.257812 494.273438 211.011719 494.273438 210.847656 Z M 513.613281 266.976562 C 518.199219 266.976562 522.789062 267.300781 527.378906 266.976562 C 527.460938 266.976562 527.625 266.976562 527.789062 266.976562 C 527.707031 266.730469 527.789062 265.910156 527.789062 265.746094 C 526.96875 262.714844 526.96875 260.171875 525.332031 257.304688 C 522.953125 253.046875 518.609375 249.847656 513.613281 249.683594 C 513.285156 250.011719 512.464844 249.847656 512.464844 249.277344 C 512.464844 236.574219 512.464844 223.792969 512.464844 211.09375 C 506.648438 211.09375 500.910156 211.09375 495.09375 211.09375 C 495.09375 211.339844 495.09375 211.582031 495.09375 211.910156 C 495.09375 212.074219 495.011719 212.15625 494.929688 212.238281 C 494.847656 212.320312 494.765625 212.320312 494.683594 212.320312 C 487.0625 212.320312 479.359375 212.320312 471.738281 212.320312 C 471.492188 212.320312 471.328125 212.15625 471.328125 211.910156 C 471.328125 211.664062 471.328125 211.421875 471.328125 211.09375 C 468.132812 211.09375 465.019531 211.09375 461.824219 211.09375 C 460.839844 211.09375 459.445312 210.847656 458.300781 211.011719 C 458.136719 213.796875 458.300781 216.664062 458.300781 219.449219 C 458.300781 239.769531 458.300781 260.011719 458.300781 280.332031 C 476.328125 280.332031 494.4375 280.332031 512.464844 280.332031 C 512.464844 276.070312 512.464844 271.726562 512.464844 267.464844 C 512.546875 266.730469 513.285156 266.566406 513.613281 266.976562 Z M 589.738281 240.261719 C 589.738281 240.179688 589.738281 240.179688 589.738281 240.261719 C 589.164062 240.097656 588.183594 240.261719 587.691406 240.261719 C 585.722656 240.261719 583.757812 240.261719 581.789062 240.261719 C 580.808594 240.261719 578.429688 239.851562 577.28125 240.179688 C 577.28125 240.261719 577.199219 240.507812 577.28125 240.917969 C 577.855469 248.292969 577.28125 255.996094 577.28125 263.371094 C 577.28125 269.023438 577.28125 274.675781 577.28125 280.332031 C 581.460938 280.332031 585.558594 280.332031 589.738281 280.332031 C 589.738281 273.53125 589.738281 266.730469 589.738281 260.011719 C 589.738281 255.667969 589.738281 251.324219 589.738281 246.980469 C 589.65625 245.179688 590.3125 241.902344 589.738281 240.261719 Z M 601.457031 262.222656 C 605.636719 262.222656 609.816406 262.222656 613.996094 262.222656 C 613.996094 260.089844 613.996094 257.960938 613.996094 255.832031 C 613.996094 243.292969 613.996094 230.757812 613.996094 218.140625 C 613.996094 215.84375 614.15625 213.386719 613.996094 211.011719 C 612.929688 211.175781 611.78125 211.09375 610.714844 211.011719 C 610.714844 215.433594 610.714844 219.859375 610.714844 224.285156 C 610.714844 224.53125 610.550781 224.695312 610.308594 224.695312 C 595.476562 224.695312 580.644531 224.695312 565.8125 224.695312 C 565.402344 224.695312 565.238281 224.203125 565.484375 223.957031 C 566.382812 222.890625 565.566406 217.8125 565.566406 216.5 C 565.566406 214.699219 565.484375 212.8125 565.402344 211.011719 C 562.207031 211.011719 559.007812 211.011719 555.8125 211.011719 C 554.996094 211.011719 554.996094 209.699219 555.8125 209.699219 C 558.355469 209.699219 560.8125 209.699219 563.351562 209.699219 C 563.351562 204.617188 563.351562 199.621094 563.351562 194.539062 C 563.351562 193.558594 563.1875 192.328125 563.351562 191.34375 C 563.351562 191.261719 563.351562 191.261719 563.351562 191.179688 C 562.289062 191.015625 560.894531 191.261719 559.910156 191.261719 C 548.847656 191.261719 537.703125 191.261719 526.558594 191.261719 C 522.707031 191.261719 518.039062 192 514.269531 191.261719 C 514.105469 191.261719 513.941406 191.179688 513.695312 191.179688 C 513.695312 191.261719 513.695312 191.425781 513.777344 191.671875 C 514.351562 193.558594 513.777344 196.34375 513.777344 198.308594 C 513.777344 202.078125 513.777344 205.847656 513.777344 209.617188 C 515.414062 209.617188 517.054688 209.617188 518.773438 209.617188 C 519.59375 209.617188 519.59375 210.929688 518.773438 210.929688 C 517.136719 210.929688 515.496094 210.929688 513.777344 210.929688 C 513.777344 223.546875 513.777344 236.082031 513.777344 248.703125 C 523.199219 249.113281 528.609375 258.617188 528.609375 267.300781 C 528.609375 267.546875 528.445312 267.710938 528.199219 267.710938 C 523.445312 267.710938 518.609375 267.710938 513.859375 267.710938 C 513.859375 271.890625 513.859375 275.988281 513.859375 280.167969 C 519.511719 280.167969 525.167969 280.167969 530.820312 280.167969 C 531.476562 280.167969 531.640625 280.902344 531.230469 281.3125 C 531.394531 286.3125 534.589844 290.574219 538.851562 292.949219 C 541.71875 294.589844 544.257812 294.507812 547.292969 295.40625 C 547.375 295.40625 548.191406 295.324219 548.519531 295.40625 C 548.519531 295.242188 548.519531 295.078125 548.519531 294.996094 C 548.847656 290.492188 548.519531 285.820312 548.519531 281.230469 C 548.191406 280.902344 548.273438 280.085938 548.929688 280.085938 C 552.453125 280.085938 555.976562 280.085938 559.5 280.085938 C 559.5 266.566406 559.5 253.046875 559.5 239.605469 C 559.5 238.789062 560.8125 238.789062 560.8125 239.605469 C 560.8125 243.210938 560.8125 246.734375 560.8125 250.339844 C 560.8125 260.253906 560.8125 270.171875 560.8125 280.085938 C 565.976562 280.085938 571.136719 280.085938 576.382812 280.085938 C 576.382812 266.566406 576.382812 253.046875 576.382812 239.605469 C 576.382812 239.359375 576.546875 239.199219 576.792969 239.199219 C 581.214844 239.199219 585.640625 239.199219 590.066406 239.199219 C 590.3125 239.199219 590.476562 239.359375 590.476562 239.605469 C 590.476562 253.125 590.476562 266.648438 590.476562 280.085938 C 594 280.085938 597.441406 280.085938 600.964844 280.085938 C 600.964844 274.183594 600.964844 268.367188 600.964844 262.46875 C 601.046875 262.386719 601.292969 262.222656 601.457031 262.222656 Z M 613.996094 280.25 C 613.996094 274.511719 613.996094 268.777344 613.996094 263.042969 C 611.453125 263.042969 608.914062 263.042969 606.292969 263.042969 C 604.898438 263.042969 603.421875 263.042969 602.03125 263.042969 C 601.949219 263.042969 601.867188 263.042969 601.867188 263.042969 C 601.867188 263.289062 601.867188 263.53125 601.949219 263.613281 C 602.523438 266.8125 601.949219 270.578125 601.949219 273.859375 C 601.949219 275.988281 601.949219 278.117188 601.949219 280.167969 C 605.964844 280.25 609.980469 280.25 613.996094 280.25 Z M 523.035156 292.539062 C 523.28125 292.539062 523.445312 292.703125 523.445312 292.949219 C 523.445312 308.761719 523.445312 324.578125 523.445312 340.390625 C 523.445312 340.472656 523.445312 340.554688 523.363281 340.636719 C 523.28125 340.71875 523.199219 340.800781 523.035156 340.800781 C 509.1875 340.800781 495.339844 340.800781 481.488281 340.800781 C 481.246094 340.800781 481.082031 340.636719 481.082031 340.390625 C 481.082031 324.578125 481.082031 308.761719 481.082031 292.949219 C 481.082031 292.703125 481.246094 292.539062 481.488281 292.539062 C 495.339844 292.539062 509.1875 292.539062 523.035156 292.539062 Z M 522.542969 293.195312 C 521.316406 292.949219 518.773438 293.359375 517.875 293.359375 C 510.007812 293.359375 502.140625 293.359375 494.273438 293.359375 C 490.996094 293.359375 487.71875 293.359375 484.441406 293.359375 C 483.703125 293.359375 482.636719 293.195312 481.898438 293.359375 C 481.488281 295.160156 481.898438 297.703125 481.898438 299.585938 C 481.898438 303.273438 481.898438 307.042969 481.898438 310.730469 C 481.898438 318.597656 481.898438 326.460938 481.898438 334.328125 C 481.898438 335.804688 481.40625 338.425781 481.816406 339.898438 C 481.898438 339.898438 481.980469 339.898438 482.144531 339.898438 C 482.964844 339.980469 483.867188 339.898438 484.6875 339.898438 C 497.304688 339.898438 509.925781 339.898438 522.542969 339.898438 C 522.542969 325.5625 522.542969 311.304688 522.542969 296.964844 C 522.542969 295.898438 522.460938 294.832031 522.542969 293.851562 C 522.625 293.523438 522.542969 293.277344 522.542969 293.195312 Z M 609.242188 287.132812 C 609.242188 291.800781 609.242188 296.390625 609.242188 301.0625 C 609.242188 301.0625 609.242188 301.144531 609.242188 301.144531 C 609.242188 312.203125 609.242188 323.265625 609.242188 334.328125 C 609.242188 334.328125 609.242188 334.410156 609.242188 334.410156 C 609.242188 339.082031 609.242188 343.667969 609.242188 348.339844 C 609.242188 348.421875 609.160156 348.585938 609.160156 348.585938 C 609.078125 348.667969 608.996094 348.667969 608.914062 348.667969 C 595.066406 348.667969 581.214844 348.667969 567.367188 348.667969 C 567.121094 348.667969 566.957031 348.503906 566.957031 348.257812 C 566.957031 327.855469 566.957031 307.453125 566.957031 287.050781 C 566.957031 286.804688 567.121094 286.640625 567.367188 286.640625 C 581.214844 286.640625 595.066406 286.640625 608.914062 286.640625 C 609.078125 286.722656 609.242188 286.886719 609.242188 287.132812 Z M 608.421875 301.636719 C 608.339844 301.636719 608.257812 301.636719 608.175781 301.636719 C 606.375 301.390625 604.488281 301.636719 602.6875 301.636719 C 596.703125 301.636719 590.722656 301.636719 584.820312 301.636719 C 582.445312 301.636719 580.070312 301.636719 577.609375 301.636719 C 577.199219 301.636719 576.464844 301.472656 576.054688 301.636719 C 575.644531 302.945312 576.054688 305.484375 576.054688 306.714844 C 576.054688 309.417969 576.054688 312.121094 576.054688 314.828125 C 576.054688 320.480469 576.054688 326.132812 576.054688 331.789062 C 576.054688 332.933594 576.464844 334.410156 575.726562 334 C 576.464844 334.410156 579.003906 334 579.824219 334 C 589.328125 334 598.835938 334 608.339844 334 C 608.339844 333.261719 608.339844 332.527344 608.339844 331.789062 C 608.257812 322.285156 607.847656 312.777344 608.339844 303.273438 C 608.421875 302.699219 608.421875 302.125 608.421875 301.636719 Z M 608.503906 287.625 C 608.339844 287.625 608.175781 287.542969 607.765625 287.625 C 604.652344 288.03125 601.128906 287.625 597.933594 287.625 C 593.097656 287.625 588.261719 287.625 583.429688 287.625 C 579.332031 287.625 575.152344 287.625 571.054688 287.625 C 570.070312 287.625 568.761719 287.378906 567.777344 287.625 C 567.367188 289.507812 567.777344 291.964844 567.777344 293.851562 C 567.777344 297.949219 567.777344 301.960938 567.777344 306.058594 C 567.777344 315.644531 567.777344 325.316406 567.777344 334.902344 C 567.777344 338.34375 567.777344 341.703125 567.777344 345.144531 C 567.777344 346.046875 567.613281 347.027344 567.777344 347.847656 C 567.777344 347.929688 567.777344 348.011719 567.777344 348.09375 C 569.746094 348.75 573.433594 348.011719 575.316406 348.011719 C 579.988281 348.011719 584.65625 348.011719 589.410156 348.011719 C 595.71875 348.011719 602.113281 348.011719 608.503906 348.011719 C 608.503906 343.585938 608.503906 339.246094 608.503906 334.820312 C 597.605469 334.820312 586.707031 334.820312 575.726562 334.820312 C 575.480469 334.820312 575.316406 334.65625 575.316406 334.410156 C 575.316406 323.347656 575.316406 312.285156 575.316406 301.226562 C 575.316406 300.980469 575.480469 300.816406 575.726562 300.816406 C 586.625 300.816406 597.523438 300.816406 608.503906 300.816406 C 608.503906 299.832031 608.503906 298.929688 608.503906 297.949219 C 608.503906 294.996094 608.503906 291.964844 608.503906 289.015625 C 608.421875 288.6875 608.503906 288.03125 608.503906 287.625 Z M 494.601562 325.5625 C 489.929688 325.316406 486.160156 321.382812 486.160156 316.628906 C 486.160156 311.796875 490.257812 307.699219 495.09375 307.699219 C 500.171875 307.699219 503.777344 311.796875 504.023438 316.628906 C 504.023438 316.710938 504.023438 316.710938 504.023438 316.792969 C 503.613281 321.792969 499.761719 325.808594 494.601562 325.5625 Z M 503.042969 316.628906 C 502.46875 306.304688 486.980469 306.222656 486.980469 316.628906 C 486.980469 327.035156 502.550781 326.953125 503.042969 316.628906 Z M 460.675781 237.394531 C 460.675781 234.609375 460.675781 231.90625 460.675781 229.117188 C 460.675781 228.953125 460.757812 228.871094 460.757812 228.792969 C 460.757812 228.792969 460.757812 228.792969 460.839844 228.792969 C 460.921875 228.710938 461.003906 228.710938 461.085938 228.710938 C 462.5625 228.710938 464.117188 228.710938 465.59375 228.710938 C 465.839844 228.710938 466.003906 228.871094 466.003906 229.117188 C 466.003906 229.855469 466.003906 230.675781 466.003906 231.414062 C 467.96875 229.691406 472.722656 230.265625 473.214844 232.96875 C 473.214844 233.050781 473.296875 233.132812 473.296875 233.214844 C 473.296875 233.296875 473.296875 233.378906 473.214844 233.460938 C 472.722656 236.164062 467.96875 236.738281 466.003906 235.019531 C 466.003906 235.757812 466.003906 236.574219 466.003906 237.3125 C 466.003906 237.558594 465.839844 237.722656 465.59375 237.722656 C 464.117188 237.722656 462.5625 237.722656 461.085938 237.722656 C 460.839844 237.804688 460.675781 237.558594 460.675781 237.394531 Z M 466.003906 233.214844 C 466.003906 235.835938 472.148438 235.757812 472.394531 233.214844 C 472.230469 230.757812 466.003906 230.675781 466.003906 233.214844 Z M 461.496094 236.902344 C 462.726562 236.902344 463.953125 236.902344 465.183594 236.902344 C 465.183594 234.445312 465.183594 231.988281 465.183594 229.527344 C 463.953125 229.527344 462.726562 229.527344 461.496094 229.527344 C 461.496094 231.988281 461.496094 234.445312 461.496094 236.902344 Z M 506.894531 229.527344 C 503.289062 229.527344 503.207031 222.070312 506.648438 221.417969 C 506.730469 221.417969 506.8125 221.335938 506.894531 221.335938 C 506.976562 221.335938 507.058594 221.335938 507.136719 221.417969 C 510.582031 222.070312 510.582031 229.527344 506.894531 229.527344 Z M 506.894531 222.234375 C 504.351562 222.480469 504.269531 228.710938 506.894531 228.628906 C 509.515625 228.710938 509.433594 222.480469 506.894531 222.234375 Z M 490.914062 262.632812 C 490.914062 267.792969 490.914062 272.957031 490.914062 278.117188 C 490.914062 278.28125 490.832031 278.363281 490.75 278.445312 C 490.667969 278.527344 490.585938 278.527344 490.503906 278.527344 C 480.753906 278.527344 470.917969 278.527344 461.167969 278.527344 C 460.921875 278.527344 460.757812 278.363281 460.757812 278.117188 C 460.757812 272.957031 460.757812 267.792969 460.757812 262.632812 C 460.757812 262.386719 460.921875 262.222656 461.167969 262.222656 C 470.917969 262.222656 480.753906 262.222656 490.503906 262.222656 C 490.667969 262.222656 490.914062 262.386719 490.914062 262.632812 Z M 490.09375 263.125 C 489.601562 262.960938 488.945312 263.125 488.457031 263.125 C 481 263.125 473.542969 263.125 466.085938 263.125 C 464.691406 263.125 463.296875 263.125 461.988281 263.125 C 461.742188 263.125 461.578125 263.125 461.496094 263.125 C 461.085938 264.351562 461.496094 266.320312 461.496094 267.546875 C 461.496094 269.679688 461.496094 271.726562 461.496094 273.859375 C 461.496094 274.757812 461.085938 276.890625 461.414062 277.871094 C 461.496094 277.871094 461.742188 277.871094 462.152344 277.871094 C 465.347656 277.625 468.625 277.871094 471.820312 277.871094 C 477.882812 277.871094 483.867188 277.871094 489.929688 277.871094 C 489.929688 274.429688 489.929688 270.988281 489.929688 267.628906 C 490.011719 266.402344 490.421875 264.269531 490.09375 263.125 Z M 717.082031 147.671875 C 712.984375 164.140625 709.949219 180.9375 707.492188 197.734375 C 703.476562 224.859375 703.394531 252.308594 699.871094 279.511719 C 698.152344 292.949219 695.855469 306.222656 693.398438 319.496094 C 693.398438 336.296875 693.398438 353.09375 693.5625 369.808594 C 693.726562 382.507812 694.792969 395.535156 693.644531 408.238281 C 693.644531 408.484375 693.480469 408.648438 693.234375 408.648438 C 688.316406 408.648438 683.484375 408.566406 678.566406 408.484375 C 676.191406 420.773438 673.648438 433.066406 670.78125 445.191406 C 670.78125 445.355469 670.617188 445.4375 670.535156 445.4375 C 660.539062 448.304688 648.246094 448.140625 638.90625 443.0625 C 638.824219 443.0625 638.742188 442.980469 638.660156 442.898438 C 636.527344 441.667969 634.480469 440.195312 632.757812 438.472656 C 632.023438 437.734375 631.449219 437.160156 631.121094 436.671875 C 622.433594 438.0625 612.929688 437.160156 605.226562 432.984375 C 605.0625 432.984375 604.980469 432.902344 604.898438 432.820312 C 602.769531 431.589844 600.800781 430.195312 599 428.394531 C 597.851562 427.246094 597.277344 426.589844 597.03125 425.9375 C 596.703125 425.9375 596.457031 425.363281 596.867188 425.117188 C 596.867188 424.378906 597.113281 423.558594 597.441406 422.167969 C 598.507812 417.90625 599.488281 413.644531 600.472656 409.464844 C 607.027344 381.851562 613.421875 354.15625 618.992188 326.296875 C 621.453125 314.007812 623.992188 301.714844 625.382812 289.261719 C 626.203125 281.96875 625.957031 274.511719 626.449219 267.21875 C 629.644531 220.679688 635.710938 174.300781 641.363281 128.007812 C 641.363281 128.007812 641.363281 128.007812 641.363281 127.925781 C 641.363281 127.84375 641.363281 127.84375 641.445312 127.761719 C 641.445312 127.761719 641.527344 127.679688 641.527344 127.679688 C 641.691406 127.679688 641.855469 127.679688 642.019531 127.679688 C 655.867188 130.136719 669.550781 133.167969 683.074219 137.101562 C 683.320312 137.183594 683.402344 137.429688 683.402344 137.675781 C 683.238281 138.332031 683.074219 138.984375 682.910156 139.640625 C 682.910156 139.476562 682.992188 139.230469 683.074219 139.066406 C 694.464844 141.28125 705.773438 143.902344 716.835938 147.097656 C 717 147.179688 717.082031 147.425781 717.082031 147.671875 Z M 597.769531 424.789062 C 599.246094 424.214844 600.964844 423.96875 602.523438 423.804688 C 609.078125 423.066406 616.125 423.886719 622.597656 425.28125 C 626.53125 426.101562 635.054688 428.394531 636.855469 433.230469 C 636.9375 432.65625 637.019531 432 637.183594 431.507812 C 638.25 426.671875 639.316406 421.921875 640.296875 417.085938 C 643.332031 402.828125 646.117188 388.570312 648.492188 374.234375 C 650.707031 360.222656 652.261719 346.128906 654.800781 332.117188 C 658.082031 314.007812 661.605469 295.816406 664.226562 277.625 C 667.175781 257.140625 667.832031 236.574219 669.632812 216.007812 C 671.191406 197.980469 673.894531 180.121094 677.253906 162.339844 C 678.402344 156.355469 679.632812 150.457031 680.941406 144.558594 C 681.1875 143.410156 683.15625 138.578125 682.582031 137.429688 C 682.582031 137.511719 678.320312 136.609375 677.910156 136.527344 C 676.679688 136.199219 675.535156 135.871094 674.304688 135.542969 C 672.175781 134.972656 670.042969 134.480469 667.832031 133.90625 C 663.652344 132.921875 659.472656 131.9375 655.292969 131.121094 C 650.949219 130.21875 646.691406 129.398438 642.347656 128.578125 C 642.265625 129.316406 642.183594 130.054688 642.101562 130.792969 C 637.183594 171.105469 632.351562 211.5 628.746094 251.980469 C 627.515625 265.5 627.761719 279.347656 625.957031 292.785156 C 623.007812 314.5 618.089844 336.050781 613.421875 357.433594 C 609.078125 377.347656 604.488281 397.09375 599.734375 416.921875 C 599.164062 419.21875 598.671875 421.511719 598.097656 423.722656 C 597.851562 424.214844 597.769531 424.460938 597.769531 424.789062 Z M 599.570312 427.902344 C 606.375 424.378906 616.125 426.507812 622.925781 428.476562 C 625.136719 429.132812 634.316406 431.34375 634.234375 435.277344 C 634.726562 435.195312 635.21875 435.03125 635.628906 434.867188 C 636.039062 434.785156 636.199219 434.703125 636.28125 434.703125 C 635.792969 428.394531 623.828125 426.265625 619.402344 425.527344 C 613.667969 424.542969 603.667969 422.660156 597.851562 425.691406 C 598.015625 426.589844 598.671875 427.246094 599.570312 427.902344 Z M 624.8125 433.800781 C 622.433594 432 617.84375 431.671875 614.976562 431.589844 C 612.109375 431.507812 609.078125 431.835938 606.375 432.738281 C 611.78125 435.523438 618.253906 436.753906 624.566406 436.589844 C 624.648438 436.507812 624.730469 436.425781 624.8125 436.34375 C 626.367188 435.769531 626.121094 434.785156 624.8125 433.800781 Z M 633.332031 435.523438 C 633.332031 435.523438 633.332031 435.441406 633.332031 435.523438 C 634.070312 431.425781 620.304688 428.640625 618.089844 428.148438 C 612.847656 427.082031 605.472656 426.019531 600.308594 428.558594 C 600.636719 428.804688 600.964844 429.050781 601.375 429.378906 C 602.605469 430.441406 603.996094 431.34375 605.472656 432.164062 C 611.371094 429.871094 619.320312 430.113281 624.894531 432.820312 C 626.941406 433.800781 627.84375 435.359375 626.367188 436.507812 C 628.746094 436.34375 631.039062 436.015625 633.332031 435.523438 Z M 658.488281 443.800781 C 656.113281 441.996094 651.523438 441.667969 648.65625 441.585938 C 645.789062 441.503906 642.757812 441.832031 640.050781 442.734375 C 645.460938 445.519531 651.933594 446.75 658.246094 446.667969 C 658.324219 446.585938 658.40625 446.421875 658.488281 446.421875 C 660.128906 445.765625 659.882812 444.863281 658.488281 443.800781 Z M 651.769531 438.144531 C 646.527344 437.078125 639.152344 436.015625 633.988281 438.554688 C 634.316406 438.800781 634.644531 439.128906 635.054688 439.375 C 636.28125 440.4375 637.675781 441.339844 639.152344 442.160156 C 645.050781 439.785156 653 440.113281 658.652344 442.816406 C 660.703125 443.800781 661.605469 445.355469 660.128906 446.503906 C 662.503906 446.339844 664.882812 446.011719 667.175781 445.519531 C 667.175781 445.519531 667.175781 445.519531 667.175781 445.4375 C 667.832031 441.421875 654.066406 438.636719 651.769531 438.144531 Z M 669.960938 444.78125 C 669.46875 438.472656 657.507812 436.261719 653.082031 435.523438 C 648.984375 434.785156 642.675781 433.636719 637.347656 434.128906 C 637.265625 434.457031 637.183594 434.785156 637.101562 435.113281 C 637.101562 435.277344 636.9375 435.359375 636.855469 435.359375 C 635.300781 435.769531 633.578125 436.179688 631.941406 436.507812 C 632.269531 436.996094 632.675781 437.40625 633.25 437.898438 C 633.25 437.898438 633.25 437.898438 633.332031 437.898438 C 640.132812 434.375 649.886719 436.507812 656.6875 438.472656 C 658.898438 439.128906 668.078125 441.421875 667.996094 445.273438 C 668.488281 445.191406 668.898438 445.027344 669.386719 444.863281 C 669.714844 444.78125 669.878906 444.78125 669.960938 444.78125 Z M 692.660156 365.382812 C 692.578125 351.78125 692.496094 338.097656 692.496094 324.496094 C 690.859375 333.425781 689.21875 342.359375 687.664062 351.371094 C 684.464844 370.054688 682.417969 388.816406 678.8125 407.417969 C 678.8125 407.5 678.8125 407.582031 678.730469 407.664062 C 682.417969 407.664062 686.105469 407.746094 689.875 407.746094 C 690.449219 407.746094 691.921875 407.992188 692.742188 407.910156 C 692.742188 407.746094 692.90625 407.5 692.824219 407.007812 C 692.660156 405.941406 692.90625 404.714844 692.90625 403.730469 C 693.234375 390.867188 692.824219 378.082031 692.660156 365.382812 Z M 716.261719 147.425781 C 716.261719 147.507812 712 146.605469 711.589844 146.523438 C 710.359375 146.195312 709.214844 145.867188 707.984375 145.542969 C 705.855469 144.96875 703.722656 144.476562 701.511719 143.902344 C 697.332031 142.917969 693.152344 142.019531 688.972656 141.117188 C 686.925781 140.707031 684.875 140.296875 682.828125 139.886719 C 679.058594 155.621094 676.191406 171.597656 673.8125 187.65625 C 669.796875 214.78125 669.714844 242.230469 666.191406 269.433594 C 663.078125 293.523438 658.164062 317.367188 653.984375 341.292969 C 650.789062 359.976562 648.738281 378.738281 645.132812 397.339844 C 642.757812 409.464844 640.214844 421.675781 637.511719 433.71875 C 643.738281 433.230469 650.296875 433.964844 656.359375 435.277344 C 660.292969 436.097656 668.734375 438.390625 670.535156 443.226562 C 670.617188 442.652344 670.699219 441.996094 670.863281 441.503906 C 671.929688 436.753906 672.996094 431.917969 673.976562 427.082031 C 677.007812 412.824219 679.796875 398.570312 682.171875 384.230469 C 684.382812 370.21875 685.941406 356.125 688.480469 342.113281 C 691.757812 323.921875 695.28125 305.8125 697.90625 287.625 C 700.855469 267.136719 701.511719 246.570312 703.3125 226.003906 C 704.871094 207.980469 707.574219 190.117188 710.933594 172.335938 C 712.082031 166.355469 713.3125 160.453125 714.621094 154.554688 C 714.867188 153.40625 716.753906 148.574219 716.261719 147.425781 Z M 716.261719 147.425781 " fill-opacity="1" fill-rule="nonzero"/></g></svg>