<svg xmlns="http://www.w3.org/2000/svg" xmlns:xlink="http://www.w3.org/1999/xlink" width="1366" zoomAndPan="magnify" viewBox="0 0 1024.5 576" height="768" preserveAspectRatio="xMidYMid meet" version="1.0"><defs><clipPath id="87a0fe7c6c"><path d="M 0 0.140625 L 1024 0.140625 L 1024 575.859375 L 0 575.859375 Z M 0 0.140625 " clip-rule="nonzero"/></clipPath><clipPath id="43c4c722b7"><path d="M 322.390625 98 L 701.703125 98 L 701.703125 477.980469 L 322.390625 477.980469 Z M 322.390625 98 " clip-rule="nonzero"/></clipPath></defs><g clip-path="url(#87a0fe7c6c)"><path fill="#ffffff" d="M 0 0.140625 L 1024 0.140625 L 1024 575.859375 L 0 575.859375 Z M 0 0.140625 " fill-opacity="1" fill-rule="nonzero"/><path fill="#fdfeff" d="M 0 0.140625 L 1024 0.140625 L 1024 575.859375 L 0 575.859375 Z M 0 0.140625 " fill-opacity="1" fill-rule="nonzero"/></g><path fill="#d6eae8" d="M 543.269531 132.28125 L 543.269531 471.503906 L 328.503906 471.503906 L 328.503906 127.589844 L 541.179688 127.589844 Z M 543.269531 132.28125 " fill-opacity="1" fill-rule="nonzero"/><path fill="#c3ddda" d="M 541.179688 127.589844 L 345.011719 471.503906 L 543.269531 471.503906 L 543.269531 132.28125 Z M 541.179688 127.589844 " fill-opacity="1" fill-rule="nonzero"/><path fill="#4a93cd" d="M 592.570312 200.628906 L 455.957031 200.628906 C 448.230469 200.628906 441.953125 206.894531 441.953125 214.625 L 441.953125 400.671875 C 441.953125 408.394531 448.230469 414.664062 455.957031 414.664062 L 534.019531 414.664062 L 606.582031 319.289062 L 606.582031 214.625 C 606.582031 206.894531 600.308594 200.628906 592.570312 200.628906 Z M 592.570312 200.628906 " fill-opacity="1" fill-rule="nonzero"/><path fill="#9c9d9c" d="M 662.199219 199.804688 C 670.878906 224.71875 667.03125 238.777344 635.3125 228.695312 L 551.484375 150.773438 C 552.449219 128.472656 561.917969 119.636719 578.378906 121.875 Z M 662.199219 199.804688 " fill-opacity="1" fill-rule="nonzero"/><path fill="#d2d2d1" d="M 578.378906 121.875 L 551.484375 150.773438 L 543.269531 132.289062 L 543.269531 132.28125 L 541.179688 127.589844 L 531.070312 104.851562 Z M 578.378906 121.875 " fill-opacity="1" fill-rule="nonzero"/><path fill="#d2d2d1" d="M 689.0625 224.785156 C 697.050781 232.199219 697.5 244.691406 690.070312 252.664062 C 682.652344 260.648438 670.15625 261.097656 662.175781 253.671875 L 635.3125 228.695312 L 662.199219 199.804688 L 675.863281 212.515625 Z M 689.0625 224.785156 " fill-opacity="1" fill-rule="nonzero"/><path fill="#f4be53" d="M 596.859375 348.476562 L 596.859375 387.097656 C 584.769531 383.613281 572.671875 380.136719 572.671875 367.816406 C 572.671875 357.128906 583.5 348.476562 596.859375 348.476562 Z M 596.859375 348.476562 " fill-opacity="1" fill-rule="nonzero"/><path fill="#f4be53" d="M 621.058594 406.492188 C 621.058594 417.175781 610.226562 425.832031 596.859375 425.832031 L 596.859375 387.097656 C 608.957031 390.585938 621.058594 394.09375 621.058594 406.492188 Z M 621.058594 406.492188 " fill-opacity="1" fill-rule="nonzero"/><path fill="#98c4eb" d="M 467.265625 363.1875 L 505.269531 363.1875 L 505.269531 390.960938 L 467.265625 390.960938 Z M 467.265625 363.1875 " fill-opacity="1" fill-rule="nonzero"/><path fill="#98c4eb" d="M 543.269531 335.414062 L 543.269531 344.375 C 538.765625 349.988281 535.144531 356.328125 532.582031 363.1875 L 505.269531 363.1875 L 505.269531 335.414062 Z M 543.269531 335.414062 " fill-opacity="1" fill-rule="nonzero"/><path fill="#98c4eb" d="M 467.265625 307.648438 L 505.269531 307.648438 L 505.269531 335.414062 L 467.265625 335.414062 Z M 467.265625 307.648438 " fill-opacity="1" fill-rule="nonzero"/><path fill="#98c4eb" d="M 581.269531 307.648438 L 581.269531 320.382812 C 570.203125 322.957031 560.160156 328.203125 551.867188 335.414062 L 543.269531 335.414062 L 543.269531 307.648438 Z M 581.269531 307.648438 " fill-opacity="1" fill-rule="nonzero"/><path fill="#98c4eb" d="M 505.269531 279.875 L 543.269531 279.875 L 543.269531 307.648438 L 505.269531 307.648438 Z M 505.269531 279.875 " fill-opacity="1" fill-rule="nonzero"/><path fill="#b6dbf9" d="M 505.269531 363.1875 L 532.582031 363.1875 C 529.792969 370.644531 528.273438 378.71875 528.273438 387.148438 C 528.273438 388.425781 528.3125 389.703125 528.378906 390.960938 L 505.269531 390.960938 Z M 505.269531 363.1875 " fill-opacity="1" fill-rule="nonzero"/><path fill="#b6dbf9" d="M 467.265625 335.414062 L 505.269531 335.414062 L 505.269531 363.1875 L 467.265625 363.1875 Z M 467.265625 335.414062 " fill-opacity="1" fill-rule="nonzero"/><path fill="#b6dbf9" d="M 543.269531 279.875 L 581.269531 279.875 L 581.269531 307.648438 L 543.269531 307.648438 Z M 543.269531 279.875 " fill-opacity="1" fill-rule="nonzero"/><path fill="#b6dbf9" d="M 505.269531 307.648438 L 543.269531 307.648438 L 543.269531 335.414062 L 505.269531 335.414062 Z M 505.269531 307.648438 " fill-opacity="1" fill-rule="nonzero"/><path fill="#b6dbf9" d="M 467.265625 279.875 L 505.269531 279.875 L 505.269531 307.648438 L 467.265625 307.648438 Z M 467.265625 279.875 " fill-opacity="1" fill-rule="nonzero"/><path fill="#b6dbf9" d="M 467.265625 224.324219 L 581.269531 224.324219 L 581.269531 255.996094 L 467.265625 255.996094 Z M 467.265625 224.324219 " fill-opacity="1" fill-rule="nonzero"/><path fill="#f4be53" d="M 606.582031 319.289062 C 603.402344 318.839844 600.160156 318.601562 596.859375 318.601562 C 591.496094 318.601562 586.28125 319.21875 581.269531 320.382812 C 570.203125 322.957031 560.160156 328.203125 551.867188 335.414062 C 551.019531 336.148438 550.191406 336.902344 549.382812 337.691406 C 547.203125 339.773438 545.15625 342.003906 543.269531 344.375 C 538.765625 349.988281 535.144531 356.328125 532.582031 363.1875 C 529.792969 370.644531 528.273438 378.71875 528.273438 387.148438 C 528.273438 388.425781 528.3125 389.703125 528.378906 390.960938 C 528.839844 399.355469 530.800781 407.347656 534.019531 414.664062 C 536.433594 420.171875 539.554688 425.296875 543.269531 429.933594 C 545.15625 432.292969 547.203125 434.53125 549.382812 436.625 C 561.703125 448.441406 578.433594 455.707031 596.859375 455.707031 C 634.746094 455.707031 665.453125 425.015625 665.453125 387.148438 C 665.453125 352.59375 639.867188 324 606.582031 319.289062 Z M 606.582031 319.289062 " fill-opacity="1" fill-rule="nonzero"/><path fill="#edaf40" d="M 639.175781 333.195312 C 635.6875 401 612.480469 443.949219 549.382812 436.625 C 561.703125 448.441406 578.433594 455.707031 596.859375 455.707031 C 634.746094 455.707031 665.453125 425.015625 665.453125 387.148438 C 665.453125 365.25 655.175781 345.746094 639.175781 333.195312 Z M 639.175781 333.195312 " fill-opacity="1" fill-rule="nonzero"/><path fill="#3a322b" d="M 590.75 340.046875 L 590.75 342.882812 C 576.960938 345.265625 566.558594 355.539062 566.558594 367.8125 C 566.558594 382.820312 579.042969 388.105469 590.75 391.671875 L 590.75 419.101562 C 581.109375 417.148438 574.832031 411.246094 574.667969 411.085938 C 572.261719 408.738281 568.40625 408.769531 566.039062 411.164062 C 563.667969 413.566406 563.691406 417.433594 566.097656 419.804688 C 566.539062 420.242188 575.972656 429.378906 590.75 431.5 L 590.75 434.261719 C 590.75 437.636719 593.488281 440.371094 596.863281 440.371094 C 600.238281 440.371094 602.976562 437.636719 602.976562 434.261719 L 602.976562 431.425781 C 616.769531 429.042969 627.167969 418.769531 627.167969 406.492188 C 627.167969 391.429688 614.699219 386.109375 602.976562 382.53125 L 602.976562 355.207031 C 612.6875 357.171875 618.984375 363.144531 619.042969 363.199219 C 621.445312 365.570312 625.316406 365.546875 627.6875 363.140625 C 630.058594 360.738281 630.035156 356.871094 627.628906 354.5 C 627.1875 354.0625 617.753906 344.929688 602.976562 342.804688 L 602.976562 340.046875 C 602.976562 336.671875 600.238281 333.933594 596.863281 333.933594 C 593.488281 333.933594 590.75 336.671875 590.75 340.046875 Z M 578.785156 367.8125 C 578.785156 362.203125 583.851562 357.273438 590.75 355.394531 L 590.75 378.804688 C 582.664062 376.007812 578.785156 373.246094 578.785156 367.8125 Z M 614.941406 406.496094 C 614.941406 412.105469 609.875 417.03125 602.976562 418.914062 L 602.976562 395.402344 C 611.0625 398.210938 614.941406 401.003906 614.941406 406.496094 Z M 614.941406 406.496094 " fill-opacity="1" fill-rule="nonzero"/><path fill="#3a322b" d="M 581.269531 218.214844 L 467.265625 218.214844 C 463.890625 218.214844 461.152344 220.953125 461.152344 224.328125 L 461.152344 256 C 461.152344 259.371094 463.890625 262.109375 467.265625 262.109375 L 581.269531 262.109375 C 584.644531 262.109375 587.382812 259.371094 587.382812 256 L 587.382812 224.328125 C 587.382812 220.953125 584.644531 218.214844 581.269531 218.214844 Z M 575.152344 249.886719 L 473.382812 249.886719 L 473.382812 230.4375 L 575.152344 230.4375 Z M 575.152344 249.886719 " fill-opacity="1" fill-rule="nonzero"/><path fill="#3a322b" d="M 366.199219 177.171875 L 505.570312 177.171875 C 508.949219 177.171875 511.683594 174.433594 511.683594 171.058594 C 511.683594 167.683594 508.949219 164.949219 505.570312 164.949219 L 366.199219 164.949219 C 362.824219 164.949219 360.085938 167.683594 360.085938 171.058594 C 360.085938 174.433594 362.824219 177.171875 366.199219 177.171875 Z M 366.199219 177.171875 " fill-opacity="1" fill-rule="nonzero"/><g clip-path="url(#43c4c722b7)"><path fill="#3a322b" d="M 701.457031 238.292969 C 701.210938 231.394531 698.285156 225.007812 693.230469 220.308594 L 684.507812 212.199219 L 688.234375 208.195312 C 691.144531 205.070312 692.660156 201 692.507812 196.734375 C 692.351562 192.472656 690.546875 188.523438 687.417969 185.617188 L 652.539062 153.191406 C 650.066406 150.890625 646.195312 151.03125 643.898438 153.503906 C 641.597656 155.972656 641.738281 159.839844 644.210938 162.136719 L 679.089844 194.566406 C 679.824219 195.25 680.25 196.175781 680.285156 197.179688 C 680.320312 198.179688 679.964844 199.136719 679.28125 199.871094 L 675.554688 203.875 L 582.542969 117.40625 C 581.9375 116.84375 581.226562 116.410156 580.449219 116.128906 L 533.144531 99.101562 C 530.839844 98.269531 528.265625 98.894531 526.597656 100.6875 C 524.929688 102.480469 524.492188 105.09375 525.484375 107.332031 L 531.777344 121.480469 L 328.503906 121.480469 C 325.128906 121.480469 322.390625 124.21875 322.390625 127.59375 L 322.390625 471.503906 C 322.390625 474.878906 325.128906 477.613281 328.503906 477.613281 L 543.269531 477.613281 C 546.644531 477.613281 549.382812 474.878906 549.382812 471.503906 L 549.382812 444.753906 C 562.296875 455.40625 578.847656 461.8125 596.863281 461.8125 C 638.054688 461.8125 671.566406 428.320312 671.566406 387.152344 C 671.566406 351.414062 646.304688 321.460938 612.691406 314.183594 L 612.691406 216.019531 L 658.011719 258.148438 C 663.882812 262.429688 669.976562 265.285156 676.554688 265.054688 C 683.457031 264.804688 689.847656 261.882812 694.550781 256.828125 C 699.253906 251.773438 701.707031 245.191406 701.457031 238.292969 Z M 567.59375 124.492188 L 553.316406 139.835938 L 542.476562 115.449219 Z M 581.269531 273.761719 L 467.265625 273.761719 C 463.890625 273.761719 461.152344 276.496094 461.152344 279.871094 L 461.152344 390.960938 C 461.152344 394.335938 463.890625 397.074219 467.265625 397.074219 L 522.820312 397.074219 C 523.347656 401.003906 524.179688 404.835938 525.292969 408.550781 L 455.960938 408.550781 C 451.609375 408.550781 448.074219 405.015625 448.074219 400.667969 L 448.074219 214.621094 C 448.074219 210.277344 451.609375 206.738281 455.960938 206.738281 L 592.578125 206.738281 C 596.925781 206.738281 600.464844 210.277344 600.464844 214.621094 L 600.464844 312.582031 C 599.273438 312.523438 598.070312 312.492188 596.863281 312.492188 C 593.652344 312.492188 590.488281 312.695312 587.382812 313.089844 L 587.382812 279.871094 C 587.382812 276.496094 584.644531 273.761719 581.269531 273.761719 Z M 549.382812 301.535156 L 549.382812 285.984375 L 575.152344 285.984375 L 575.152344 301.535156 Z M 575.152344 313.753906 C 564.847656 318.019531 555.964844 323.003906 549.691406 329.304688 L 549.382812 329.304688 L 549.382812 313.753906 Z M 511.382812 357.078125 L 511.382812 341.527344 L 537.152344 341.527344 C 533.792969 345.972656 530.910156 351.15625 528.496094 357.078125 Z M 524.324219 369.300781 C 523.089844 374.304688 522.363281 379.507812 522.199219 384.851562 L 511.382812 384.851562 L 511.382812 369.300781 Z M 511.382812 329.304688 L 511.382812 313.757812 L 537.152344 313.757812 L 537.152344 329.304688 Z M 511.382812 301.535156 L 511.382812 285.984375 L 537.152344 285.984375 L 537.152344 301.535156 Z M 473.382812 357.078125 L 473.382812 341.527344 L 499.152344 341.527344 L 499.152344 357.078125 Z M 499.152344 369.300781 L 499.152344 384.851562 L 473.378906 384.851562 L 473.378906 369.300781 Z M 473.382812 329.304688 L 473.382812 313.757812 L 499.152344 313.757812 L 499.152344 329.304688 Z M 473.382812 301.535156 L 473.382812 285.984375 L 499.152344 285.984375 L 499.152344 301.535156 Z M 549.382812 194.515625 L 549.382812 157.164062 L 589.5625 194.515625 Z M 537.152344 465.390625 L 334.617188 465.390625 L 334.617188 133.703125 L 537.152344 133.703125 L 537.152344 194.515625 L 455.960938 194.515625 C 444.867188 194.515625 435.84375 203.535156 435.84375 214.621094 L 435.84375 221.324219 L 366.199219 221.324219 C 362.824219 221.324219 360.085938 224.0625 360.085938 227.4375 C 360.085938 230.808594 362.824219 233.546875 366.199219 233.546875 L 435.84375 233.546875 L 435.84375 277.703125 L 366.199219 277.703125 C 362.824219 277.703125 360.085938 280.4375 360.085938 283.8125 C 360.085938 287.1875 362.824219 289.925781 366.199219 289.925781 L 435.84375 289.925781 L 435.84375 334.082031 L 366.199219 334.082031 C 362.824219 334.082031 360.085938 336.816406 360.085938 340.191406 C 360.085938 343.566406 362.824219 346.304688 366.199219 346.304688 L 435.84375 346.304688 L 435.84375 390.460938 L 366.199219 390.460938 C 362.824219 390.460938 360.085938 393.195312 360.085938 396.570312 C 360.085938 399.945312 362.824219 402.679688 366.199219 402.679688 L 435.941406 402.679688 C 436.957031 412.824219 445.546875 420.773438 455.960938 420.773438 L 530.175781 420.773438 C 532.171875 424.71875 534.511719 428.464844 537.152344 431.96875 Z M 659.335938 387.152344 C 659.335938 421.582031 631.3125 449.59375 596.863281 449.59375 C 562.414062 449.59375 534.390625 421.582031 534.390625 387.152344 C 534.390625 352.722656 562.414062 324.714844 596.863281 324.714844 C 631.3125 324.714844 659.335938 352.722656 659.335938 387.152344 Z M 560.128906 150.460938 L 578.691406 130.515625 L 653.558594 200.117188 L 634.996094 220.0625 Z M 685.597656 248.503906 C 683.117188 251.167969 679.75 252.707031 676.113281 252.839844 C 672.492188 252.96875 669.003906 251.675781 666.339844 249.199219 L 643.949219 228.386719 L 662.511719 208.441406 L 684.902344 229.257812 C 687.566406 231.734375 689.105469 235.101562 689.238281 238.734375 C 689.367188 242.371094 688.078125 245.839844 685.597656 248.503906 Z M 685.597656 248.503906 " fill-opacity="1" fill-rule="nonzero"/></g></svg>