<svg xmlns="http://www.w3.org/2000/svg" xmlns:xlink="http://www.w3.org/1999/xlink" width="1366" zoomAndPan="magnify" viewBox="0 0 1024.5 576" height="768" preserveAspectRatio="xMidYMid meet" version="1.0"><defs><clipPath id="7fbbcc98b1"><path d="M 0 0.140625 L 1024 0.140625 L 1024 575.859375 L 0 575.859375 Z M 0 0.140625 " clip-rule="nonzero"/></clipPath><clipPath id="114f2a172f"><path d="M 311 87 L 696 87 L 696 491.300781 L 311 491.300781 Z M 311 87 " clip-rule="nonzero"/></clipPath></defs><g clip-path="url(#7fbbcc98b1)"><path fill="#ffffff" d="M 0 0.140625 L 1024 0.140625 L 1024 575.859375 L 0 575.859375 Z M 0 0.140625 " fill-opacity="1" fill-rule="nonzero"/><path fill="#fdfeff" d="M 0 0.140625 L 1024 0.140625 L 1024 575.859375 L 0 575.859375 Z M 0 0.140625 " fill-opacity="1" fill-rule="nonzero"/></g><path fill="#66757f" d="M 627.832031 181.078125 C 627.832031 179.441406 626.511719 178.109375 624.863281 178.109375 L 619.503906 178.109375 C 617.867188 178.109375 616.535156 179.441406 616.535156 181.078125 L 616.535156 310.585938 C 616.535156 312.222656 617.855469 313.554688 619.503906 313.554688 L 624.863281 313.554688 C 626.5 313.554688 627.832031 312.234375 627.832031 310.585938 Z M 627.832031 181.078125 " fill-opacity="1" fill-rule="nonzero"/><path fill="#f19020" d="M 639.117188 307.898438 C 639.117188 308.453125 639.089844 309.007812 639.039062 309.558594 C 638.984375 310.113281 638.902344 310.660156 638.792969 311.203125 C 638.683594 311.746094 638.550781 312.285156 638.390625 312.816406 C 638.230469 313.34375 638.042969 313.867188 637.832031 314.378906 C 637.617188 314.890625 637.382812 315.390625 637.121094 315.878906 C 636.859375 316.371094 636.574219 316.84375 636.265625 317.304688 C 635.957031 317.765625 635.628906 318.210938 635.277344 318.640625 C 634.925781 319.070312 634.550781 319.480469 634.160156 319.871094 C 633.769531 320.261719 633.359375 320.636719 632.929688 320.988281 C 632.5 321.339844 632.054688 321.667969 631.59375 321.976562 C 631.132812 322.285156 630.660156 322.570312 630.171875 322.832031 C 629.679688 323.09375 629.179688 323.328125 628.667969 323.539062 C 628.15625 323.753906 627.632812 323.941406 627.105469 324.101562 C 626.574219 324.261719 626.035156 324.394531 625.492188 324.503906 C 624.949219 324.613281 624.402344 324.695312 623.847656 324.746094 C 623.296875 324.800781 622.742188 324.828125 622.191406 324.828125 C 621.636719 324.828125 621.082031 324.800781 620.53125 324.746094 C 619.976562 324.695312 619.429688 324.613281 618.886719 324.503906 C 618.34375 324.394531 617.804688 324.261719 617.273438 324.101562 C 616.746094 323.941406 616.222656 323.753906 615.710938 323.539062 C 615.199219 323.328125 614.699219 323.09375 614.210938 322.832031 C 613.71875 322.570312 613.246094 322.285156 612.785156 321.976562 C 612.324219 321.667969 611.878906 321.339844 611.449219 320.988281 C 611.019531 320.636719 610.609375 320.261719 610.21875 319.871094 C 609.828125 319.480469 609.453125 319.070312 609.101562 318.640625 C 608.75 318.210938 608.421875 317.765625 608.113281 317.304688 C 607.804688 316.84375 607.519531 316.371094 607.257812 315.878906 C 606.996094 315.390625 606.761719 314.890625 606.550781 314.378906 C 606.335938 313.867188 606.148438 313.34375 605.988281 312.816406 C 605.828125 312.285156 605.695312 311.746094 605.585938 311.203125 C 605.476562 310.660156 605.394531 310.113281 605.34375 309.558594 C 605.289062 309.007812 605.261719 308.453125 605.261719 307.898438 C 605.261719 307.347656 605.289062 306.792969 605.34375 306.242188 C 605.394531 305.6875 605.476562 305.140625 605.585938 304.597656 C 605.695312 304.054688 605.828125 303.515625 605.988281 302.984375 C 606.148438 302.457031 606.335938 301.933594 606.550781 301.421875 C 606.761719 300.910156 606.996094 300.410156 607.257812 299.917969 C 607.519531 299.429688 607.804688 298.957031 608.113281 298.496094 C 608.421875 298.035156 608.75 297.589844 609.101562 297.160156 C 609.453125 296.730469 609.828125 296.320312 610.21875 295.929688 C 610.609375 295.539062 611.019531 295.164062 611.449219 294.8125 C 611.878906 294.460938 612.324219 294.132812 612.785156 293.824219 C 613.246094 293.515625 613.71875 293.230469 614.210938 292.96875 C 614.699219 292.707031 615.199219 292.472656 615.710938 292.257812 C 616.222656 292.046875 616.746094 291.859375 617.273438 291.699219 C 617.804688 291.539062 618.34375 291.40625 618.886719 291.296875 C 619.429688 291.1875 619.976562 291.105469 620.53125 291.050781 C 621.082031 291 621.636719 290.972656 622.191406 290.972656 C 622.742188 290.972656 623.296875 291 623.847656 291.050781 C 624.402344 291.105469 624.949219 291.1875 625.492188 291.296875 C 626.035156 291.40625 626.574219 291.539062 627.105469 291.699219 C 627.632812 291.859375 628.15625 292.046875 628.667969 292.257812 C 629.179688 292.472656 629.679688 292.707031 630.171875 292.96875 C 630.660156 293.230469 631.132812 293.515625 631.59375 293.824219 C 632.054688 294.132812 632.5 294.460938 632.929688 294.8125 C 633.359375 295.164062 633.769531 295.539062 634.160156 295.929688 C 634.550781 296.320312 634.925781 296.730469 635.277344 297.160156 C 635.628906 297.589844 635.957031 298.035156 636.265625 298.496094 C 636.574219 298.957031 636.859375 299.429688 637.121094 299.917969 C 637.382812 300.410156 637.617188 300.910156 637.832031 301.421875 C 638.042969 301.933594 638.230469 302.457031 638.390625 302.984375 C 638.550781 303.515625 638.683594 304.054688 638.792969 304.597656 C 638.902344 305.140625 638.984375 305.6875 639.039062 306.242188 C 639.089844 306.792969 639.117188 307.347656 639.117188 307.898438 Z M 639.117188 307.898438 " fill-opacity="1" fill-rule="nonzero"/><path fill="#f19020" d="M 633.476562 336.117188 C 633.476562 336.855469 633.402344 337.589844 633.257812 338.316406 C 633.113281 339.042969 632.898438 339.75 632.617188 340.433594 C 632.332031 341.121094 631.984375 341.769531 631.574219 342.386719 C 631.160156 343.003906 630.695312 343.570312 630.171875 344.097656 C 629.644531 344.621094 629.074219 345.089844 628.460938 345.5 C 627.84375 345.910156 627.191406 346.257812 626.507812 346.542969 C 625.824219 346.828125 625.117188 347.039062 624.390625 347.183594 C 623.664062 347.328125 622.929688 347.402344 622.191406 347.402344 C 621.449219 347.402344 620.714844 347.328125 619.988281 347.183594 C 619.261719 347.039062 618.554688 346.828125 617.871094 346.542969 C 617.1875 346.257812 616.535156 345.910156 615.917969 345.5 C 615.304688 345.089844 614.734375 344.621094 614.210938 344.097656 C 613.683594 343.570312 613.21875 343.003906 612.804688 342.386719 C 612.394531 341.769531 612.046875 341.121094 611.761719 340.433594 C 611.480469 339.75 611.265625 339.042969 611.121094 338.316406 C 610.976562 337.589844 610.902344 336.855469 610.902344 336.117188 C 610.902344 335.375 610.976562 334.640625 611.121094 333.914062 C 611.265625 333.1875 611.480469 332.480469 611.761719 331.796875 C 612.046875 331.113281 612.394531 330.460938 612.804688 329.84375 C 613.21875 329.230469 613.683594 328.660156 614.210938 328.136719 C 614.734375 327.609375 615.304688 327.144531 615.917969 326.730469 C 616.535156 326.320312 617.1875 325.972656 617.871094 325.6875 C 618.554688 325.40625 619.261719 325.191406 619.988281 325.046875 C 620.714844 324.902344 621.449219 324.828125 622.191406 324.828125 C 622.929688 324.828125 623.664062 324.902344 624.390625 325.046875 C 625.117188 325.191406 625.824219 325.40625 626.507812 325.6875 C 627.191406 325.972656 627.84375 326.320312 628.460938 326.730469 C 629.074219 327.144531 629.644531 327.609375 630.171875 328.136719 C 630.695312 328.660156 631.160156 329.230469 631.574219 329.84375 C 631.984375 330.460938 632.332031 331.113281 632.617188 331.796875 C 632.898438 332.480469 633.113281 333.1875 633.257812 333.914062 C 633.402344 334.640625 633.476562 335.375 633.476562 336.117188 Z M 633.476562 336.117188 " fill-opacity="1" fill-rule="nonzero"/><g clip-path="url(#114f2a172f)"><path fill="#bd2032" d="M 684.261719 178.109375 L 637.664062 178.109375 L 421.25 88.273438 L 421.226562 88.261719 L 421.21875 88.261719 C 421.035156 88.179688 420.855469 88.203125 420.6875 88.148438 C 420.15625 87.988281 419.625 87.820312 419.039062 87.820312 L 419.015625 87.820312 C 418.269531 87.820312 417.550781 87.976562 416.871094 88.25 C 416.363281 88.476562 415.921875 88.8125 415.496094 89.175781 C 415.359375 89.277344 415.203125 89.332031 415.078125 89.457031 C 414.546875 89.976562 414.117188 90.609375 413.835938 91.308594 L 413.835938 91.320312 C 413.789062 91.421875 413.800781 91.542969 413.769531 91.644531 L 351.230469 179.792969 C 351.199219 179.835938 351.199219 179.902344 351.164062 179.949219 C 347.949219 181.933594 345.679688 185.332031 345.679688 189.394531 L 345.679688 211.96875 C 345.679688 218.199219 350.734375 223.253906 356.964844 223.253906 L 373.835938 223.253906 L 331.921875 468.726562 L 311.820312 468.726562 L 311.820312 491.300781 L 525.785156 491.300781 L 525.785156 468.726562 L 506.144531 468.726562 L 464.238281 223.253906 L 684.261719 223.253906 C 690.503906 223.253906 695.550781 218.199219 695.550781 211.96875 L 695.550781 189.394531 C 695.550781 183.164062 690.503906 178.109375 684.261719 178.109375 Z M 438.574219 223.253906 L 419.039062 238.929688 L 399.515625 223.253906 Z M 419.039062 325.394531 L 460.425781 352.527344 L 419.039062 375.097656 L 377.652344 352.527344 Z M 377.96875 333.40625 L 383.316406 301.984375 L 404.378906 315.789062 Z M 433.699219 315.789062 L 454.804688 301.964844 L 460.1875 333.441406 Z M 419.039062 306.015625 L 387.121094 284.742188 L 419.039062 258.535156 L 450.957031 284.742188 Z M 390.113281 262.144531 L 394.199219 238.140625 L 406.960938 248.613281 Z M 431.113281 248.625 L 443.890625 238.140625 L 448 262.179688 Z M 366.253906 178.109375 L 413.394531 111.65625 L 413.394531 155.539062 L 390.824219 155.539062 C 384.59375 155.539062 379.539062 160.59375 379.539062 166.824219 L 379.539062 178.109375 Z M 372.234375 367.015625 L 403.046875 383.824219 L 365.914062 404.070312 Z M 483.289062 468.726562 L 354.898438 468.726562 L 362.640625 423.3125 L 419.039062 392.546875 L 475.539062 423.367188 Z M 465.910156 366.984375 L 472.253906 404.125 L 435.03125 383.824219 Z M 458.539062 178.109375 L 458.539062 166.824219 C 458.539062 160.59375 453.484375 155.539062 447.253906 155.539062 L 424.683594 155.539062 L 424.683594 101.917969 L 608.230469 178.109375 Z M 481.113281 211.96875 L 468.019531 211.96875 L 468.019531 189.394531 L 481.113281 189.394531 Z M 514.972656 211.96875 L 492.398438 211.96875 L 492.398438 189.394531 L 514.972656 189.394531 Z M 548.828125 211.96875 L 526.257812 211.96875 L 526.257812 189.394531 L 548.828125 189.394531 Z M 582.6875 211.96875 L 560.117188 211.96875 L 560.117188 189.394531 L 582.6875 189.394531 Z M 616.546875 211.96875 L 593.972656 211.96875 L 593.972656 189.394531 L 616.546875 189.394531 Z M 650.40625 211.96875 L 627.832031 211.96875 L 627.832031 189.394531 L 650.40625 189.394531 Z M 684.261719 206.324219 C 684.261719 209.441406 681.734375 211.96875 678.621094 211.96875 L 661.691406 211.96875 L 661.691406 189.394531 L 678.621094 189.394531 C 681.734375 189.394531 684.261719 191.921875 684.261719 195.039062 Z M 684.261719 206.324219 " fill-opacity="1" fill-rule="nonzero"/></g><path fill="#4b545d" d="M 447.253906 166.824219 L 424.683594 166.824219 C 418.453125 166.824219 413.394531 171.878906 413.394531 178.109375 L 413.394531 200.683594 C 413.394531 206.910156 418.453125 211.96875 424.683594 211.96875 L 458.539062 211.96875 L 458.539062 166.824219 Z M 447.253906 166.824219 " fill-opacity="1" fill-rule="nonzero"/><path fill="#cdd7df" d="M 435.96875 166.824219 L 458.539062 166.824219 L 458.539062 211.96875 L 435.96875 211.96875 Z M 435.96875 166.824219 " fill-opacity="1" fill-rule="nonzero"/><path fill="#66757f" d="M 702.253906 355.867188 L 702.253906 344.582031 L 542.125 344.582031 L 542.125 355.867188 L 551.652344 355.867188 L 551.652344 383.730469 L 542.125 383.730469 L 542.125 395.019531 L 702.253906 395.019531 L 702.253906 383.730469 L 692.726562 383.730469 L 692.726562 355.867188 Z M 702.253906 355.867188 " fill-opacity="1" fill-rule="nonzero"/></svg>